Neuton-Extralight.ufo
<glyph name="quotedbl" format="1">
  <advance width="396"/>
  <unicode hex="0022"/>
  <outline>
    <contour>
      <point x="61" y="1302" type="line"/>
      <point x="170" y="1296" type="line"/>
      <point x="134" y="895" type="line"/>
      <point x="82" y="891" type="line"/>
    </contour>
    <contour>
      <point x="226" y="1302" type="line"/>
      <point x="336" y="1296" type="line"/>
      <point x="300" y="895" type="line"/>
      <point x="247" y="891" type="line"/>
    </contour>
  </outline>
</glyph>
<glyph name="numbersign" format="1">
  <advance width="1090"/>
  <unicode hex="0023"/>
  <outline>
    <contour>
      <point x="331" y="-19" type="line"/>
      <point x="264" y="-26" type="line"/>
      <point x="440" y="1151" type="line"/>
      <point x="508" y="1161" type="line"/>
    </contour>
    <contour>
      <point x="114" y="712" type="line"/>
      <point x="136" y="789" type="line"/>
      <point x="1047" y="789" type="line"/>
      <point x="1028" y="712" type="line"/>
    </contour>
    <contour>
      <point x="43" y="326" type="line"/>
      <point x="64" y="403" type="line"/>
      <point x="973" y="403" type="line"/>
      <point x="952" y="326" type="line"/>
    </contour>
    <contour>
      <point x="662" y="-19" type="line"/>
      <point x="593" y="-26" type="line"/>
      <point x="770" y="1151" type="line"/>
      <point x="838" y="1160" type="line"/>
    </contour>
  </outline>
</glyph>
<glyph name="dollar" format="1">
  <advance width="822"/>
  <unicode hex="0024"/>
  <outline>
    <contour>
      <point x="46" y="116" type="curve"/>
      <point x="76" y="401" type="line"/>
      <point x="124" y="393" type="line"/>
      <point x="152" y="174" type="line"/>
      <point x="197" y="87"/>
      <point x="315" y="37"/>
      <point x="428" y="37" type="curve" smooth="yes"/>
      <point x="552" y="37"/>
      <point x="668" y="113"/>
      <point x="668" y="262" type="curve" smooth="yes"/>
      <point x="668" y="561"/>
      <point x="95" y="609"/>
      <point x="95" y="959" type="curve" smooth="yes"/>
      <point x="95" y="1158"/>
      <point x="267" y="1271"/>
      <point x="427" y="1271" type="curve" smooth="yes"/>
      <point x="535" y="1271"/>
      <point x="652" y="1236"/>
      <point x="719" y="1161" type="curve"/>
      <point x="686" y="851" type="line"/>
      <point x="640" y="858" type="line"/>
      <point x="613" y="1101" type="line"/>
      <point x="577" y="1167"/>
      <point x="483" y="1214"/>
      <point x="401" y="1214" type="curve" smooth="yes"/>
      <point x="289" y="1214"/>
      <point x="193" y="1137"/>
      <point x="193" y="1006" type="curve" smooth="yes"/>
      <point x="193" y="689"/>
      <point x="778" y="631"/>
      <point x="778" y="308" type="curve" smooth="yes"/>
      <point x="778" y="119"/>
      <point x="624" y="-26"/>
      <point x="376" y="-26" type="curve" smooth="yes"/>
      <point x="232" y="-26"/>
      <point x="110" y="37"/>
    </contour>
    <contour>
      <point x="348" y="-179" type="line"/>
      <point x="360" y="9" type="line"/>
      <point x="378" y="54" type="line"/>
      <point x="378" y="632" type="line"/>
      <point x="383" y="700" type="line"/>
      <point x="383" y="1208" type="line"/>
      <point x="366" y="1244" type="line"/>
      <point x="356" y="1396" type="line"/>
      <point x="465" y="1411" type="line"/>
      <point x="450" y="1244" type="line"/>
      <point x="432" y="1205" type="line"/>
      <point x="432" y="666" type="line"/>
      <point x="434" y="583" type="line"/>
      <point x="434" y="54" type="line"/>
      <point x="452" y="20" type="line"/>
      <point x="466" y="-164" type="line"/>
    </contour>
  </outline>
</glyph>
<glyph name="percent" format="1">
  <advance width="1110"/>
  <unicode hex="0025"/>
  <outline>
    <contour>
      <point x="48" y="899" type="curve" smooth="yes"/>
      <point x="48" y="1069"/>
      <point x="137" y="1213"/>
      <point x="260" y="1213" type="curve" smooth="yes"/>
      <point x="278" y="1213"/>
      <point x="297" y="1213"/>
      <point x="303" y="1210" type="curve"/>
      <point x="295" y="1163" type="line"/>
      <point x="281" y="1177"/>
      <point x="279" y="1182"/>
      <point x="260" y="1182" type="curve" smooth="yes"/>
      <point x="175" y="1182"/>
      <point x="138" y="1014"/>
      <point x="138" y="899" type="curve" smooth="yes"/>
      <point x="138" y="781"/>
      <point x="187" y="625"/>
      <point x="262" y="625" type="curve" smooth="yes"/>
      <point x="346" y="625"/>
      <point x="392" y="779"/>
      <point x="392" y="899" type="curve" smooth="yes"/>
      <point x="392" y="1042"/>
      <point x="364" y="1137"/>
      <point x="337" y="1194" type="curve"/>
      <point x="833" y="1212" type="line"/>
      <point x="843" y="1163" type="line"/>
      <point x="433" y="1163" type="line"/>
      <point x="462" y="1120"/>
      <point x="483" y="949"/>
      <point x="483" y="899" type="curve" smooth="yes"/>
      <point x="483" y="727"/>
      <point x="380" y="586"/>
      <point x="262" y="586" type="curve" smooth="yes"/>
      <point x="135" y="586"/>
      <point x="48" y="707"/>
    </contour>
    <contour>
      <point x="171" y="-43" type="line"/>
      <point x="517" y="588" type="line"/>
      <point x="833" y="1212" type="line"/>
      <point x="930" y="1207" type="line"/>
      <point x="927" y="1203" type="line"/>
      <point x="596" y="591" type="line"/>
      <point x="272" y="-47" type="line"/>
    </contour>
    <contour>
      <point x="622" y="278" type="curve" smooth="yes"/>
      <point x="622" y="448"/>
      <point x="712" y="591"/>
      <point x="835" y="591" type="curve" smooth="yes"/>
      <point x="977" y="591"/>
      <point x="1060" y="453"/>
      <point x="1060" y="274" type="curve" smooth="yes"/>
      <point x="1060" y="104"/>
      <point x="956" y="-36"/>
      <point x="838" y="-36" type="curve" smooth="yes"/>
      <point x="711" y="-36"/>
      <point x="622" y="88"/>
    </contour>
    <contour>
      <point x="715" y="278" type="curve" smooth="yes"/>
      <point x="715" y="160"/>
      <point x="763" y="0"/>
      <point x="838" y="0" type="curve" smooth="yes"/>
      <point x="922" y="0"/>
      <point x="968" y="159"/>
      <point x="968" y="280" type="curve" smooth="yes"/>
      <point x="968" y="400"/>
      <point x="911" y="559"/>
      <point x="835" y="559" type="curve" smooth="yes"/>
      <point x="750" y="559"/>
      <point x="715" y="393"/>
    </contour>
  </outline>
</glyph>
<glyph name="ampersand" format="1">
  <advance width="1237"/>
  <unicode hex="0026"/>
  <outline>
    <contour>
      <point x="50" y="243" type="curve" smooth="yes"/>
      <point x="50" y="433"/>
      <point x="214" y="556"/>
      <point x="368" y="672" type="curve"/>
      <point x="298" y="757"/>
      <point x="217" y="869"/>
      <point x="217" y="975" type="curve" smooth="yes"/>
      <point x="217" y="1131"/>
      <point x="332" y="1272"/>
      <point x="492" y="1272" type="curve" smooth="yes"/>
      <point x="646" y="1272"/>
      <point x="745" y="1175"/>
      <point x="745" y="1021" type="curve" smooth="yes"/>
      <point x="745" y="879"/>
      <point x="624" y="781"/>
      <point x="492" y="683" type="curve"/>
      <point x="492" y="680" type="line"/>
      <point x="747" y="385" type="line"/>
      <point x="935" y="721" type="line"/>
      <point x="774" y="752" type="line"/>
      <point x="776" y="786" type="line"/>
      <point x="1192" y="786" type="line"/>
      <point x="1187" y="752" type="line"/>
      <point x="1019" y="723" type="line"/>
      <point x="796" y="332" type="line"/>
      <point x="932" y="154"/>
      <point x="1049" y="76"/>
      <point x="1141" y="47" type="curve" smooth="yes"/>
      <point x="1187" y="34" type="line"/>
      <point x="1180" y="-3" type="line"/>
      <point x="1137" y="-18"/>
      <point x="1126" y="-20"/>
      <point x="1089" y="-20" type="curve" smooth="yes"/>
      <point x="991" y="-20"/>
      <point x="895" y="53"/>
      <point x="842" y="116" type="curve" smooth="yes"/>
      <point x="739" y="236" type="line"/>
      <point x="654" y="111"/>
      <point x="533" y="-20"/>
      <point x="337" y="-20" type="curve" smooth="yes"/>
      <point x="159" y="-20"/>
      <point x="50" y="98"/>
    </contour>
    <contour>
      <point x="162" y="281" type="curve" smooth="yes"/>
      <point x="162" y="161"/>
      <point x="257" y="65"/>
      <point x="380" y="65" type="curve" smooth="yes"/>
      <point x="510" y="65"/>
      <point x="609" y="158"/>
      <point x="693" y="290" type="curve"/>
      <point x="410" y="622" type="line"/>
      <point x="407" y="622" type="line"/>
      <point x="277" y="525"/>
      <point x="162" y="426"/>
    </contour>
    <contour>
      <point x="295" y="1026" type="curve" smooth="yes"/>
      <point x="295" y="936"/>
      <point x="370" y="829"/>
      <point x="449" y="731" type="curve"/>
      <point x="558" y="813"/>
      <point x="646" y="896"/>
      <point x="646" y="1000" type="curve" smooth="yes"/>
      <point x="646" y="1115"/>
      <point x="564" y="1212"/>
      <point x="464" y="1212" type="curve" smooth="yes"/>
      <point x="362" y="1212"/>
      <point x="295" y="1122"/>
    </contour>
  </outline>
</glyph>
<glyph name="quotesingle" format="1">
  <advance width="230"/>
  <unicode hex="0027"/>
  <outline>
    <contour>
      <point x="61" y="1302" type="line"/>
      <point x="170" y="1296" type="line"/>
      <point x="134" y="895" type="line"/>
      <point x="82" y="891" type="line"/>
    </contour>
  </outline>
</glyph>
<glyph name="parenright" format="1">
  <advance width="461"/>
  <unicode hex="0029"/>
  <outline>
    <contour>
      <point x="43" y="1213" type="curve"/>
      <point x="67" y="1256" type="line"/>
      <point x="133" y="1199"/>
      <point x="405" y="981"/>
      <point x="405" y="455" type="curve" smooth="yes"/>
      <point x="405" y="-61"/>
      <point x="124" y="-328"/>
      <point x="73" y="-374" type="curve"/>
      <point x="45" y="-342" type="line"/>
      <point x="90" y="-269"/>
      <point x="292" y="40"/>
      <point x="292" y="456" type="curve" smooth="yes"/>
      <point x="292" y="881"/>
      <point x="128" y="1100"/>
    </contour>
  </outline>
</glyph>
<glyph name="asterisk" format="1">
  <advance width="796"/>
  <unicode hex="002A"/>
  <outline>
    <contour>
      <point x="345" y="1289" type="line"/>
      <point x="454" y="1280" type="line"/>
      <point x="429" y="973" type="line"/>
      <point x="722" y="1097" type="line"/>
      <point x="747" y="990" type="line"/>
      <point x="447" y="923" type="line"/>
      <point x="654" y="680" type="line"/>
      <point x="562" y="623" type="line"/>
      <point x="405" y="893" type="line"/>
      <point x="236" y="616" type="line"/>
      <point x="153" y="684" type="line"/>
      <point x="357" y="919" type="line"/>
      <point x="47" y="990" type="line"/>
      <point x="89" y="1093" type="line"/>
      <point x="373" y="970" type="line"/>
    </contour>
  </outline>
</glyph>
<glyph name="plus" format="1">
  <advance width="612"/>
  <unicode hex="002B"/>
  <outline>
    <contour>
      <point x="51" y="426" type="line"/>
      <point x="64" y="495" type="line"/>
      <point x="272" y="495" type="line"/>
      <point x="272" y="742" type="line"/>
      <point x="339" y="730" type="line"/>
      <point x="341" y="495" type="line"/>
      <point x="561" y="495" type="line"/>
      <point x="550" y="426" type="line"/>
      <point x="341" y="426" type="line"/>
      <point x="342" y="172" type="line"/>
      <point x="272" y="187" type="line"/>
      <point x="272" y="426" type="line"/>
    </contour>
  </outline>
</glyph>
<glyph name="comma" format="1">
  <advance width="394"/>
  <unicode hex="002C"/>
  <outline>
    <contour>
      <point x="54" y="-236" type="line"/>
      <point x="197" y="-179"/>
      <point x="232" y="-112"/>
      <point x="232" y="-30" type="curve" smooth="yes"/>
      <point x="232" y="57"/>
      <point x="182" y="112"/>
      <point x="123" y="112" type="curve" smooth="yes"/>
      <point x="114" y="112"/>
      <point x="105" y="112"/>
      <point x="96" y="108" type="curve"/>
      <point x="93" y="117"/>
      <point x="93" y="118"/>
      <point x="93" y="127" type="curve" smooth="yes"/>
      <point x="93" y="182"/>
      <point x="132" y="218"/>
      <point x="189" y="218" type="curve" smooth="yes"/>
      <point x="265" y="218"/>
      <point x="332" y="147"/>
      <point x="332" y="9" type="curve" smooth="yes"/>
      <point x="332" y="-85"/>
      <point x="275" y="-215"/>
      <point x="66" y="-281" type="curve"/>
    </contour>
  </outline>
</glyph>
<glyph name="zero" format="1">
  <advance width="890"/>
  <unicode hex="0030"/>
  <outline>
    <contour>
      <point x="55" y="588" type="curve" smooth="yes"/>
      <point x="55" y="960"/>
      <point x="226" y="1202"/>
      <point x="448" y="1202" type="curve" smooth="yes"/>
      <point x="689" y="1202"/>
      <point x="832" y="969"/>
      <point x="832" y="588" type="curve" smooth="yes"/>
      <point x="832" y="180"/>
      <point x="645.712" y="-27"/>
      <point x="441" y="-27" type="curve" smooth="yes"/>
      <point x="220.149" y="-27"/>
      <point x="55" y="174"/>
    </contour>
    <contour>
      <point x="175" y="584" type="curve" smooth="yes"/>
      <point x="175" y="219"/>
      <point x="294.79" y="27"/>
      <point x="446" y="27" type="curve" smooth="yes"/>
      <point x="621.32" y="27"/>
      <point x="710" y="219"/>
      <point x="710" y="588" type="curve" smooth="yes"/>
      <point x="710" y="913"/>
      <point x="612" y="1151"/>
      <point x="450" y="1151" type="curve" smooth="yes"/>
      <point x="268" y="1151"/>
      <point x="175" y="913"/>
    </contour>
  </outline>
</glyph>
<glyph name="one" format="1">
  <advance width="763"/>
  <unicode hex="0031"/>
  <outline>
    <contour>
      <point x="46" y="3" type="line"/>
      <point x="47" y="48" type="line"/>
      <point x="331" y="85" type="line"/>
      <point x="331" y="1089" type="line"/>
      <point x="63" y="1089" type="line"/>
      <point x="68" y="1133" type="line"/>
      <point x="418" y="1184" type="line"/>
      <point x="446" y="1184" type="line"/>
      <point x="446" y="82" type="line"/>
      <point x="720" y="58" type="line"/>
      <point x="711" y="3" type="line"/>
    </contour>
  </outline>
</glyph>
<glyph name="two" format="1">
  <advance width="898"/>
  <unicode hex="0032"/>
  <outline>
    <contour>
      <point x="46" y="46" type="line"/>
      <point x="286" y="256" type="line" smooth="yes"/>
      <point x="567" y="501"/>
      <point x="680" y="636"/>
      <point x="680" y="863" type="curve" smooth="yes"/>
      <point x="680" y="1017"/>
      <point x="598" y="1151"/>
      <point x="441" y="1151" type="curve" smooth="yes"/>
      <point x="312" y="1151"/>
      <point x="242" y="1099"/>
      <point x="209" y="1054" type="curve"/>
      <point x="164" y="834" type="line"/>
      <point x="128" y="841" type="line"/>
      <point x="134" y="1093" type="line"/>
      <point x="184" y="1139"/>
      <point x="304" y="1207"/>
      <point x="466" y="1207" type="curve" smooth="yes"/>
      <point x="656" y="1207"/>
      <point x="806" y="1104"/>
      <point x="806" y="854" type="curve" smooth="yes"/>
      <point x="806" y="606"/>
      <point x="617" y="450"/>
      <point x="263" y="154" type="curve" smooth="yes"/>
      <point x="181" y="85" type="line"/>
      <point x="725" y="85" type="line"/>
      <point x="812" y="354" type="line"/>
      <point x="852" y="348" type="line"/>
      <point x="806" y="0" type="line"/>
      <point x="52" y="0" type="line"/>
    </contour>
  </outline>
</glyph>
<glyph name="three" format="1">
  <advance width="801"/>
  <unicode hex="0033"/>
  <outline>
    <contour>
      <point x="49" y="106" type="curve"/>
      <point x="88" y="333" type="line"/>
      <point x="138" y="323" type="line"/>
      <point x="144" y="136" type="line"/>
      <point x="177" y="78"/>
      <point x="268" y="15"/>
      <point x="373" y="15" type="curve" smooth="yes"/>
      <point x="521" y="15"/>
      <point x="635" y="121"/>
      <point x="635" y="287" type="curve" smooth="yes"/>
      <point x="635" y="468"/>
      <point x="482" y="556"/>
      <point x="294" y="565" type="curve"/>
      <point x="292" y="599" type="line"/>
      <point x="390" y="653"/>
      <point x="582" y="740"/>
      <point x="582" y="939" type="curve" smooth="yes"/>
      <point x="582" y="1037"/>
      <point x="526" y="1156"/>
      <point x="403" y="1156" type="curve" smooth="yes"/>
      <point x="299" y="1156"/>
      <point x="246" y="1102"/>
      <point x="210" y="1054" type="curve"/>
      <point x="171" y="854" type="line"/>
      <point x="126" y="864" type="line"/>
      <point x="131" y="1093" type="line"/>
      <point x="185" y="1139"/>
      <point x="270" y="1207"/>
      <point x="448" y="1207" type="curve" smooth="yes"/>
      <point x="592" y="1207"/>
      <point x="704" y="1103"/>
      <point x="704" y="957" type="curve" smooth="yes"/>
      <point x="704" y="795"/>
      <point x="573" y="682"/>
      <point x="452" y="637" type="curve"/>
      <point x="452" y="628" type="line"/>
      <point x="630" y="602"/>
      <point x="752" y="486"/>
      <point x="752" y="332" type="curve" smooth="yes"/>
      <point x="752" y="114"/>
      <point x="552" y="-36"/>
      <point x="355" y="-36" type="curve" smooth="yes"/>
      <point x="209" y="-36"/>
      <point x="95" y="23"/>
    </contour>
  </outline>
</glyph>
<glyph name="four" format="1">
  <advance width="963"/>
  <unicode hex="0034"/>
  <outline>
    <contour>
      <point x="45" y="398" type="line"/>
      <point x="635" y="1187" type="line"/>
      <point x="669" y="1175" type="line"/>
      <point x="662" y="1057"/>
      <point x="660" y="865"/>
      <point x="660" y="683" type="curve" smooth="yes"/>
      <point x="660" y="444" type="line"/>
      <point x="916" y="444" type="line"/>
      <point x="899" y="369" type="line"/>
      <point x="660" y="369" type="line"/>
      <point x="660" y="66" type="line"/>
      <point x="862" y="47" type="line"/>
      <point x="852" y="1" type="line"/>
      <point x="289" y="1" type="line"/>
      <point x="297" y="43" type="line"/>
      <point x="554" y="73" type="line"/>
      <point x="554" y="372" type="line"/>
      <point x="59" y="372" type="line"/>
    </contour>
    <contour>
      <point x="155" y="444" type="line"/>
      <point x="551" y="444" type="line"/>
      <point x="551" y="984" type="line"/>
    </contour>
  </outline>
</glyph>
<glyph name="five" format="1">
  <advance width="796"/>
  <unicode hex="0035"/>
  <outline>
    <contour>
      <point x="50" y="103" type="curve"/>
      <point x="81" y="351" type="line"/>
      <point x="129" y="340" type="line"/>
      <point x="144" y="154" type="line"/>
      <point x="211" y="84"/>
      <point x="290" y="47"/>
      <point x="370" y="47" type="curve" smooth="yes"/>
      <point x="530" y="47"/>
      <point x="625" y="159"/>
      <point x="625" y="325" type="curve" smooth="yes"/>
      <point x="625" y="525"/>
      <point x="418" y="662"/>
      <point x="155" y="677" type="curve"/>
      <point x="266" y="1171" type="line"/>
      <point x="694" y="1198" type="line"/>
      <point x="678" y="1081" type="line"/>
      <point x="295" y="1063" type="line"/>
      <point x="244" y="779" type="line"/>
      <point x="567" y="755"/>
      <point x="744" y="591"/>
      <point x="744" y="383" type="curve" smooth="yes"/>
      <point x="744" y="172"/>
      <point x="572" y="-7"/>
      <point x="327" y="-7" type="curve" smooth="yes"/>
      <point x="227" y="-7"/>
      <point x="134" y="27"/>
    </contour>
  </outline>
</glyph>
<glyph name="six" format="1">
  <advance width="825"/>
  <unicode hex="0036"/>
  <outline>
    <contour>
      <point x="56" y="422" type="curve" smooth="yes"/>
      <point x="56" y="757"/>
      <point x="267" y="1095"/>
      <point x="596" y="1213" type="curve"/>
      <point x="617" y="1171" type="line"/>
      <point x="316" y="1040"/>
      <point x="227" y="809"/>
      <point x="187" y="609" type="curve"/>
      <point x="194" y="609" type="line"/>
      <point x="254" y="655"/>
      <point x="333" y="709"/>
      <point x="469" y="709" type="curve" smooth="yes"/>
      <point x="664" y="709"/>
      <point x="773" y="535"/>
      <point x="773" y="353" type="curve" smooth="yes"/>
      <point x="773" y="147"/>
      <point x="617" y="-22"/>
      <point x="400" y="-22" type="curve" smooth="yes"/>
      <point x="145" y="-22"/>
      <point x="56" y="189"/>
    </contour>
    <contour>
      <point x="176" y="408" type="curve" smooth="yes"/>
      <point x="176" y="163"/>
      <point x="301" y="27"/>
      <point x="424" y="27" type="curve" smooth="yes"/>
      <point x="578" y="27"/>
      <point x="653" y="139"/>
      <point x="653" y="327" type="curve" smooth="yes"/>
      <point x="653" y="501"/>
      <point x="555" y="631"/>
      <point x="395" y="631" type="curve" smooth="yes"/>
      <point x="286" y="631"/>
      <point x="212" y="589"/>
      <point x="186" y="553" type="curve"/>
      <point x="179" y="517"/>
      <point x="176" y="444"/>
    </contour>
  </outline>
</glyph>
<glyph name="seven" format="1">
  <advance width="860"/>
  <unicode hex="0037"/>
  <outline>
    <contour>
      <point x="47" y="848" type="line"/>
      <point x="77" y="1182" type="line"/>
      <point x="816" y="1182" type="line"/>
      <point x="816" y="1130" type="line"/>
      <point x="386" y="-33" type="line"/>
      <point x="275" y="-20" type="line"/>
      <point x="734" y="1078" type="line"/>
      <point x="147" y="1078" type="line"/>
      <point x="85" y="843" type="line"/>
    </contour>
  </outline>
</glyph>
<glyph name="eight" format="1">
  <advance width="777"/>
  <unicode hex="0038"/>
  <outline>
    <contour>
      <point x="50" y="281" type="curve" smooth="yes"/>
      <point x="50" y="399.58"/>
      <point x="124.775" y="517.111"/>
      <point x="257" y="621" type="curve"/>
      <point x="257" y="626" type="line"/>
      <point x="144.033" y="709.368"/>
      <point x="96" y="803.158"/>
      <point x="96" y="914" type="curve" smooth="yes"/>
      <point x="96" y="1073"/>
      <point x="209" y="1202"/>
      <point x="402" y="1202" type="curve" smooth="yes"/>
      <point x="568" y="1202"/>
      <point x="676.365" y="1090.52"/>
      <point x="676.365" y="923.48" type="curve" smooth="yes"/>
      <point x="676.365" y="775.337"/>
      <point x="591.389" y="668.969"/>
      <point x="509" y="604" type="curve"/>
      <point x="508" y="601" type="line"/>
      <point x="655.942" y="499.896"/>
      <point x="729" y="407.626"/>
      <point x="729" y="281" type="curve" smooth="yes"/>
      <point x="729" y="98"/>
      <point x="550" y="-27"/>
      <point x="362" y="-27" type="curve" smooth="yes"/>
      <point x="178" y="-27"/>
      <point x="50" y="109"/>
    </contour>
    <contour>
      <point x="151" y="319" type="curve" smooth="yes"/>
      <point x="151" y="137"/>
      <point x="306.955" y="33"/>
      <point x="409" y="33" type="curve" smooth="yes"/>
      <point x="558" y="33"/>
      <point x="643" y="118"/>
      <point x="643" y="230" type="curve" smooth="yes"/>
      <point x="643" y="350.257"/>
      <point x="572.963" y="422.411"/>
      <point x="296" y="596" type="curve"/>
      <point x="208" y="528"/>
      <point x="151" y="452"/>
    </contour>
    <contour>
      <point x="171" y="975" type="curve" smooth="yes"/>
      <point x="171" y="837.713"/>
      <point x="253.859" y="764.358"/>
      <point x="468" y="628" type="curve"/>
      <point x="525.62" y="679.167"/>
      <point x="597" y="756.942"/>
      <point x="597" y="891" type="curve" smooth="yes"/>
      <point x="597" y="1038.91"/>
      <point x="490.239" y="1154.77"/>
      <point x="362.914" y="1154.77" type="curve" smooth="yes"/>
      <point x="249.763" y="1154.77"/>
      <point x="171" y="1080.13"/>
    </contour>
  </outline>
</glyph>
<glyph name="nine" format="1">
  <advance width="818"/>
  <unicode hex="0039"/>
  <outline>
    <contour>
      <point x="49" y="833" type="curve" smooth="yes"/>
      <point x="49" y="1039"/>
      <point x="203" y="1207"/>
      <point x="420" y="1207" type="curve" smooth="yes"/>
      <point x="675" y="1207"/>
      <point x="763" y="989"/>
      <point x="763" y="756" type="curve" smooth="yes"/>
      <point x="763" y="421"/>
      <point x="525" y="46"/>
      <point x="151" y="-27" type="curve"/>
      <point x="137" y="15" type="line"/>
      <point x="460" y="112"/>
      <point x="591" y="377"/>
      <point x="631" y="577" type="curve"/>
      <point x="624" y="577" type="line"/>
      <point x="564" y="531"/>
      <point x="488" y="478"/>
      <point x="352" y="478" type="curve" smooth="yes"/>
      <point x="157" y="478"/>
      <point x="49" y="651"/>
    </contour>
    <contour>
      <point x="165" y="860" type="curve" smooth="yes"/>
      <point x="165" y="686"/>
      <point x="265" y="555"/>
      <point x="425" y="555" type="curve" smooth="yes"/>
      <point x="534" y="555"/>
      <point x="609" y="604"/>
      <point x="635" y="640" type="curve"/>
      <point x="644" y="683"/>
      <point x="645" y="743"/>
      <point x="645" y="779" type="curve" smooth="yes"/>
      <point x="645" y="1024"/>
      <point x="519" y="1157"/>
      <point x="396" y="1157" type="curve" smooth="yes"/>
      <point x="242" y="1157"/>
      <point x="165" y="1048"/>
    </contour>
  </outline>
</glyph>
<glyph name="colon" format="1">
  <advance width="258"/>
  <unicode hex="003A"/>
  <outline>
    <contour>
      <point x="65" y="734" type="curve" smooth="yes"/>
      <point x="65" y="797"/>
      <point x="85" y="829"/>
      <point x="128" y="829" type="curve" smooth="yes"/>
      <point x="171" y="829"/>
      <point x="190" y="798"/>
      <point x="190" y="734" type="curve" smooth="yes"/>
      <point x="190" y="668"/>
      <point x="175" y="631"/>
      <point x="129" y="631" type="curve" smooth="yes"/>
      <point x="83" y="631"/>
      <point x="65" y="670"/>
    </contour>
    <contour>
      <point x="68" y="103" type="curve" smooth="yes"/>
      <point x="68" y="166"/>
      <point x="88" y="200"/>
      <point x="131" y="200" type="curve" smooth="yes"/>
      <point x="174" y="200"/>
      <point x="194" y="167"/>
      <point x="194" y="103" type="curve" smooth="yes"/>
      <point x="194" y="37"/>
      <point x="177" y="0"/>
      <point x="131" y="0" type="curve" smooth="yes"/>
      <point x="85" y="0"/>
      <point x="68" y="39"/>
    </contour>
  </outline>
</glyph>
<glyph name="question" format="1">
  <advance width="606"/>
  <unicode hex="003F"/>
  <outline>
    <contour>
      <point x="44" y="1166" type="curve" smooth="yes"/>
      <point x="44" y="1230"/>
      <point x="153" y="1286"/>
      <point x="243" y="1286" type="curve" smooth="yes"/>
      <point x="421" y="1286"/>
      <point x="559" y="1104"/>
      <point x="559" y="925" type="curve" smooth="yes"/>
      <point x="559" y="698"/>
      <point x="249" y="683"/>
      <point x="249" y="508" type="curve" smooth="yes"/>
      <point x="249" y="468"/>
      <point x="269" y="406"/>
      <point x="295" y="358" type="curve"/>
      <point x="256" y="342" type="line"/>
      <point x="211" y="385"/>
      <point x="170" y="462"/>
      <point x="170" y="544" type="curve" smooth="yes"/>
      <point x="170" y="761"/>
      <point x="481" y="796"/>
      <point x="481" y="946" type="curve" smooth="yes"/>
      <point x="481" y="1063"/>
      <point x="412" y="1182"/>
      <point x="279" y="1182" type="curve" smooth="yes"/>
      <point x="203" y="1182"/>
      <point x="132" y="1151"/>
      <point x="89" y="1105" type="curve"/>
      <point x="62" y="1119"/>
      <point x="44" y="1140"/>
    </contour>
    <contour>
      <point x="235" y="66" type="curve" smooth="yes"/>
      <point x="235" y="120"/>
      <point x="258" y="159"/>
      <point x="292" y="159" type="curve" smooth="yes"/>
      <point x="328" y="159"/>
      <point x="351" y="120"/>
      <point x="351" y="66" type="curve" smooth="yes"/>
      <point x="351" y="8"/>
      <point x="337" y="-33"/>
      <point x="292" y="-33" type="curve" smooth="yes"/>
      <point x="250" y="-33"/>
      <point x="235" y="12"/>
    </contour>
  </outline>
</glyph>
<glyph name="B" format="1">
  <advance width="1063"/>
  <unicode hex="0042"/>
  <outline>
    <contour>
      <point x="49" y="0" type="line"/>
      <point x="57" y="42" type="line"/>
      <point x="226" y="72" type="line"/>
      <point x="226" y="1153" type="line"/>
      <point x="54" y="1175" type="line"/>
      <point x="64" y="1211" type="line"/>
      <point x="210" y="1233"/>
      <point x="330" y="1257"/>
      <point x="507" y="1257" type="curve" smooth="yes"/>
      <point x="770" y="1257"/>
      <point x="904" y="1140"/>
      <point x="904" y="947" type="curve" smooth="yes"/>
      <point x="904" y="820.533"/>
      <point x="813" y="719.166"/>
      <point x="727" y="668" type="curve"/>
      <point x="727" y="662" type="line"/>
      <point x="877.066" y="638.359"/>
      <point x="998.253" y="534.446"/>
      <point x="998.253" y="353.045" type="curve" smooth="yes"/>
      <point x="998.253" y="152.816"/>
      <point x="828.888" y="0"/>
      <point x="474" y="0" type="curve" smooth="yes"/>
    </contour>
    <contour>
      <point x="327" y="54" type="line"/>
      <point x="473" y="54" type="line" smooth="yes"/>
      <point x="790.539" y="54"/>
      <point x="903" y="151.833"/>
      <point x="903" y="327" type="curve" smooth="yes"/>
      <point x="903" y="465"/>
      <point x="798" y="621"/>
      <point x="583" y="621" type="curve" smooth="yes"/>
      <point x="327" y="621" type="line"/>
    </contour>
    <contour>
      <point x="327" y="670" type="line"/>
      <point x="647" y="670" type="line"/>
      <point x="744" y="719.132"/>
      <point x="802" y="805.835"/>
      <point x="802" y="933" type="curve" smooth="yes"/>
      <point x="802" y="1121"/>
      <point x="665" y="1212"/>
      <point x="449" y="1212" type="curve" smooth="yes"/>
      <point x="423" y="1212"/>
      <point x="354" y="1212"/>
      <point x="327" y="1206" type="curve"/>
    </contour>
  </outline>
</glyph>
<glyph name="F" format="1">
  <advance width="1017"/>
  <unicode hex="0046"/>
  <outline>
    <contour>
      <point x="50" y="1202" type="line"/>
      <point x="57" y="1244" type="line"/>
      <point x="963" y="1244" type="line"/>
      <point x="930" y="922" type="line"/>
      <point x="881" y="930" type="line"/>
      <point x="860" y="1193" type="line"/>
      <point x="330" y="1193" type="line"/>
      <point x="330" y="633" type="line"/>
      <point x="663" y="633" type="line"/>
      <point x="702" y="773" type="line"/>
      <point x="758" y="780" type="line"/>
      <point x="727" y="392" type="line"/>
      <point x="672" y="384" type="line"/>
      <point x="654" y="580" type="line"/>
      <point x="330" y="580" type="line"/>
      <point x="330" y="70" type="line"/>
      <point x="576" y="53" type="line"/>
      <point x="564" y="0" type="line"/>
      <point x="54" y="0" type="line"/>
      <point x="57" y="42" type="line"/>
      <point x="227" y="72" type="line"/>
      <point x="227" y="1175" type="line"/>
    </contour>
  </outline>
</glyph>
<glyph name="H" format="1">
  <advance width="1392"/>
  <unicode hex="0048"/>
  <outline>
    <contour>
      <point x="49" y="1205" type="line"/>
      <point x="52" y="1244" type="line"/>
      <point x="508" y="1244" type="line"/>
      <point x="503" y="1205" type="line"/>
      <point x="334" y="1182" type="line"/>
      <point x="334" y="651" type="line"/>
      <point x="1052" y="651" type="line"/>
      <point x="1052" y="1180" type="line"/>
      <point x="868" y="1205" type="line"/>
      <point x="875" y="1244" type="line"/>
      <point x="1330" y="1244" type="line"/>
      <point x="1322" y="1205" type="line"/>
      <point x="1155" y="1182" type="line"/>
      <point x="1155" y="65" type="line"/>
      <point x="1338" y="46" type="line"/>
      <point x="1331" y="0" type="line"/>
      <point x="878" y="0" type="line"/>
      <point x="886" y="42" type="line"/>
      <point x="1052" y="72" type="line"/>
      <point x="1052" y="591" type="line"/>
      <point x="334" y="591" type="line"/>
      <point x="334" y="65" type="line"/>
      <point x="520" y="46" type="line"/>
      <point x="509" y="0" type="line"/>
      <point x="57" y="0" type="line"/>
      <point x="62" y="42" type="line"/>
      <point x="229" y="72" type="line"/>
      <point x="229" y="1180" type="line"/>
    </contour>
  </outline>
</glyph>
<glyph name="I" format="1">
  <advance width="575"/>
  <unicode hex="0049"/>
  <outline>
    <contour>
      <point x="47" y="1205" type="line"/>
      <point x="53" y="1244" type="line"/>
      <point x="510" y="1244" type="line"/>
      <point x="503" y="1205" type="line"/>
      <point x="328" y="1182" type="line"/>
      <point x="328" y="65" type="line"/>
      <point x="521" y="46" type="line"/>
      <point x="512" y="0" type="line"/>
      <point x="57" y="0" type="line"/>
      <point x="62" y="42" type="line"/>
      <point x="220" y="72" type="line"/>
      <point x="220" y="1180" type="line"/>
    </contour>
  </outline>
</glyph>
<glyph name="J" format="1">
  <advance width="629"/>
  <unicode hex="004A"/>
  <outline>
    <contour>
      <point x="44" y="-281" type="line"/>
      <point x="211" y="-139"/>
      <point x="295" y="0"/>
      <point x="295" y="282" type="curve" smooth="yes"/>
      <point x="295" y="1180" type="line"/>
      <point x="115" y="1205" type="line"/>
      <point x="120" y="1244" type="line"/>
      <point x="579" y="1244" type="line"/>
      <point x="573" y="1205" type="line"/>
      <point x="406" y="1182" type="line"/>
      <point x="402" y="360" type="line" smooth="yes"/>
      <point x="399" y="-30"/>
      <point x="316" y="-151"/>
      <point x="66" y="-325" type="curve"/>
    </contour>
  </outline>
</glyph>
<glyph name="K" format="1">
  <advance width="1205"/>
  <unicode hex="004B"/>
  <outline>
    <contour>
      <point x="48" y="1205" type="line"/>
      <point x="53" y="1244" type="line"/>
      <point x="502" y="1244" type="line"/>
      <point x="499" y="1205" type="line"/>
      <point x="329" y="1182" type="line"/>
      <point x="329" y="65" type="line"/>
      <point x="515" y="46" type="line"/>
      <point x="504" y="0" type="line"/>
      <point x="58" y="0" type="line"/>
      <point x="64" y="42" type="line"/>
      <point x="221" y="72" type="line"/>
      <point x="221" y="1180" type="line"/>
    </contour>
    <contour>
      <point x="383" y="619" type="line"/>
      <point x="426" y="665"/>
      <point x="464" y="704"/>
      <point x="530" y="783" type="curve" smooth="yes"/>
      <point x="861" y="1180" type="line"/>
      <point x="688" y="1205" type="line"/>
      <point x="692" y="1244" type="line"/>
      <point x="1099" y="1244" type="line"/>
      <point x="1096" y="1205" type="line"/>
      <point x="943" y="1182" type="line"/>
      <point x="487" y="629" type="line"/>
      <point x="749" y="321" type="line" smooth="yes"/>
      <point x="892" y="153"/>
      <point x="977" y="72"/>
      <point x="1097" y="54" type="curve" smooth="yes"/>
      <point x="1151" y="46" type="line"/>
      <point x="1139" y="3" type="line"/>
      <point x="1093" y="-12"/>
      <point x="1075" y="-22"/>
      <point x="1033" y="-22" type="curve" smooth="yes"/>
      <point x="900" y="-22"/>
      <point x="805" y="89"/>
      <point x="688" y="230" type="curve" smooth="yes"/>
      <point x="385" y="604" type="line"/>
    </contour>
  </outline>
</glyph>
<glyph name="M" format="1">
  <advance width="1683"/>
  <unicode hex="004D"/>
  <outline>
    <contour>
      <point x="46" y="0" type="line"/>
      <point x="51" y="33" type="line"/>
      <point x="218" y="64" type="line"/>
      <point x="301" y="1175" type="line"/>
      <point x="117" y="1208" type="line"/>
      <point x="124" y="1244" type="line"/>
      <point x="443" y="1244" type="line"/>
      <point x="514" y="1056" type="line"/>
      <point x="828" y="227" type="line"/>
      <point x="1186" y="1099" type="line"/>
      <point x="1247" y="1244" type="line"/>
      <point x="1573" y="1244" type="line"/>
      <point x="1568" y="1208" type="line"/>
      <point x="1396" y="1178" type="line"/>
      <point x="1451" y="57" type="line"/>
      <point x="1631" y="40" type="line"/>
      <point x="1629" y="0" type="line"/>
      <point x="1167" y="0" type="line"/>
      <point x="1173" y="33" type="line"/>
      <point x="1344" y="64" type="line"/>
      <point x="1287" y="1169" type="line"/>
      <point x="822" y="60" type="line"/>
      <point x="772" y="50" type="line"/>
      <point x="364" y="1151" type="line"/>
      <point x="285" y="57" type="line"/>
      <point x="466" y="40" type="line"/>
      <point x="460" y="0" type="line"/>
    </contour>
  </outline>
</glyph>
<glyph name="N" format="1">
  <advance width="1346"/>
  <unicode hex="004E"/>
  <outline>
    <contour>
      <point x="47" y="1208" type="line"/>
      <point x="55" y="1244" type="line"/>
      <point x="353" y="1244" type="line"/>
      <point x="1069" y="189" type="line"/>
      <point x="1069" y="1180" type="line"/>
      <point x="886" y="1205" type="line"/>
      <point x="892" y="1244" type="line"/>
      <point x="1316" y="1244" type="line"/>
      <point x="1308" y="1205" type="line"/>
      <point x="1142" y="1182" type="line"/>
      <point x="1142" y="-7" type="line"/>
      <point x="1088" y="-18" type="line"/>
      <point x="306" y="1133" type="line"/>
      <point x="306" y="65" type="line"/>
      <point x="490" y="46" type="line"/>
      <point x="480" y="0" type="line"/>
      <point x="59" y="0" type="line"/>
      <point x="65" y="42" type="line"/>
      <point x="232" y="72" type="line"/>
      <point x="232" y="1175" type="line"/>
    </contour>
  </outline>
</glyph>
<glyph name="O" format="1">
  <advance width="1221"/>
  <unicode hex="004F"/>
  <outline>
    <contour>
      <point x="54" y="620" type="curve" smooth="yes"/>
      <point x="54" y="1005"/>
      <point x="290.619" y="1274"/>
      <point x="669" y="1274" type="curve" smooth="yes"/>
      <point x="1014.28" y="1274"/>
      <point x="1195" y="996"/>
      <point x="1195" y="627" type="curve" smooth="yes"/>
      <point x="1195" y="321"/>
      <point x="1008.5" y="-27"/>
      <point x="597" y="-27" type="curve" smooth="yes"/>
      <point x="266.614" y="-27"/>
      <point x="54" y="267"/>
    </contour>
    <contour>
      <point x="164" y="669" type="curve" smooth="yes"/>
      <point x="164" y="305.748"/>
      <point x="337.956" y="37"/>
      <point x="645" y="37" type="curve" smooth="yes"/>
      <point x="940.346" y="37"/>
      <point x="1087" y="297"/>
      <point x="1087" y="573" type="curve" smooth="yes"/>
      <point x="1087" y="954"/>
      <point x="910.102" y="1218"/>
      <point x="621" y="1218" type="curve" smooth="yes"/>
      <point x="311.044" y="1218"/>
      <point x="164" y="934.842"/>
    </contour>
  </outline>
</glyph>
<glyph name="P" format="1">
  <advance width="999"/>
  <unicode hex="0050"/>
  <outline>
    <contour>
      <point x="50" y="0" type="line"/>
      <point x="55" y="42" type="line"/>
      <point x="213" y="72" type="line"/>
      <point x="213" y="1153" type="line"/>
      <point x="51" y="1175" type="line"/>
      <point x="60" y="1211" type="line"/>
      <point x="190" y="1231"/>
      <point x="292" y="1256"/>
      <point x="464" y="1256" type="curve" smooth="yes"/>
      <point x="782.017" y="1256"/>
      <point x="945" y="1136.56"/>
      <point x="945" y="885" type="curve" smooth="yes"/>
      <point x="945" y="632.847"/>
      <point x="710.457" y="462"/>
      <point x="462" y="462" type="curve" smooth="yes"/>
      <point x="447" y="462"/>
      <point x="426" y="462"/>
      <point x="412" y="464" type="curve"/>
      <point x="402" y="506" type="line"/>
      <point x="456" y="509" type="line" smooth="yes"/>
      <point x="730.255" y="521"/>
      <point x="834" y="675"/>
      <point x="834" y="853" type="curve" smooth="yes"/>
      <point x="834" y="1062.68"/>
      <point x="702.726" y="1212"/>
      <point x="433" y="1212" type="curve" smooth="yes"/>
      <point x="391" y="1212"/>
      <point x="323" y="1206"/>
      <point x="323" y="1206" type="curve"/>
      <point x="323" y="66" type="line"/>
      <point x="557" y="46" type="line"/>
      <point x="549" y="0" type="line"/>
    </contour>
  </outline>
</glyph>
<glyph name="Q" format="1">
  <advance width="1218"/>
  <unicode hex="0051"/>
  <outline>
    <contour>
      <point x="54" y="615" type="curve" smooth="yes"/>
      <point x="54" y="994"/>
      <point x="274.208" y="1274"/>
      <point x="646" y="1274" type="curve" smooth="yes"/>
      <point x="1024" y="1274"/>
      <point x="1193" y="995.374"/>
      <point x="1193" y="637" type="curve" smooth="yes"/>
      <point x="1193" y="323"/>
      <point x="1004.76" y="55.0329"/>
      <point x="710" y="-12" type="curve"/>
      <point x="823" y="-257"/>
      <point x="957" y="-298"/>
      <point x="1149" y="-313" type="curve"/>
      <point x="1140" y="-358" type="line"/>
      <point x="1125.12" y="-366"/>
      <point x="1093.5" y="-375"/>
      <point x="1007" y="-375" type="curve" smooth="yes"/>
      <point x="820.235" y="-375"/>
      <point x="696.079" y="-211.628"/>
      <point x="660" y="-22" type="curve"/>
      <point x="634" y="-25"/>
      <point x="607" y="-25"/>
      <point x="580" y="-25" type="curve" smooth="yes"/>
      <point x="294.398" y="-25"/>
      <point x="54" y="262"/>
    </contour>
    <contour>
      <point x="158" y="660" type="curve" smooth="yes"/>
      <point x="158" y="297"/>
      <point x="378.052" y="33"/>
      <point x="667" y="27" type="curve"/>
      <point x="892.552" y="73.6484"/>
      <point x="1089" y="271"/>
      <point x="1089" y="593" type="curve" smooth="yes"/>
      <point x="1089" y="976.721"/>
      <point x="896.695" y="1218"/>
      <point x="601" y="1218" type="curve" smooth="yes"/>
      <point x="310.83" y="1218"/>
      <point x="158" y="984"/>
    </contour>
  </outline>
</glyph>
<glyph name="R" format="1">
  <advance width="1164"/>
  <unicode hex="0052"/>
  <outline>
    <contour>
      <point x="50" y="0" type="line"/>
      <point x="57" y="42" type="line"/>
      <point x="213" y="72" type="line"/>
      <point x="213" y="1153" type="line"/>
      <point x="53" y="1174" type="line"/>
      <point x="62" y="1210" type="line"/>
      <point x="211" y="1234"/>
      <point x="338" y="1253"/>
      <point x="487" y="1253" type="curve" smooth="yes"/>
      <point x="726.8" y="1253"/>
      <point x="927" y="1138.28"/>
      <point x="927" y="910" type="curve" smooth="yes"/>
      <point x="927" y="777.886"/>
      <point x="860.48" y="660"/>
      <point x="686" y="570" type="curve"/>
      <point x="686" y="569" type="line"/>
      <point x="849" y="323" type="line" smooth="yes"/>
      <point x="984" y="119"/>
      <point x="1062.68" y="74"/>
      <point x="1135" y="50" type="curve" smooth="yes"/>
      <point x="1183" y="34" type="line"/>
      <point x="1177" y="-3" type="line"/>
      <point x="1134" y="-18"/>
      <point x="1121" y="-18"/>
      <point x="1084" y="-18" type="curve" smooth="yes"/>
      <point x="955.616" y="-18"/>
      <point x="878" y="60"/>
      <point x="773" y="238" type="curve" smooth="yes"/>
      <point x="600" y="531" type="line"/>
      <point x="316" y="531" type="line"/>
      <point x="316" y="65" type="line"/>
      <point x="527" y="46" type="line"/>
      <point x="517" y="0" type="line"/>
    </contour>
    <contour>
      <point x="316" y="587" type="line"/>
      <point x="613" y="587" type="line"/>
      <point x="729.413" y="624"/>
      <point x="817" y="751.444"/>
      <point x="817" y="883" type="curve" smooth="yes"/>
      <point x="817" y="1097.03"/>
      <point x="669.47" y="1207"/>
      <point x="437" y="1207" type="curve" smooth="yes"/>
      <point x="383" y="1207"/>
      <point x="316" y="1202"/>
      <point x="316" y="1202" type="curve"/>
    </contour>
  </outline>
</glyph>
<glyph name="S" format="1">
  <advance width="838"/>
  <unicode hex="0053"/>
  <outline>
    <contour>
      <point x="41" y="76" type="curve"/>
      <point x="74" y="391" type="line"/>
      <point x="129" y="383" type="line"/>
      <point x="137" y="134" type="line"/>
      <point x="185.26" y="72.4015"/>
      <point x="311.812" y="37"/>
      <point x="433" y="37" type="curve" smooth="yes"/>
      <point x="572.5" y="37"/>
      <point x="703" y="113"/>
      <point x="703" y="262" type="curve" smooth="yes"/>
      <point x="703" y="561"/>
      <point x="100" y="609"/>
      <point x="100" y="959" type="curve" smooth="yes"/>
      <point x="100" y="1158"/>
      <point x="282.361" y="1271"/>
      <point x="452" y="1271" type="curve" smooth="yes"/>
      <point x="562.219" y="1271"/>
      <point x="681.623" y="1248.72"/>
      <point x="750" y="1201" type="curve"/>
      <point x="729" y="871" type="line"/>
      <point x="673" y="878" type="line"/>
      <point x="656" y="1131" type="line"/>
      <point x="615.246" y="1179.48"/>
      <point x="508.83" y="1214"/>
      <point x="416" y="1214" type="curve" smooth="yes"/>
      <point x="298.615" y="1214"/>
      <point x="198" y="1137"/>
      <point x="198" y="1006" type="curve" smooth="yes"/>
      <point x="198" y="689"/>
      <point x="813" y="631"/>
      <point x="813" y="308" type="curve" smooth="yes"/>
      <point x="813" y="119"/>
      <point x="647.507" y="-26"/>
      <point x="381" y="-26" type="curve" smooth="yes"/>
      <point x="232.636" y="-26"/>
      <point x="106.939" y="19.2535"/>
    </contour>
  </outline>
</glyph>
<glyph name="U" format="1">
  <advance width="1357"/>
  <unicode hex="0055"/>
  <outline>
    <contour>
      <point x="46" y="1205" type="line"/>
      <point x="50" y="1244" type="line"/>
      <point x="504" y="1244" type="line"/>
      <point x="500" y="1205" type="line"/>
      <point x="331" y="1182" type="line"/>
      <point x="331" y="485" type="line" smooth="yes"/>
      <point x="331" y="147.616"/>
      <point x="491.172" y="42"/>
      <point x="723" y="42" type="curve" smooth="yes"/>
      <point x="956.306" y="42"/>
      <point x="1093" y="164"/>
      <point x="1093" y="449" type="curve" smooth="yes"/>
      <point x="1093" y="1180" type="line"/>
      <point x="907" y="1205" type="line"/>
      <point x="912" y="1244" type="line"/>
      <point x="1337" y="1244" type="line"/>
      <point x="1329" y="1205" type="line"/>
      <point x="1163" y="1182" type="line"/>
      <point x="1160" y="490" type="line" smooth="yes"/>
      <point x="1158.5" y="144.007"/>
      <point x="1026" y="-27"/>
      <point x="690" y="-27" type="curve" smooth="yes"/>
      <point x="446" y="-27"/>
      <point x="227" y="60"/>
      <point x="227" y="452" type="curve" smooth="yes"/>
      <point x="227" y="1180" type="line"/>
    </contour>
  </outline>
</glyph>
<glyph name="X" format="1">
  <advance width="1305"/>
  <unicode hex="0058"/>
  <outline>
    <contour>
      <point x="50" y="0" type="line"/>
      <point x="56" y="36" type="line"/>
      <point x="180" y="64" type="line"/>
      <point x="593" y="630" type="line"/>
      <point x="207" y="1184" type="line"/>
      <point x="71" y="1212" type="line"/>
      <point x="75" y="1244" type="line"/>
      <point x="495" y="1244" type="line"/>
      <point x="490" y="1212" type="line"/>
      <point x="334" y="1182" type="line"/>
      <point x="667" y="699" type="line"/>
      <point x="1023" y="1184" type="line"/>
      <point x="851" y="1207" type="line"/>
      <point x="856" y="1244" type="line"/>
      <point x="1224" y="1244" type="line"/>
      <point x="1224" y="1208" type="line"/>
      <point x="1098" y="1187" type="line"/>
      <point x="703" y="653" type="line"/>
      <point x="1116" y="53" type="line"/>
      <point x="1243" y="36" type="line"/>
      <point x="1236" y="0" type="line"/>
      <point x="821" y="0" type="line"/>
      <point x="825" y="27" type="line"/>
      <point x="988" y="60" type="line"/>
      <point x="634" y="576" type="line"/>
      <point x="259" y="60" type="line"/>
      <point x="424" y="42" type="line"/>
      <point x="416" y="0" type="line"/>
    </contour>
  </outline>
</glyph>
<glyph name="Y" format="1">
  <advance width="1182"/>
  <unicode hex="0059"/>
  <outline>
    <contour>
      <point x="48" y="1207" type="line"/>
      <point x="52" y="1243" type="line"/>
      <point x="469" y="1243" type="line"/>
      <point x="465" y="1207" type="line"/>
      <point x="299" y="1181" type="line"/>
      <point x="612" y="571" type="line"/>
      <point x="922" y="1178" type="line"/>
      <point x="737" y="1208" type="line"/>
      <point x="739" y="1244" type="line"/>
      <point x="1129" y="1244" type="line"/>
      <point x="1126" y="1208" type="line"/>
      <point x="997" y="1182" type="line"/>
      <point x="648" y="489" type="line"/>
      <point x="648" y="67" type="line"/>
      <point x="829" y="46" type="line"/>
      <point x="821" y="0" type="line"/>
      <point x="361" y="0" type="line"/>
      <point x="367" y="42" type="line"/>
      <point x="542" y="72" type="line"/>
      <point x="542" y="489" type="line"/>
      <point x="187" y="1177" type="line"/>
    </contour>
  </outline>
</glyph>
<glyph name="Z" format="1">
  <advance width="1057"/>
  <unicode hex="005A"/>
  <outline>
    <contour>
      <point x="51" y="37" type="line"/>
      <point x="853" y="1189" type="line"/>
      <point x="197" y="1189" type="line"/>
      <point x="139" y="903" type="line"/>
      <point x="99" y="914" type="line"/>
      <point x="98" y="1244" type="line"/>
      <point x="984" y="1244" type="line"/>
      <point x="989" y="1207" type="line"/>
      <point x="184" y="58" type="line"/>
      <point x="871" y="58" type="line"/>
      <point x="957" y="342" type="line"/>
      <point x="1001" y="335" type="line"/>
      <point x="971" y="0" type="line"/>
      <point x="56" y="0" type="line"/>
    </contour>
  </outline>
</glyph>
<glyph name="backslash" format="1">
  <advance width="627"/>
  <unicode hex="005C"/>
  <outline>
    <contour>
      <point x="43" y="1244" type="line"/>
      <point x="126" y="1241" type="line"/>
      <point x="587" y="-358" type="line"/>
      <point x="508" y="-354" type="line"/>
    </contour>
  </outline>
</glyph>
<glyph name="asciicircum" format="1">
  <advance width="743"/>
  <unicode hex="005E"/>
  <outline>
    <contour>
      <point x="51" y="826" type="line"/>
      <point x="339" y="1238" type="line"/>
      <point x="395" y="1251" type="line"/>
      <point x="689" y="824" type="line"/>
      <point x="650" y="796" type="line"/>
      <point x="366" y="1123" type="line"/>
      <point x="357" y="1123" type="line"/>
      <point x="84" y="802" type="line"/>
    </contour>
  </outline>
</glyph>
<glyph name="underscore" format="1">
  <advance width="986"/>
  <unicode hex="005F"/>
  <outline>
    <contour>
      <point x="74" y="-133" type="line"/>
      <point x="85" y="-66" type="line"/>
      <point x="913" y="-66" type="line"/>
      <point x="905" y="-133" type="line"/>
    </contour>
  </outline>
</glyph>
<glyph name="grave" format="1">
  <advance width="384"/>
  <unicode hex="0060"/>
  <outline>
    <contour>
      <point x="78" y="1661" type="line"/>
      <point x="172" y="1698" type="line"/>
      <point x="305" y="1362" type="line"/>
      <point x="259" y="1335" type="line"/>
    </contour>
  </outline>
</glyph>
<glyph name="a" format="1">
  <advance width="749"/>
  <unicode hex="0061"/>
  <outline>
    <contour>
      <point x="21" y="162" type="curve" smooth="yes"/>
      <point x="21" y="330.295"/>
      <point x="203" y="444"/>
      <point x="511" y="457" type="curve"/>
      <point x="511" y="516" type="line" smooth="yes"/>
      <point x="511" y="720"/>
      <point x="458.346" y="818.883"/>
      <point x="309" y="818.883" type="curve" smooth="yes"/>
      <point x="190.49" y="818.883"/>
      <point x="157.065" y="718.625"/>
      <point x="152" y="589" type="curve"/>
      <point x="106.378" y="589"/>
      <point x="65" y="614.284"/>
      <point x="65" y="666" type="curve" smooth="yes"/>
      <point x="65" y="770.477"/>
      <point x="201" y="869.883"/>
      <point x="356" y="869.883" type="curve" smooth="yes"/>
      <point x="522.158" y="869.883"/>
      <point x="602" y="775.124"/>
      <point x="602" y="569" type="curve" smooth="yes"/>
      <point x="602" y="229" type="line" smooth="yes"/>
      <point x="602" y="137"/>
      <point x="603" y="65"/>
      <point x="690" y="50" type="curve" smooth="yes"/>
      <point x="756" y="37" type="line"/>
      <point x="751" y="3" type="line"/>
      <point x="731" y="-6"/>
      <point x="692" y="-18"/>
      <point x="650" y="-18" type="curve" smooth="yes"/>
      <point x="567.344" y="-18"/>
      <point x="524" y="44"/>
      <point x="524" y="115" type="curve" smooth="yes"/>
      <point x="524" y="128" type="line"/>
      <point x="519" y="128" type="line"/>
      <point x="503" y="76"/>
      <point x="386.042" y="-26"/>
      <point x="237" y="-26" type="curve" smooth="yes"/>
      <point x="117" y="-26"/>
      <point x="21" y="43.4154"/>
    </contour>
    <contour>
      <point x="129" y="189" type="curve" smooth="yes"/>
      <point x="129" y="98"/>
      <point x="184.714" y="42"/>
      <point x="279" y="42" type="curve" smooth="yes"/>
      <point x="394.041" y="42"/>
      <point x="481" y="114"/>
      <point x="511" y="185" type="curve"/>
      <point x="511" y="412" type="line"/>
      <point x="321.959" y="410.086"/>
      <point x="129" y="335.433"/>
    </contour>
  </outline>
</glyph>
<glyph name="b" format="1">
  <advance width="957"/>
  <unicode hex="0062"/>
  <outline>
    <contour>
      <point x="46" y="1266" type="line"/>
      <point x="52" y="1297" type="line"/>
      <point x="295" y="1316" type="line"/>
      <point x="300" y="1307" type="line"/>
      <point x="300" y="824" type="line"/>
      <point x="285" y="721" type="line"/>
      <point x="298" y="721" type="line"/>
      <point x="375.925" y="809"/>
      <point x="476.537" y="874"/>
      <point x="588" y="874" type="curve" smooth="yes"/>
      <point x="781" y="874"/>
      <point x="901" y="711"/>
      <point x="901" y="460" type="curve" smooth="yes"/>
      <point x="901" y="143"/>
      <point x="684" y="-24"/>
      <point x="424" y="-24" type="curve" smooth="yes"/>
      <point x="333" y="-24"/>
      <point x="273" y="0"/>
      <point x="201" y="48" type="curve"/>
      <point x="201" y="1235" type="line"/>
    </contour>
    <contour>
      <point x="300" y="98" type="line"/>
      <point x="341.177" y="56"/>
      <point x="414.706" y="37"/>
      <point x="500" y="37" type="curve" smooth="yes"/>
      <point x="636" y="37"/>
      <point x="797" y="180"/>
      <point x="797" y="404" type="curve" smooth="yes"/>
      <point x="797" y="673"/>
      <point x="711" y="802"/>
      <point x="521" y="802" type="curve" smooth="yes"/>
      <point x="447.333" y="802"/>
      <point x="377.596" y="748"/>
      <point x="300" y="664" type="curve"/>
    </contour>
  </outline>
</glyph>
<glyph name="c" format="1">
  <advance width="743"/>
  <unicode hex="0063"/>
  <outline>
    <contour>
      <point x="57" y="395" type="curve" smooth="yes"/>
      <point x="57" y="674.829"/>
      <point x="226" y="873"/>
      <point x="432" y="873" type="curve" smooth="yes"/>
      <point x="601" y="873"/>
      <point x="653" y="784.065"/>
      <point x="653" y="706" type="curve" smooth="yes"/>
      <point x="653" y="660"/>
      <point x="636" y="627"/>
      <point x="588" y="612" type="curve"/>
      <point x="542" y="748"/>
      <point x="489" y="813"/>
      <point x="384" y="813" type="curve" smooth="yes"/>
      <point x="252" y="813"/>
      <point x="157" y="660"/>
      <point x="157" y="453" type="curve" smooth="yes"/>
      <point x="157" y="154"/>
      <point x="269" y="45"/>
      <point x="442" y="45" type="curve" smooth="yes"/>
      <point x="541" y="45"/>
      <point x="629" y="97"/>
      <point x="677" y="144" type="curve"/>
      <point x="695" y="111" type="line"/>
      <point x="647" y="36"/>
      <point x="524" y="-29"/>
      <point x="394" y="-29" type="curve" smooth="yes"/>
      <point x="172" y="-29"/>
      <point x="57" y="156"/>
    </contour>
  </outline>
</glyph>
<glyph name="d" format="1">
  <advance width="956"/>
  <unicode hex="0064"/>
  <outline>
    <contour>
      <point x="56" y="386" type="curve" smooth="yes"/>
      <point x="56" y="693"/>
      <point x="256" y="877"/>
      <point x="472" y="877" type="curve" smooth="yes"/>
      <point x="536.639" y="877"/>
      <point x="629.68" y="851"/>
      <point x="662" y="825" type="curve"/>
      <point x="672" y="825" type="line"/>
      <point x="656" y="960" type="line"/>
      <point x="656" y="1232.5" type="line"/>
      <point x="507" y="1263.5" type="line"/>
      <point x="513" y="1294.5" type="line"/>
      <point x="751" y="1314.5" type="line"/>
      <point x="759" y="1304.5" type="line"/>
      <point x="759" y="229" type="line" smooth="yes"/>
      <point x="759" y="73"/>
      <point x="811" y="59"/>
      <point x="848" y="50" type="curve" smooth="yes"/>
      <point x="908" y="37" type="line"/>
      <point x="902" y="1" type="line"/>
      <point x="882" y="-8"/>
      <point x="853" y="-20"/>
      <point x="807" y="-20" type="curve" smooth="yes"/>
      <point x="712.147" y="-20"/>
      <point x="674" y="42"/>
      <point x="674" y="124" type="curve" smooth="yes"/>
      <point x="674" y="131" type="line"/>
      <point x="664" y="131" type="line"/>
      <point x="607.76" y="53"/>
      <point x="504.16" y="-22"/>
      <point x="368" y="-22" type="curve" smooth="yes"/>
      <point x="191" y="-22"/>
      <point x="56" y="119"/>
    </contour>
    <contour>
      <point x="156" y="442" type="curve" smooth="yes"/>
      <point x="156" y="209"/>
      <point x="238" y="47"/>
      <point x="423" y="47" type="curve" smooth="yes"/>
      <point x="505.629" y="47"/>
      <point x="612.849" y="114"/>
      <point x="664" y="190" type="curve"/>
      <point x="664" y="704" type="line"/>
      <point x="605.959" y="780"/>
      <point x="516.439" y="818"/>
      <point x="422" y="818" type="curve" smooth="yes"/>
      <point x="291" y="818"/>
      <point x="156" y="695"/>
    </contour>
  </outline>
</glyph>
<glyph name="e" format="1">
  <advance width="740"/>
  <unicode hex="0065"/>
  <outline>
    <contour>
      <point x="57" y="411" type="curve" smooth="yes"/>
      <point x="57" y="710"/>
      <point x="236" y="874"/>
      <point x="429" y="874" type="curve" smooth="yes"/>
      <point x="575" y="874"/>
      <point x="661" y="793"/>
      <point x="661" y="582" type="curve" smooth="yes"/>
      <point x="661" y="551"/>
      <point x="652" y="487"/>
      <point x="643" y="451" type="curve"/>
      <point x="160" y="444" type="line"/>
      <point x="160" y="224"/>
      <point x="247" y="53"/>
      <point x="455" y="53" type="curve" smooth="yes"/>
      <point x="550" y="53"/>
      <point x="624" y="90"/>
      <point x="671" y="137" type="curve"/>
      <point x="688" y="104" type="line"/>
      <point x="631" y="29"/>
      <point x="531" y="-29"/>
      <point x="398" y="-29" type="curve" smooth="yes"/>
      <point x="208" y="-29"/>
      <point x="57" y="109"/>
    </contour>
    <contour>
      <point x="162" y="492" type="curve"/>
      <point x="549" y="514" type="line"/>
      <point x="558" y="531"/>
      <point x="559" y="579"/>
      <point x="559" y="605" type="curve" smooth="yes"/>
      <point x="559" y="725"/>
      <point x="480" y="818"/>
      <point x="380" y="818" type="curve" smooth="yes"/>
      <point x="250" y="818"/>
      <point x="162" y="701"/>
    </contour>
  </outline>
</glyph>
<glyph name="f" format="1">
  <advance width="609"/>
  <unicode hex="0066"/>
  <outline>
    <contour>
      <point x="44" y="0" type="line"/>
      <point x="57" y="30" type="line"/>
      <point x="207" y="59" type="line"/>
      <point x="207" y="798" type="line"/>
      <point x="59" y="798" type="line"/>
      <point x="71" y="833" type="line"/>
      <point x="210" y="855" type="line"/>
      <point x="236" y="1179.41"/>
      <point x="386" y="1314.5"/>
      <point x="528" y="1314.5" type="curve" smooth="yes"/>
      <point x="634" y="1314.5"/>
      <point x="697" y="1261.26"/>
      <point x="697" y="1204" type="curve" smooth="yes"/>
      <point x="697" y="1165"/>
      <point x="682" y="1144"/>
      <point x="649" y="1131" type="curve"/>
      <point x="613" y="1190.25"/>
      <point x="558" y="1251.5"/>
      <point x="471" y="1251.5" type="curve" smooth="yes"/>
      <point x="391.037" y="1251.5"/>
      <point x="314" y="1152.65"/>
      <point x="314" y="982" type="curve" smooth="yes"/>
      <point x="314" y="848" type="line"/>
      <point x="566" y="848" type="line"/>
      <point x="555" y="798" type="line"/>
      <point x="314" y="798" type="line"/>
      <point x="314" y="61" type="line"/>
      <point x="555" y="39" type="line"/>
      <point x="548" y="0" type="line"/>
    </contour>
  </outline>
</glyph>
<glyph name="g" format="1">
  <advance width="884"/>
  <unicode hex="0067"/>
  <outline>
    <contour>
      <point x="44" y="-169" type="curve" smooth="yes"/>
      <point x="44" y="-56"/>
      <point x="152" y="3"/>
      <point x="224" y="39" type="curve"/>
      <point x="224" y="44" type="line"/>
      <point x="178" y="64"/>
      <point x="128" y="103"/>
      <point x="128" y="160" type="curve" smooth="yes"/>
      <point x="128" y="206"/>
      <point x="195" y="269"/>
      <point x="265" y="317" type="curve"/>
      <point x="213" y="343"/>
      <point x="127" y="429"/>
      <point x="127" y="565" type="curve" smooth="yes"/>
      <point x="127" y="731"/>
      <point x="258" y="873"/>
      <point x="430" y="873" type="curve" smooth="yes"/>
      <point x="490" y="873"/>
      <point x="550" y="845"/>
      <point x="601" y="809" type="curve"/>
      <point x="616" y="809"/>
      <point x="826" y="826"/>
      <point x="826" y="826" type="curve"/>
      <point x="836" y="813" type="line"/>
      <point x="805" y="734" type="line"/>
      <point x="797" y="732" type="line"/>
      <point x="638" y="772" type="line"/>
      <point x="633" y="768" type="line"/>
      <point x="650" y="744"/>
      <point x="685" y="648"/>
      <point x="685" y="576" type="curve" smooth="yes"/>
      <point x="685" y="416"/>
      <point x="537" y="281"/>
      <point x="394" y="281" type="curve" smooth="yes"/>
      <point x="354" y="281"/>
      <point x="310" y="294"/>
      <point x="298" y="300" type="curve"/>
      <point x="260" y="267"/>
      <point x="218" y="234"/>
      <point x="218" y="195" type="curve" smooth="yes"/>
      <point x="218" y="131"/>
      <point x="292" y="114"/>
      <point x="374" y="114" type="curve" smooth="yes"/>
      <point x="514" y="114" type="line" smooth="yes"/>
      <point x="705.77" y="112.881"/>
      <point x="805" y="54"/>
      <point x="805" y="-84" type="curve" smooth="yes"/>
      <point x="805" y="-245.427"/>
      <point x="610" y="-387"/>
      <point x="374" y="-387" type="curve" smooth="yes"/>
      <point x="166" y="-387"/>
      <point x="44" y="-294"/>
    </contour>
    <contour>
      <point x="140" y="-123" type="curve" smooth="yes"/>
      <point x="140" y="-259"/>
      <point x="245.756" y="-319"/>
      <point x="432" y="-319" type="curve" smooth="yes"/>
      <point x="568.549" y="-319"/>
      <point x="718" y="-254.961"/>
      <point x="718" y="-135" type="curve" smooth="yes"/>
      <point x="718" y="-39"/>
      <point x="668" y="31"/>
      <point x="497" y="31" type="curve" smooth="yes"/>
      <point x="275" y="31" type="line"/>
      <point x="275" y="31"/>
      <point x="140" y="-13"/>
    </contour>
    <contour>
      <point x="219" y="589" type="curve" smooth="yes"/>
      <point x="219" y="471"/>
      <point x="296" y="337"/>
      <point x="421" y="337" type="curve" smooth="yes"/>
      <point x="509" y="337"/>
      <point x="590" y="410"/>
      <point x="590" y="551" type="curve" smooth="yes"/>
      <point x="590" y="705"/>
      <point x="512" y="827"/>
      <point x="406" y="827" type="curve" smooth="yes"/>
      <point x="272" y="827"/>
      <point x="219" y="720"/>
    </contour>
  </outline>
</glyph>
<glyph name="h" format="1">
  <advance width="1028"/>
  <unicode hex="0068"/>
  <outline>
    <contour>
      <point x="45" y="0" type="line"/>
      <point x="56" y="34" type="line"/>
      <point x="210" y="59" type="line"/>
      <point x="210" y="1232.5" type="line"/>
      <point x="57" y="1263.5" type="line"/>
      <point x="63" y="1294.5" type="line"/>
      <point x="301" y="1314.5" type="line"/>
      <point x="308" y="1304.5" type="line"/>
      <point x="308" y="826" type="line"/>
      <point x="298" y="721" type="line"/>
      <point x="303" y="721" type="line"/>
      <point x="378" y="801"/>
      <point x="499" y="880"/>
      <point x="617" y="880" type="curve" smooth="yes"/>
      <point x="755" y="880"/>
      <point x="840" y="788"/>
      <point x="840" y="576" type="curve" smooth="yes"/>
      <point x="840" y="57" type="line"/>
      <point x="980" y="37" type="line"/>
      <point x="974" y="0" type="line"/>
      <point x="600" y="0" type="line"/>
      <point x="606" y="33" type="line"/>
      <point x="746" y="57" type="line"/>
      <point x="749" y="549" type="line"/>
      <point x="749" y="555" type="line" smooth="yes"/>
      <point x="749" y="734"/>
      <point x="675" y="802"/>
      <point x="573" y="802" type="curve" smooth="yes"/>
      <point x="452" y="802"/>
      <point x="378" y="746"/>
      <point x="308" y="664" type="curve"/>
      <point x="308" y="59" type="line"/>
      <point x="450" y="36" type="line"/>
      <point x="443" y="0" type="line"/>
    </contour>
  </outline>
</glyph>
<glyph name="i" format="1">
  <advance width="511"/>
  <unicode hex="0069"/>
  <outline>
    <contour>
      <point x="46" y="0" type="line"/>
      <point x="59" y="31" type="line"/>
      <point x="207" y="59" type="line"/>
      <point x="207" y="778" type="line"/>
      <point x="56" y="806" type="line"/>
      <point x="59" y="833" type="line"/>
      <point x="298" y="853" type="line"/>
      <point x="306" y="844" type="line"/>
      <point x="306" y="59" type="line"/>
      <point x="463" y="33" type="line"/>
      <point x="452" y="0" type="line"/>
    </contour>
    <contour>
      <point x="190" y="1193" type="curve" smooth="yes"/>
      <point x="190" y="1256"/>
      <point x="209" y="1290"/>
      <point x="252" y="1290" type="curve" smooth="yes"/>
      <point x="295" y="1290"/>
      <point x="316" y="1257"/>
      <point x="316" y="1193" type="curve" smooth="yes"/>
      <point x="316" y="1127"/>
      <point x="299" y="1091"/>
      <point x="253" y="1091" type="curve" smooth="yes"/>
      <point x="207" y="1091"/>
      <point x="190" y="1129"/>
    </contour>
  </outline>
</glyph>
<glyph name="j" format="1">
  <advance width="379"/>
  <unicode hex="006A"/>
  <outline>
    <contour>
      <point x="-31" y="-335" type="line"/>
      <point x="74.8719" y="-253"/>
      <point x="168" y="-122"/>
      <point x="168" y="149" type="curve" smooth="yes"/>
      <point x="168" y="779" type="line"/>
      <point x="20" y="806" type="line"/>
      <point x="24" y="833" type="line"/>
      <point x="260" y="853" type="line"/>
      <point x="267" y="844" type="line"/>
      <point x="267" y="151" type="line" smooth="yes"/>
      <point x="267" y="-100"/>
      <point x="178" y="-259"/>
      <point x="45" y="-353" type="curve" smooth="yes"/>
      <point x="2" y="-384" type="line"/>
    </contour>
    <contour>
      <point x="151" y="1193" type="curve" smooth="yes"/>
      <point x="151" y="1256"/>
      <point x="171" y="1290"/>
      <point x="214" y="1290" type="curve" smooth="yes"/>
      <point x="257" y="1290"/>
      <point x="281" y="1257"/>
      <point x="281" y="1193" type="curve" smooth="yes"/>
      <point x="281" y="1127"/>
      <point x="261" y="1091"/>
      <point x="215" y="1091" type="curve" smooth="yes"/>
      <point x="169" y="1091"/>
      <point x="151" y="1129"/>
    </contour>
  </outline>
</glyph>
<glyph name="k" format="1">
  <advance width="983"/>
  <unicode hex="006B"/>
  <outline>
    <contour>
      <point x="46" y="0" type="line"/>
      <point x="55" y="31" type="line"/>
      <point x="205" y="59" type="line"/>
      <point x="205" y="1237.5" type="line"/>
      <point x="56" y="1266.5" type="line"/>
      <point x="56" y="1294.5" type="line"/>
      <point x="294" y="1314.5" type="line"/>
      <point x="301" y="1305.5" type="line"/>
      <point x="301" y="59" type="line"/>
      <point x="460" y="33" type="line"/>
      <point x="454" y="0" type="line"/>
    </contour>
    <contour>
      <point x="337" y="425" type="line"/>
      <point x="337" y="442" type="line"/>
      <point x="649" y="785" type="line"/>
      <point x="515" y="818" type="line"/>
      <point x="520" y="852" type="line"/>
      <point x="881" y="852" type="line"/>
      <point x="874" y="818" type="line"/>
      <point x="724" y="786" type="line"/>
      <point x="431" y="459" type="line"/>
      <point x="551" y="323" type="line" smooth="yes"/>
      <point x="727" y="123"/>
      <point x="763" y="61"/>
      <point x="890" y="46" type="curve" smooth="yes"/>
      <point x="929" y="42" type="line"/>
      <point x="922" y="0" type="line"/>
      <point x="907" y="-6"/>
      <point x="863" y="-20"/>
      <point x="818" y="-20" type="curve" smooth="yes"/>
      <point x="718" y="-20"/>
      <point x="674" y="19"/>
      <point x="500" y="228" type="curve" smooth="yes"/>
    </contour>
  </outline>
</glyph>
<glyph name="l" format="1">
  <advance width="509"/>
  <unicode hex="006C"/>
  <outline>
    <contour>
      <point x="45" y="0" type="line"/>
      <point x="55" y="31" type="line"/>
      <point x="206" y="59" type="line"/>
      <point x="206" y="1237.5" type="line"/>
      <point x="55" y="1266.5" type="line"/>
      <point x="55" y="1294.5" type="line"/>
      <point x="293" y="1314.5" type="line"/>
      <point x="302" y="1305.5" type="line"/>
      <point x="302" y="59" type="line"/>
      <point x="462" y="33" type="line"/>
      <point x="451" y="0" type="line"/>
    </contour>
  </outline>
</glyph>
<glyph name="m" format="1">
  <advance width="1571"/>
  <unicode hex="006D"/>
  <outline>
    <contour>
      <point x="50" y="0" type="line"/>
      <point x="57" y="33" type="line"/>
      <point x="209" y="57" type="line"/>
      <point x="209" y="778" type="line"/>
      <point x="57" y="806" type="line"/>
      <point x="59" y="833" type="line"/>
      <point x="295" y="853" type="line"/>
      <point x="301" y="845" type="line"/>
      <point x="297" y="716" type="line"/>
      <point x="304" y="716" type="line"/>
      <point x="367.592" y="795"/>
      <point x="489.809" y="880"/>
      <point x="616" y="880" type="curve" smooth="yes"/>
      <point x="727.073" y="880"/>
      <point x="803.815" y="819"/>
      <point x="823" y="716" type="curve"/>
      <point x="833" y="716" type="line"/>
      <point x="893.601" y="792"/>
      <point x="1010.83" y="880"/>
      <point x="1137" y="880" type="curve" smooth="yes"/>
      <point x="1322" y="880"/>
      <point x="1373" y="758"/>
      <point x="1373" y="586" type="curve" smooth="yes"/>
      <point x="1373" y="59" type="line"/>
      <point x="1518" y="40" type="line"/>
      <point x="1507" y="3" type="line"/>
      <point x="1137" y="3" type="line"/>
      <point x="1142" y="33" type="line"/>
      <point x="1278" y="57" type="line"/>
      <point x="1278" y="559" type="line" smooth="yes"/>
      <point x="1278" y="728"/>
      <point x="1211" y="800"/>
      <point x="1093" y="800" type="curve" smooth="yes"/>
      <point x="980.879" y="800"/>
      <point x="883.642" y="708"/>
      <point x="838" y="660" type="curve"/>
      <point x="838" y="57" type="line"/>
      <point x="967" y="37" type="line"/>
      <point x="959" y="0" type="line"/>
      <point x="607" y="0" type="line"/>
      <point x="613" y="33" type="line"/>
      <point x="746" y="57" type="line"/>
      <point x="746" y="559" type="line" smooth="yes"/>
      <point x="746" y="702"/>
      <point x="692.617" y="803"/>
      <point x="573" y="803" type="curve" smooth="yes"/>
      <point x="465.803" y="803"/>
      <point x="362.576" y="735"/>
      <point x="306" y="659" type="curve"/>
      <point x="306" y="57" type="line"/>
      <point x="446" y="37" type="line"/>
      <point x="438" y="0" type="line"/>
    </contour>
  </outline>
</glyph>
<glyph name="n" format="1">
  <advance width="1033"/>
  <unicode hex="006E"/>
  <outline>
    <contour>
      <point x="50" y="0" type="line"/>
      <point x="57" y="31" type="line"/>
      <point x="209" y="57" type="line"/>
      <point x="209" y="778" type="line"/>
      <point x="57" y="805" type="line"/>
      <point x="59" y="833" type="line"/>
      <point x="295" y="853" type="line"/>
      <point x="301" y="844" type="line"/>
      <point x="297" y="717" type="line"/>
      <point x="304" y="717" type="line"/>
      <point x="349.713" y="778"/>
      <point x="482.879" y="880"/>
      <point x="623" y="880" type="curve" smooth="yes"/>
      <point x="742.068" y="880"/>
      <point x="846" y="802"/>
      <point x="846" y="584" type="curve" smooth="yes"/>
      <point x="846" y="57" type="line"/>
      <point x="981" y="37" type="line"/>
      <point x="978" y="0" type="line"/>
      <point x="601" y="0" type="line"/>
      <point x="607" y="31" type="line"/>
      <point x="747" y="57" type="line"/>
      <point x="747" y="559" type="line" smooth="yes"/>
      <point x="747" y="736"/>
      <point x="666.976" y="801"/>
      <point x="583" y="801" type="curve" smooth="yes"/>
      <point x="465.846" y="801"/>
      <point x="410.247" y="765"/>
      <point x="306" y="665" type="curve"/>
      <point x="306" y="57" type="line"/>
      <point x="446" y="36" type="line"/>
      <point x="440" y="0" type="line"/>
    </contour>
  </outline>
</glyph>
<glyph name="o" format="1">
  <advance width="870"/>
  <unicode hex="006F"/>
  <outline>
    <contour>
      <point x="56" y="396" type="curve" smooth="yes"/>
      <point x="56" y="698"/>
      <point x="233" y="879"/>
      <point x="457" y="879" type="curve" smooth="yes"/>
      <point x="675" y="879"/>
      <point x="814" y="672"/>
      <point x="814" y="437" type="curve" smooth="yes"/>
      <point x="814" y="157"/>
      <point x="636" y="-27"/>
      <point x="431" y="-27" type="curve" smooth="yes"/>
      <point x="220" y="-27"/>
      <point x="56" y="134"/>
    </contour>
    <contour>
      <point x="161" y="468" type="curve" smooth="yes"/>
      <point x="161" y="232"/>
      <point x="279" y="37"/>
      <point x="467" y="37" type="curve" smooth="yes"/>
      <point x="613" y="37"/>
      <point x="709" y="193"/>
      <point x="709" y="401" type="curve" smooth="yes"/>
      <point x="709" y="607"/>
      <point x="597" y="813"/>
      <point x="413" y="813" type="curve" smooth="yes"/>
      <point x="262" y="813"/>
      <point x="161" y="662"/>
    </contour>
  </outline>
</glyph>
<glyph name="p" format="1">
  <advance width="935"/>
  <unicode hex="0070"/>
  <outline>
    <contour>
      <point x="45" y="-374" type="line"/>
      <point x="50" y="-335" type="line"/>
      <point x="198" y="-313" type="line"/>
      <point x="198" y="776" type="line"/>
      <point x="47" y="805" type="line"/>
      <point x="51" y="833" type="line"/>
      <point x="288" y="854" type="line"/>
      <point x="295" y="845" type="line"/>
      <point x="290" y="710" type="line"/>
      <point x="298" y="710" type="line"/>
      <point x="348.099" y="780"/>
      <point x="447.314" y="874"/>
      <point x="576" y="874" type="curve" smooth="yes"/>
      <point x="750.896" y="874"/>
      <point x="878" y="749"/>
      <point x="878" y="456" type="curve" smooth="yes"/>
      <point x="878" y="172"/>
      <point x="697" y="-20"/>
      <point x="449" y="-20" type="curve" smooth="yes"/>
      <point x="420" y="-20"/>
      <point x="371" y="-16"/>
      <point x="338" y="-9" type="curve"/>
      <point x="333" y="63" type="line"/>
      <point x="379" y="45"/>
      <point x="423" y="40"/>
      <point x="502" y="40" type="curve" smooth="yes"/>
      <point x="640" y="40"/>
      <point x="777" y="159"/>
      <point x="777" y="402" type="curve" smooth="yes"/>
      <point x="777" y="649"/>
      <point x="707.047" y="795"/>
      <point x="535" y="795" type="curve" smooth="yes"/>
      <point x="428.722" y="795"/>
      <point x="358.578" y="718.881"/>
      <point x="298" y="659" type="curve"/>
      <point x="298" y="-315" type="line"/>
      <point x="453" y="-333" type="line"/>
      <point x="446" y="-374" type="line"/>
    </contour>
  </outline>
</glyph>
<glyph name="q" format="1">
  <advance width="951"/>
  <unicode hex="0071"/>
  <outline>
    <contour>
      <point x="56" y="401" type="curve" smooth="yes"/>
      <point x="56" y="673"/>
      <point x="258" y="877"/>
      <point x="467" y="877" type="curve" smooth="yes"/>
      <point x="561" y="877"/>
      <point x="627" y="852"/>
      <point x="656" y="837" type="curve"/>
      <point x="727" y="864" type="line"/>
      <point x="746" y="864" type="line"/>
      <point x="746" y="-308" type="line"/>
      <point x="905" y="-326" type="line"/>
      <point x="898" y="-368" type="line"/>
      <point x="488" y="-368" type="line"/>
      <point x="493" y="-329" type="line"/>
      <point x="644" y="-308" type="line"/>
      <point x="644" y="719" type="line"/>
      <point x="607" y="766"/>
      <point x="529" y="818"/>
      <point x="417" y="818" type="curve" smooth="yes"/>
      <point x="280" y="818"/>
      <point x="161" y="667"/>
      <point x="161" y="462" type="curve" smooth="yes"/>
      <point x="161" y="169"/>
      <point x="258" y="52"/>
      <point x="418" y="52" type="curve" smooth="yes"/>
      <point x="478" y="52"/>
      <point x="562" y="70"/>
      <point x="612" y="106" type="curve"/>
      <point x="615" y="70" type="line"/>
      <point x="552" y="10"/>
      <point x="457" y="-22"/>
      <point x="365" y="-22" type="curve" smooth="yes"/>
      <point x="190" y="-22"/>
      <point x="56" y="100"/>
    </contour>
  </outline>
</glyph>
<glyph name="r" format="1">
  <advance width="655"/>
  <unicode hex="0072"/>
  <outline>
    <contour>
      <point x="52" y="-1" type="line"/>
      <point x="57" y="30" type="line"/>
      <point x="213" y="57" type="line"/>
      <point x="213" y="776" type="line"/>
      <point x="57" y="805" type="line"/>
      <point x="60" y="833" type="line"/>
      <point x="298" y="853" type="line"/>
      <point x="308" y="844" type="line"/>
      <point x="297" y="594" type="line"/>
      <point x="306" y="594" type="line"/>
      <point x="349.279" y="759"/>
      <point x="437.803" y="882"/>
      <point x="546" y="882" type="curve" smooth="yes"/>
      <point x="612" y="882"/>
      <point x="649" y="849"/>
      <point x="649" y="805" type="curve" smooth="yes"/>
      <point x="649" y="783"/>
      <point x="630" y="752"/>
      <point x="603" y="734" type="curve"/>
      <point x="569" y="774"/>
      <point x="541" y="789"/>
      <point x="498" y="789" type="curve" smooth="yes"/>
      <point x="389.337" y="789"/>
      <point x="335.495" y="596"/>
      <point x="312" y="423" type="curve"/>
      <point x="312" y="55" type="line"/>
      <point x="536" y="36" type="line"/>
      <point x="528" y="-1" type="line"/>
    </contour>
  </outline>
</glyph>
<glyph name="s" format="1">
  <advance width="656"/>
  <unicode hex="0073"/>
  <outline>
    <contour>
      <point x="40" y="134" type="curve" smooth="yes"/>
      <point x="40" y="179.189"/>
      <point x="62.5789" y="212.744"/>
      <point x="118" y="217" type="curve"/>
      <point x="144.479" y="76.4783"/>
      <point x="218.825" y="15"/>
      <point x="339" y="15" type="curve" smooth="yes"/>
      <point x="439" y="15"/>
      <point x="505" y="73"/>
      <point x="505" y="152" type="curve" smooth="yes"/>
      <point x="505" y="328"/>
      <point x="92" y="392.557"/>
      <point x="92" y="652" type="curve" smooth="yes"/>
      <point x="92" y="780.396"/>
      <point x="200" y="899"/>
      <point x="356" y="899" type="curve" smooth="yes"/>
      <point x="487.797" y="899"/>
      <point x="576" y="817.945"/>
      <point x="576" y="736" type="curve" smooth="yes"/>
      <point x="576" y="673.079"/>
      <point x="534.743" y="658.697"/>
      <point x="500" y="656" type="curve"/>
      <point x="475.865" y="781.427"/>
      <point x="400.52" y="851"/>
      <point x="321" y="851" type="curve" smooth="yes"/>
      <point x="236.684" y="851"/>
      <point x="177" y="799.197"/>
      <point x="177" y="698" type="curve" smooth="yes"/>
      <point x="177" y="474.814"/>
      <point x="595" y="419.58"/>
      <point x="595" y="199" type="curve" smooth="yes"/>
      <point x="595" y="70"/>
      <point x="479" y="-36"/>
      <point x="296" y="-36" type="curve" smooth="yes"/>
      <point x="159.273" y="-36"/>
      <point x="40" y="33.1122"/>
    </contour>
  </outline>
</glyph>
<glyph name="t" format="1">
  <advance width="623"/>
  <unicode hex="0074"/>
  <outline>
    <contour>
      <point x="45" y="758" type="line"/>
      <point x="45" y="787" type="line"/>
      <point x="155" y="826"/>
      <point x="189" y="842"/>
      <point x="225" y="1048" type="curve"/>
      <point x="272" y="1048" type="line"/>
      <point x="272" y="810" type="line"/>
      <point x="550" y="810" type="line"/>
      <point x="543" y="756" type="line"/>
      <point x="270" y="756" type="line"/>
      <point x="268" y="301" type="line" smooth="yes"/>
      <point x="268" y="116"/>
      <point x="309.677" y="73"/>
      <point x="394" y="73" type="curve" smooth="yes"/>
      <point x="469" y="73"/>
      <point x="559" y="148"/>
      <point x="559" y="148" type="curve"/>
      <point x="575" y="115" type="line"/>
      <point x="516" y="33"/>
      <point x="424" y="-24"/>
      <point x="337" y="-24" type="curve" smooth="yes"/>
      <point x="214" y="-24"/>
      <point x="168" y="71"/>
      <point x="168" y="243" type="curve" smooth="yes"/>
      <point x="171" y="758" type="line"/>
    </contour>
  </outline>
</glyph>
<glyph name="u" format="1">
  <advance width="999"/>
  <unicode hex="0075"/>
  <outline>
    <contour>
      <point x="46" y="806" type="line"/>
      <point x="50" y="833" type="line"/>
      <point x="284" y="853" type="line"/>
      <point x="292" y="844" type="line"/>
      <point x="292" y="317" type="line" smooth="yes"/>
      <point x="292" y="140"/>
      <point x="356.588" y="59"/>
      <point x="475" y="59" type="curve" smooth="yes"/>
      <point x="566" y="59"/>
      <point x="656" y="126"/>
      <point x="703" y="183" type="curve"/>
      <point x="703" y="776" type="line"/>
      <point x="548" y="806" type="line"/>
      <point x="550" y="833" type="line"/>
      <point x="791" y="853" type="line"/>
      <point x="798" y="844" type="line"/>
      <point x="798" y="230" type="line" smooth="yes"/>
      <point x="798" y="131"/>
      <point x="801.824" y="65"/>
      <point x="885" y="50" type="curve" smooth="yes"/>
      <point x="947" y="37" type="line"/>
      <point x="941" y="3" type="line"/>
      <point x="921" y="-6"/>
      <point x="881" y="-18"/>
      <point x="839" y="-18" type="curve" smooth="yes"/>
      <point x="757" y="-18"/>
      <point x="714" y="47"/>
      <point x="714" y="117" type="curve" smooth="yes"/>
      <point x="714" y="133" type="line"/>
      <point x="703" y="133" type="line"/>
      <point x="634" y="31"/>
      <point x="532" y="-24"/>
      <point x="434" y="-24" type="curve" smooth="yes"/>
      <point x="285" y="-24"/>
      <point x="201" y="68"/>
      <point x="201" y="283" type="curve" smooth="yes"/>
      <point x="201" y="776" type="line"/>
    </contour>
  </outline>
</glyph>
<glyph name="v" format="1">
  <advance width="959"/>
  <unicode hex="0076"/>
  <outline>
    <contour>
      <point x="46" y="813" type="line"/>
      <point x="50" y="848" type="line"/>
      <point x="415" y="848" type="line"/>
      <point x="412" y="816" type="line"/>
      <point x="266" y="783" type="line"/>
      <point x="496" y="129" type="line"/>
      <point x="729" y="782" type="line"/>
      <point x="569" y="813" type="line"/>
      <point x="577" y="848" type="line"/>
      <point x="911" y="848" type="line"/>
      <point x="905" y="816" type="line"/>
      <point x="796" y="783" type="line"/>
      <point x="506" y="-11" type="line"/>
      <point x="455" y="-26" type="line"/>
      <point x="168" y="782" type="line"/>
    </contour>
  </outline>
</glyph>
<glyph name="w" format="1">
  <advance width="1304"/>
  <unicode hex="0077"/>
  <outline>
    <contour>
      <point x="46" y="816" type="line"/>
      <point x="50" y="851" type="line"/>
      <point x="401" y="851" type="line"/>
      <point x="396" y="818" type="line"/>
      <point x="262" y="793" type="line"/>
      <point x="391" y="360" type="line"/>
      <point x="442" y="166" type="line"/>
      <point x="616" y="786" type="line"/>
      <point x="706" y="804" type="line"/>
      <point x="843" y="345" type="line"/>
      <point x="888" y="152" type="line"/>
      <point x="1073" y="791" type="line"/>
      <point x="922" y="816" type="line"/>
      <point x="926" y="851" type="line"/>
      <point x="1256" y="851" type="line"/>
      <point x="1251" y="818" type="line"/>
      <point x="1142" y="793" type="line"/>
      <point x="912" y="-9" type="line"/>
      <point x="860" y="-22" type="line"/>
      <point x="651" y="673" type="line"/>
      <point x="463" y="-9" type="line"/>
      <point x="408" y="-22" type="line"/>
      <point x="163" y="791" type="line"/>
    </contour>
  </outline>
</glyph>
<glyph name="x" format="1">
  <advance width="1006"/>
  <unicode hex="0078"/>
  <outline>
    <contour>
      <point x="50" y="0" type="line"/>
      <point x="58" y="31" type="line"/>
      <point x="166" y="57" type="line"/>
      <point x="454" y="426" type="line"/>
      <point x="191" y="802" type="line"/>
      <point x="73" y="824" type="line"/>
      <point x="77" y="858" type="line"/>
      <point x="430" y="858" type="line"/>
      <point x="423" y="826" type="line"/>
      <point x="308" y="803" type="line"/>
      <point x="520" y="503" type="line"/>
      <point x="747" y="797" type="line"/>
      <point x="608" y="824" type="line"/>
      <point x="618" y="858" type="line"/>
      <point x="940" y="858" type="line"/>
      <point x="932" y="824" type="line"/>
      <point x="827" y="800" type="line"/>
      <point x="556" y="451" type="line"/>
      <point x="839" y="54" type="line"/>
      <point x="952" y="31" type="line"/>
      <point x="946" y="0" type="line"/>
      <point x="580" y="0" type="line"/>
      <point x="591" y="29" type="line"/>
      <point x="717" y="54" type="line"/>
      <point x="492" y="374" type="line"/>
      <point x="248" y="57" type="line"/>
      <point x="390" y="33" type="line"/>
      <point x="382" y="0" type="line"/>
    </contour>
  </outline>
</glyph>
<glyph name="y" format="1">
  <advance width="979"/>
  <unicode hex="0079"/>
  <outline>
    <contour>
      <point x="44" y="-286" type="curve" smooth="yes"/>
      <point x="44" y="-259"/>
      <point x="52" y="-232"/>
      <point x="77" y="-211" type="curve"/>
      <point x="117" y="-247"/>
      <point x="159" y="-263"/>
      <point x="242" y="-263" type="curve" smooth="yes"/>
      <point x="305" y="-263"/>
      <point x="376" y="-202"/>
      <point x="436" y="-48" type="curve" smooth="yes"/>
      <point x="462" y="25" type="line"/>
      <point x="192" y="785" type="line"/>
      <point x="68" y="813" type="line"/>
      <point x="74" y="848" type="line"/>
      <point x="420" y="848" type="line"/>
      <point x="418" y="816" type="line"/>
      <point x="291" y="789" type="line"/>
      <point x="517" y="167" type="line"/>
      <point x="760" y="785" type="line"/>
      <point x="631" y="813" type="line"/>
      <point x="637" y="848" type="line"/>
      <point x="930" y="848" type="line"/>
      <point x="928" y="816" type="line"/>
      <point x="827" y="785" type="line"/>
      <point x="497" y="-53" type="line" smooth="yes"/>
      <point x="415" y="-262"/>
      <point x="340" y="-377"/>
      <point x="181" y="-377" type="curve" smooth="yes"/>
      <point x="105" y="-377"/>
      <point x="44" y="-345"/>
    </contour>
  </outline>
</glyph>
<glyph name="z" format="1">
  <advance width="783"/>
  <unicode hex="007A"/>
  <outline>
    <contour>
      <point x="58" y="40" type="line"/>
      <point x="599" y="796" type="line"/>
      <point x="177" y="796" type="line"/>
      <point x="113" y="571" type="line"/>
      <point x="78" y="576" type="line"/>
      <point x="91" y="848" type="line"/>
      <point x="713" y="848" type="line"/>
      <point x="716" y="818" type="line"/>
      <point x="174" y="58" type="line"/>
      <point x="628" y="58" type="line"/>
      <point x="694" y="275" type="line"/>
      <point x="729" y="271" type="line"/>
      <point x="720" y="0" type="line"/>
      <point x="62" y="0" type="line"/>
    </contour>
  </outline>
</glyph>
<glyph name="braceright" format="1">
  <advance width="614"/>
  <unicode hex="007D"/>
  <outline>
    <contour>
      <point x="42" y="-378" type="line"/>
      <point x="48" y="-329" type="line"/>
      <point x="149" y="-323" type="line"/>
      <point x="377" y="-314"/>
      <point x="124" y="385"/>
      <point x="453" y="437" type="curve"/>
      <point x="453" y="441" type="line"/>
      <point x="124" y="524"/>
      <point x="378" y="1189"/>
      <point x="160" y="1200" type="curve"/>
      <point x="54" y="1207" type="line"/>
      <point x="46" y="1256" type="line"/>
      <point x="149" y="1256" type="line" smooth="yes"/>
      <point x="557" y="1256"/>
      <point x="219" y="506"/>
      <point x="520" y="470" type="curve" smooth="yes"/>
      <point x="569" y="463" type="line"/>
      <point x="569" y="414" type="line"/>
      <point x="516" y="408" type="line" smooth="yes"/>
      <point x="217" y="374"/>
      <point x="558" y="-378"/>
      <point x="144" y="-378" type="curve" smooth="yes"/>
    </contour>
  </outline>
</glyph>
<glyph name="asciitilde" format="1">
  <advance width="901"/>
  <unicode hex="007E"/>
  <outline>
    <contour>
      <point x="58" y="422" type="line"/>
      <point x="58" y="422"/>
      <point x="121" y="662"/>
      <point x="297" y="614" type="curve" smooth="yes"/>
      <point x="646" y="516" type="line" smooth="yes"/>
      <point x="746" y="489"/>
      <point x="798" y="620"/>
      <point x="798" y="620" type="curve"/>
      <point x="844" y="619" type="line"/>
      <point x="844" y="619"/>
      <point x="775" y="371"/>
      <point x="598" y="419" type="curve" smooth="yes"/>
      <point x="250" y="516" type="line" smooth="yes"/>
      <point x="158" y="542"/>
      <point x="97" y="408"/>
      <point x="97" y="408" type="curve"/>
    </contour>
  </outline>
</glyph>
<glyph name="sterling" format="1">
  <advance width="1027"/>
  <unicode hex="00A3"/>
  <outline>
    <contour>
      <point x="43" y="0" type="line"/>
      <point x="49" y="42" type="line"/>
      <point x="219" y="72" type="line"/>
      <point x="246" y="176"/>
      <point x="254" y="313"/>
      <point x="257" y="462" type="curve"/>
      <point x="257" y="573" type="line"/>
      <point x="81" y="565" type="line"/>
      <point x="92" y="623" type="line"/>
      <point x="261" y="633" type="line"/>
      <point x="264" y="786" type="line" smooth="yes"/>
      <point x="271" y="1105"/>
      <point x="365" y="1251"/>
      <point x="592" y="1251" type="curve" smooth="yes"/>
      <point x="674" y="1251"/>
      <point x="744" y="1244"/>
      <point x="823" y="1211" type="curve"/>
      <point x="792" y="889" type="line"/>
      <point x="744" y="897" type="line"/>
      <point x="723" y="1161" type="line"/>
      <point x="701" y="1172"/>
      <point x="607" y="1198"/>
      <point x="571" y="1198" type="curve" smooth="yes"/>
      <point x="417" y="1198"/>
      <point x="375" y="1142"/>
      <point x="375" y="701" type="curve" smooth="yes"/>
      <point x="375" y="640" type="line"/>
      <point x="594" y="653" type="line"/>
      <point x="583" y="593" type="line"/>
      <point x="373" y="580" type="line"/>
      <point x="373" y="516" type="line" smooth="yes"/>
      <point x="373" y="308"/>
      <point x="347" y="154"/>
      <point x="311" y="58" type="curve"/>
      <point x="848" y="58" type="line"/>
      <point x="939" y="323" type="line"/>
      <point x="980" y="313" type="line"/>
      <point x="949" y="0" type="line"/>
    </contour>
  </outline>
</glyph>
<glyph name="currency" format="1">
  <advance width="700"/>
  <unicode hex="00A4"/>
  <outline>
    <contour>
      <point x="52" y="734" type="line"/>
      <point x="102" y="782" type="line"/>
      <point x="180" y="693" type="line"/>
      <point x="223" y="729"/>
      <point x="301" y="772"/>
      <point x="349" y="772" type="curve" smooth="yes"/>
      <point x="403" y="772"/>
      <point x="484" y="730"/>
      <point x="524" y="701" type="curve"/>
      <point x="602" y="783" type="line"/>
      <point x="644" y="730" type="line"/>
      <point x="560" y="656" type="line"/>
      <point x="582" y="619"/>
      <point x="613" y="539"/>
      <point x="613" y="493" type="curve" smooth="yes"/>
      <point x="613" y="442"/>
      <point x="580" y="364"/>
      <point x="553" y="327" type="curve"/>
      <point x="646" y="241" type="line"/>
      <point x="594" y="193" type="line"/>
      <point x="515" y="283" type="line"/>
      <point x="469" y="256"/>
      <point x="389" y="220"/>
      <point x="343" y="220" type="curve" smooth="yes"/>
      <point x="303" y="220"/>
      <point x="233" y="252"/>
      <point x="191" y="278" type="curve"/>
      <point x="113" y="190" type="line"/>
      <point x="64" y="239" type="line"/>
      <point x="148" y="317" type="line"/>
      <point x="121" y="359"/>
      <point x="87" y="439"/>
      <point x="87" y="492" type="curve" smooth="yes"/>
      <point x="87" y="538"/>
      <point x="119" y="611"/>
      <point x="143" y="647" type="curve"/>
    </contour>
    <contour>
      <point x="161" y="496" type="curve" smooth="yes"/>
      <point x="161" y="372"/>
      <point x="235" y="288"/>
      <point x="346" y="288" type="curve" smooth="yes"/>
      <point x="462" y="288"/>
      <point x="540" y="371"/>
      <point x="540" y="489" type="curve" smooth="yes"/>
      <point x="540" y="616"/>
      <point x="462" y="700"/>
      <point x="344" y="700" type="curve" smooth="yes"/>
      <point x="233" y="700"/>
      <point x="161" y="617"/>
    </contour>
  </outline>
</glyph>
<glyph name="yen" format="1">
  <advance width="1041"/>
  <unicode hex="00A5"/>
  <outline>
    <contour>
      <point x="43" y="1207" type="line"/>
      <point x="46" y="1243" type="line"/>
      <point x="464" y="1243" type="line"/>
      <point x="460" y="1207" type="line"/>
      <point x="294" y="1181" type="line"/>
      <point x="552" y="641" type="line"/>
      <point x="790" y="1175" type="line"/>
      <point x="605" y="1207" type="line"/>
      <point x="607" y="1243" type="line"/>
      <point x="999" y="1243" type="line"/>
      <point x="995" y="1207" type="line"/>
      <point x="866" y="1180" type="line"/>
      <point x="586" y="577" type="line"/>
      <point x="945" y="577" type="line"/>
      <point x="933" y="531" type="line"/>
      <point x="577" y="531" type="line"/>
      <point x="577" y="337" type="line"/>
      <point x="943" y="337" type="line"/>
      <point x="932" y="290" type="line"/>
      <point x="577" y="290" type="line"/>
      <point x="577" y="67" type="line"/>
      <point x="760" y="46" type="line"/>
      <point x="751" y="0" type="line"/>
      <point x="291" y="0" type="line"/>
      <point x="296" y="42" type="line"/>
      <point x="471" y="72" type="line"/>
      <point x="471" y="290" type="line"/>
      <point x="129" y="290" type="line"/>
      <point x="139" y="337" type="line"/>
      <point x="471" y="337" type="line"/>
      <point x="471" y="531" type="line"/>
      <point x="133" y="531" type="line"/>
      <point x="142" y="577" type="line"/>
      <point x="460" y="577" type="line"/>
      <point x="183" y="1177" type="line"/>
    </contour>
  </outline>
</glyph>
<glyph name="brokenbar" format="1">
  <advance width="215"/>
  <unicode hex="00A6"/>
  <outline>
    <contour>
      <point x="73" y="-374" type="line"/>
      <point x="73" y="414" type="line"/>
      <point x="142" y="410" type="line"/>
      <point x="142" y="-380" type="line"/>
    </contour>
    <contour>
      <point x="73" y="535" type="line"/>
      <point x="73" y="1253" type="line"/>
      <point x="141" y="1248" type="line"/>
      <point x="138" y="529" type="line"/>
    </contour>
  </outline>
</glyph>
<glyph name="section" format="1">
  <advance width="822"/>
  <unicode hex="00A7"/>
  <outline>
    <contour>
      <point x="43" y="-239" type="curve"/>
      <point x="72" y="46" type="line"/>
      <point x="119" y="42" type="line"/>
      <point x="147" y="-179" type="line"/>
      <point x="192" y="-266"/>
      <point x="311" y="-317"/>
      <point x="424" y="-317" type="curve" smooth="yes"/>
      <point x="548" y="-317"/>
      <point x="664" y="-241"/>
      <point x="664" y="-92" type="curve" smooth="yes"/>
      <point x="664" y="189"/>
      <point x="128" y="257"/>
      <point x="99" y="547" type="curve"/>
      <point x="437" y="333" type="line" smooth="yes"/>
      <point x="599" y="233"/>
      <point x="773" y="132"/>
      <point x="773" y="-46" type="curve" smooth="yes"/>
      <point x="773" y="-235"/>
      <point x="620" y="-378"/>
      <point x="372" y="-378" type="curve" smooth="yes"/>
      <point x="228" y="-378"/>
      <point x="107" y="-318"/>
    </contour>
    <contour>
      <point x="90" y="959" type="curve" smooth="yes"/>
      <point x="90" y="1158"/>
      <point x="262" y="1271"/>
      <point x="422" y="1271" type="curve" smooth="yes"/>
      <point x="530" y="1271"/>
      <point x="647" y="1236"/>
      <point x="714" y="1161" type="curve"/>
      <point x="681" y="851" type="line"/>
      <point x="635" y="858" type="line"/>
      <point x="608" y="1101" type="line"/>
      <point x="572" y="1167"/>
      <point x="478" y="1214"/>
      <point x="396" y="1214" type="curve" smooth="yes"/>
      <point x="284" y="1214"/>
      <point x="188" y="1137"/>
      <point x="188" y="1006" type="curve" smooth="yes"/>
      <point x="188" y="697"/>
      <point x="745" y="636"/>
      <point x="772" y="335" type="curve"/>
      <point x="423" y="564" type="line" smooth="yes"/>
      <point x="266" y="666"/>
      <point x="90" y="766"/>
    </contour>
  </outline>
</glyph>
<glyph name="dieresis" format="1">
  <advance width="541"/>
  <unicode hex="00A8"/>
  <outline>
    <contour>
      <point x="80" y="1465" type="curve" smooth="yes"/>
      <point x="80" y="1515"/>
      <point x="96" y="1543"/>
      <point x="135" y="1543" type="curve" smooth="yes"/>
      <point x="172" y="1543"/>
      <point x="193" y="1516"/>
      <point x="193" y="1465" type="curve" smooth="yes"/>
      <point x="193" y="1412"/>
      <point x="179" y="1384"/>
      <point x="137" y="1384" type="curve" smooth="yes"/>
      <point x="95" y="1384"/>
      <point x="80" y="1414"/>
    </contour>
    <contour>
      <point x="349" y="1465" type="curve" smooth="yes"/>
      <point x="349" y="1515"/>
      <point x="364" y="1543"/>
      <point x="403" y="1543" type="curve" smooth="yes"/>
      <point x="440" y="1543"/>
      <point x="461" y="1516"/>
      <point x="461" y="1465" type="curve" smooth="yes"/>
      <point x="461" y="1412"/>
      <point x="446" y="1384"/>
      <point x="404" y="1384" type="curve" smooth="yes"/>
      <point x="362" y="1384"/>
      <point x="349" y="1414"/>
    </contour>
  </outline>
</glyph>
<glyph name="copyright" format="1">
  <advance width="1326"/>
  <unicode hex="00A9"/>
  <outline>
    <contour>
      <point x="53" y="620" type="curve" smooth="yes"/>
      <point x="53" y="1018"/>
      <point x="312" y="1281"/>
      <point x="651" y="1281" type="curve" smooth="yes"/>
      <point x="1029" y="1281"/>
      <point x="1270" y="1016"/>
      <point x="1270" y="623" type="curve" smooth="yes"/>
      <point x="1270" y="233"/>
      <point x="1027" y="-27"/>
      <point x="642" y="-27" type="curve" smooth="yes"/>
      <point x="277" y="-27"/>
      <point x="53" y="231"/>
    </contour>
    <contour>
      <point x="121" y="631" type="curve" smooth="yes"/>
      <point x="121" y="286"/>
      <point x="339" y="31"/>
      <point x="651" y="31" type="curve" smooth="yes"/>
      <point x="970" y="31"/>
      <point x="1205" y="278"/>
      <point x="1205" y="613" type="curve" smooth="yes"/>
      <point x="1205" y="966"/>
      <point x="970" y="1226"/>
      <point x="653" y="1226" type="curve" smooth="yes"/>
      <point x="341" y="1226"/>
      <point x="121" y="973"/>
    </contour>
    <component base="c" xScale="0.82" yScale="0.82" xOffset="324" yOffset="286"/>
  </outline>
</glyph>
<glyph name="logicalnot" format="1">
  <advance width="878"/>
  <unicode hex="00AC"/>
  <outline>
    <contour>
      <point x="54" y="609" type="line"/>
      <point x="66" y="664" type="line"/>
      <point x="812" y="664" type="line"/>
      <point x="812" y="351" type="line"/>
      <point x="740" y="333" type="line"/>
      <point x="740" y="609" type="line"/>
    </contour>
  </outline>
</glyph>
<glyph name="macron" format="1">
  <advance width="609"/>
  <unicode hex="00AF"/>
  <outline>
    <contour>
      <point x="80" y="1380" type="line"/>
      <point x="89" y="1432" type="line"/>
      <point x="529" y="1432" type="line"/>
      <point x="521" y="1380" type="line"/>
    </contour>
  </outline>
</glyph>
<glyph name="degree" format="1">
  <advance width="483"/>
  <unicode hex="00B0"/>
  <outline>
    <contour>
      <point x="59" y="1107" type="curve" smooth="yes"/>
      <point x="59" y="1210"/>
      <point x="144" y="1304"/>
      <point x="252" y="1304" type="curve" smooth="yes"/>
      <point x="368" y="1304"/>
      <point x="423" y="1237"/>
      <point x="423" y="1128" type="curve" smooth="yes"/>
      <point x="423" y="1013"/>
      <point x="334" y="928"/>
      <point x="228" y="928" type="curve" smooth="yes"/>
      <point x="126" y="928"/>
      <point x="59" y="990"/>
    </contour>
    <contour>
      <point x="120" y="1129" type="curve" smooth="yes"/>
      <point x="120" y="1026"/>
      <point x="169" y="967"/>
      <point x="244" y="967" type="curve" smooth="yes"/>
      <point x="304" y="967"/>
      <point x="361" y="1023"/>
      <point x="361" y="1105" type="curve" smooth="yes"/>
      <point x="361" y="1200"/>
      <point x="311" y="1265"/>
      <point x="238" y="1265" type="curve" smooth="yes"/>
      <point x="164" y="1265"/>
      <point x="120" y="1212"/>
    </contour>
  </outline>
</glyph>
<glyph name="plusminus" format="1">
  <advance width="727"/>
  <unicode hex="00B1"/>
  <outline>
    <contour>
      <point x="52" y="36" type="line"/>
      <point x="69" y="100" type="line"/>
      <point x="680" y="100" type="line"/>
      <point x="663" y="36" type="line"/>
    </contour>
    <component base="plus" xOffset="-4" yOffset="66"/>
  </outline>
</glyph>
<glyph name="micro" format="1">
  <advance width="986"/>
  <unicode hex="00B5"/>
  <outline>
    <contour>
      <point x="42" y="816" type="line"/>
      <point x="46" y="843" type="line"/>
      <point x="276" y="863" type="line"/>
      <point x="284" y="854" type="line"/>
      <point x="284" y="317" type="line" smooth="yes"/>
      <point x="284" y="140"/>
      <point x="350" y="59"/>
      <point x="471" y="59" type="curve" smooth="yes"/>
      <point x="562" y="59"/>
      <point x="652" y="126"/>
      <point x="699" y="183" type="curve"/>
      <point x="699" y="786" type="line"/>
      <point x="544" y="816" type="line"/>
      <point x="546" y="843" type="line"/>
      <point x="783" y="863" type="line"/>
      <point x="790" y="854" type="line"/>
      <point x="790" y="230" type="line" smooth="yes"/>
      <point x="790" y="131"/>
      <point x="794" y="65"/>
      <point x="881" y="50" type="curve" smooth="yes"/>
      <point x="943" y="37" type="line"/>
      <point x="937" y="3" type="line"/>
      <point x="917" y="-6"/>
      <point x="877" y="-18"/>
      <point x="835" y="-18" type="curve" smooth="yes"/>
      <point x="753" y="-18"/>
      <point x="710" y="47"/>
      <point x="710" y="117" type="curve" smooth="yes"/>
      <point x="710" y="133" type="line"/>
      <point x="699" y="133" type="line"/>
      <point x="630" y="31"/>
      <point x="517" y="-24"/>
      <point x="430" y="-24" type="curve" smooth="yes"/>
      <point x="363" y="-24"/>
      <point x="293" y="0"/>
      <point x="263" y="60" type="curve"/>
      <point x="257" y="60" type="line"/>
      <point x="260" y="42"/>
      <point x="258" y="-21"/>
      <point x="261" y="-85" type="curve" smooth="yes"/>
      <point x="272" y="-389" type="line"/>
      <point x="182" y="-363" type="line"/>
      <point x="185" y="-336"/>
      <point x="197" y="160"/>
      <point x="197" y="495" type="curve" smooth="yes"/>
      <point x="197" y="786" type="line"/>
    </contour>
  </outline>
</glyph>
<glyph name="paragraph" format="1">
  <advance width="1101"/>
  <unicode hex="00B6"/>
  <outline>
    <contour>
      <point x="49" y="843" type="curve" smooth="yes"/>
      <point x="49" y="1081"/>
      <point x="277" y="1245"/>
      <point x="525" y="1245" type="curve" smooth="yes"/>
      <point x="707" y="1245" type="line"/>
      <point x="707" y="1" type="line"/>
      <point x="385" y="1" type="line"/>
      <point x="391" y="43" type="line"/>
      <point x="607" y="73" type="line"/>
      <point x="607" y="1185" type="line"/>
      <point x="565" y="1188"/>
      <point x="543" y="1187"/>
      <point x="534" y="1187" type="curve" smooth="yes"/>
      <point x="279" y="1187"/>
      <point x="181" y="1076"/>
      <point x="181" y="840" type="curve" smooth="yes"/>
      <point x="181" y="668"/>
      <point x="311" y="528"/>
      <point x="526" y="528" type="curve"/>
      <point x="508" y="478" type="line"/>
      <point x="247" y="478"/>
      <point x="49" y="551"/>
    </contour>
    <contour>
      <point x="763" y="1" type="line"/>
      <point x="763" y="1245" type="line"/>
      <point x="1047" y="1245" type="line"/>
      <point x="1043" y="1207" type="line"/>
      <point x="866" y="1184" type="line"/>
      <point x="866" y="64" type="line"/>
      <point x="1058" y="46" type="line"/>
      <point x="1048" y="-2" type="line"/>
    </contour>
  </outline>
</glyph>
<glyph name="periodcentered" format="1">
  <advance width="251"/>
  <unicode hex="00B7"/>
  <outline>
    <contour>
      <point x="63" y="502" type="curve" smooth="yes"/>
      <point x="63" y="565"/>
      <point x="83" y="599"/>
      <point x="126" y="599" type="curve" smooth="yes"/>
      <point x="169" y="599"/>
      <point x="189" y="566"/>
      <point x="189" y="502" type="curve" smooth="yes"/>
      <point x="189" y="436"/>
      <point x="173" y="401"/>
      <point x="127" y="401" type="curve" smooth="yes"/>
      <point x="81" y="401"/>
      <point x="63" y="438"/>
    </contour>
  </outline>
</glyph>
<glyph name="one.superior" format="1">
  <advance width="527"/>
  <unicode hex="00B9"/>
  <outline>
    <contour>
      <point x="51" y="566" type="line"/>
      <point x="52" y="611" type="line"/>
      <point x="217" y="632" type="line"/>
      <point x="217" y="1200" type="line"/>
      <point x="61" y="1200" type="line"/>
      <point x="64" y="1244" type="line"/>
      <point x="300" y="1272" type="line"/>
      <point x="318" y="1272" type="line"/>
      <point x="318" y="630" type="line"/>
      <point x="477" y="621" type="line"/>
      <point x="472" y="566" type="line"/>
    </contour>
  </outline>
</glyph>
<glyph name="ordmasculine" format="1">
  <advance width="730"/>
  <unicode hex="00BA"/>
  <outline>
    <contour>
      <point x="54" y="896" type="curve" smooth="yes"/>
      <point x="54" y="1138"/>
      <point x="204" y="1283"/>
      <point x="383" y="1283" type="curve" smooth="yes"/>
      <point x="557" y="1283"/>
      <point x="676" y="1117"/>
      <point x="676" y="929" type="curve" smooth="yes"/>
      <point x="676" y="705"/>
      <point x="526" y="558"/>
      <point x="362" y="558" type="curve" smooth="yes"/>
      <point x="193" y="558"/>
      <point x="54" y="686"/>
    </contour>
    <contour>
      <point x="152" y="954" type="curve" smooth="yes"/>
      <point x="152" y="753"/>
      <point x="241" y="616"/>
      <point x="391" y="616" type="curve" smooth="yes"/>
      <point x="508" y="616"/>
      <point x="578" y="734"/>
      <point x="578" y="900" type="curve" smooth="yes"/>
      <point x="578" y="1074"/>
      <point x="495" y="1223"/>
      <point x="348" y="1223" type="curve" smooth="yes"/>
      <point x="227" y="1223"/>
      <point x="152" y="1109"/>
    </contour>
  </outline>
</glyph>
<glyph name="AE" format="1">
  <advance width="1714"/>
  <unicode hex="00C6"/>
  <outline>
    <contour>
      <point x="53" y="3" type="line"/>
      <point x="57" y="43" type="line"/>
      <point x="200" y="73" type="line"/>
      <point x="854" y="1180" type="line"/>
      <point x="621" y="1205" type="line"/>
      <point x="627" y="1244" type="line"/>
      <point x="1614" y="1244" type="line"/>
      <point x="1582" y="925" type="line"/>
      <point x="1538" y="931" type="line"/>
      <point x="1517" y="1193" type="line"/>
      <point x="983" y="1193" type="line"/>
      <point x="983" y="659" type="line"/>
      <point x="1325" y="659" type="line"/>
      <point x="1361" y="798" type="line"/>
      <point x="1410" y="806" type="line"/>
      <point x="1377" y="417" type="line"/>
      <point x="1330" y="408" type="line"/>
      <point x="1313" y="605" type="line"/>
      <point x="983" y="605" type="line"/>
      <point x="983" y="54" type="line"/>
      <point x="1547" y="54" type="line"/>
      <point x="1618" y="323" type="line"/>
      <point x="1660" y="313" type="line"/>
      <point x="1630" y="0" type="line"/>
      <point x="676" y="0" type="line"/>
      <point x="682" y="42" type="line"/>
      <point x="875" y="72" type="line"/>
      <point x="875" y="472" type="line"/>
      <point x="526" y="472" type="line"/>
      <point x="290" y="66" type="line"/>
      <point x="474" y="48" type="line"/>
      <point x="464" y="3" type="line"/>
    </contour>
    <contour>
      <point x="564" y="537" type="line"/>
      <point x="878" y="537" type="line"/>
      <point x="878" y="1093" type="line"/>
    </contour>
  </outline>
</glyph>
<glyph name="Oslash" format="1">
  <advance width="1283"/>
  <unicode hex="00D8"/>
  <outline>
    <contour>
      <point x="46" y="127" type="line"/>
      <point x="193" y="255" type="line"/>
      <point x="231" y="276" type="line"/>
      <point x="1009" y="1012" type="line"/>
      <point x="1033" y="1048" type="line"/>
      <point x="1148" y="1161" type="line"/>
      <point x="1236" y="1127" type="line"/>
      <point x="1087" y="1005" type="line"/>
      <point x="1042" y="976" type="line"/>
      <point x="255" y="229" type="line"/>
      <point x="231" y="199" type="line"/>
      <point x="130" y="92" type="line"/>
    </contour>
    <contour>
      <point x="194" y="679" type="curve" smooth="yes"/>
      <point x="194" y="310"/>
      <point x="363" y="37"/>
      <point x="653" y="37" type="curve" smooth="yes"/>
      <point x="943" y="37"/>
      <point x="1087" y="330"/>
      <point x="1087" y="573" type="curve" smooth="yes"/>
      <point x="1087" y="954"/>
      <point x="912" y="1218"/>
      <point x="626" y="1218" type="curve" smooth="yes"/>
      <point x="333" y="1218"/>
      <point x="194" y="940"/>
    </contour>
    <contour>
      <point x="84" y="620" type="curve" smooth="yes"/>
      <point x="84" y="1005"/>
      <point x="311" y="1274"/>
      <point x="674" y="1274" type="curve" smooth="yes"/>
      <point x="1016" y="1274"/>
      <point x="1195" y="1004"/>
      <point x="1195" y="627" type="curve" smooth="yes"/>
      <point x="1195" y="321"/>
      <point x="1011" y="-27"/>
      <point x="605" y="-27" type="curve" smooth="yes"/>
      <point x="288" y="-27"/>
      <point x="84" y="267"/>
    </contour>
  </outline>
</glyph>
<glyph name="Thorn" format="1">
  <advance width="1008"/>
  <unicode hex="00DE"/>
  <outline>
    <contour>
      <point x="49" y="1205" type="line"/>
      <point x="54" y="1244" type="line"/>
      <point x="512" y="1244" type="line"/>
      <point x="507" y="1205" type="line"/>
      <point x="329" y="1182" type="line"/>
      <point x="329" y="1021" type="line"/>
      <point x="371" y="1024"/>
      <point x="428" y="1024"/>
      <point x="470" y="1024" type="curve" smooth="yes"/>
      <point x="738" y="1024"/>
      <point x="954" y="915"/>
      <point x="954" y="660" type="curve" smooth="yes"/>
      <point x="954" y="410"/>
      <point x="721" y="248"/>
      <point x="471" y="248" type="curve" smooth="yes"/>
      <point x="454" y="248"/>
      <point x="435" y="247"/>
      <point x="418" y="250" type="curve"/>
      <point x="408" y="293" type="line"/>
      <point x="462" y="296" type="line" smooth="yes"/>
      <point x="729" y="308"/>
      <point x="830" y="462"/>
      <point x="830" y="640" type="curve" smooth="yes"/>
      <point x="830" y="812"/>
      <point x="702" y="979"/>
      <point x="439" y="979" type="curve" smooth="yes"/>
      <point x="397" y="979"/>
      <point x="329" y="972"/>
      <point x="329" y="972" type="curve"/>
      <point x="329" y="66" type="line"/>
      <point x="563" y="46" type="line"/>
      <point x="555" y="0" type="line"/>
      <point x="56" y="0" type="line"/>
      <point x="61" y="42" type="line"/>
      <point x="219" y="72" type="line"/>
      <point x="222" y="1180" type="line"/>
    </contour>
  </outline>
</glyph>
<glyph name="germandbls" format="1">
  <advance width="1063"/>
  <unicode hex="00DF"/>
  <outline>
    <contour>
      <point x="46" y="0" type="line"/>
      <point x="59" y="30" type="line"/>
      <point x="209" y="59" type="line"/>
      <point x="209" y="824" type="line"/>
      <point x="61" y="824" type="line"/>
      <point x="73" y="858" type="line"/>
      <point x="212" y="880" type="line"/>
      <point x="226.175" y="1125.05"/>
      <point x="346.665" y="1314.5"/>
      <point x="603" y="1314.5" type="curve" smooth="yes"/>
      <point x="725.723" y="1314.5"/>
      <point x="844" y="1235.42"/>
      <point x="844" y="1090" type="curve" smooth="yes"/>
      <point x="844" y="861.991"/>
      <point x="588" y="826"/>
      <point x="588" y="690" type="curve" smooth="yes"/>
      <point x="588" y="474.558"/>
      <point x="1011" y="426.568"/>
      <point x="1011" y="205" type="curve" smooth="yes"/>
      <point x="1011" y="56"/>
      <point x="868.732" y="-36"/>
      <point x="704" y="-36" type="curve" smooth="yes"/>
      <point x="566.711" y="-36"/>
      <point x="445" y="47"/>
      <point x="445" y="174" type="curve" smooth="yes"/>
      <point x="445" y="231"/>
      <point x="489" y="254"/>
      <point x="525" y="263" type="curve"/>
      <point x="550.157" y="87"/>
      <point x="602.407" y="15"/>
      <point x="734" y="15" type="curve" smooth="yes"/>
      <point x="845.834" y="15"/>
      <point x="923" y="88"/>
      <point x="923" y="154" type="curve" smooth="yes"/>
      <point x="923" y="333.304"/>
      <point x="509" y="392.724"/>
      <point x="509" y="645" type="curve" smooth="yes"/>
      <point x="509" y="823.995"/>
      <point x="757" y="850"/>
      <point x="757" y="1052" type="curve" smooth="yes"/>
      <point x="757" y="1163.11"/>
      <point x="652.314" y="1253.5"/>
      <point x="554" y="1253.5" type="curve" smooth="yes"/>
      <point x="390.451" y="1253.5"/>
      <point x="312" y="1127.71"/>
      <point x="312" y="982" type="curve" smooth="yes"/>
      <point x="312" y="0" type="line"/>
    </contour>
  </outline>
</glyph>
<glyph name="ae" format="1">
  <advance width="1195"/>
  <unicode hex="00E6"/>
  <outline>
    <contour>
      <point x="52" y="169" type="curve" smooth="yes"/>
      <point x="52" y="331"/>
      <point x="182" y="430"/>
      <point x="514" y="467" type="curve"/>
      <point x="514" y="538" type="line" smooth="yes"/>
      <point x="514" y="747"/>
      <point x="476" y="825"/>
      <point x="322" y="825" type="curve" smooth="yes"/>
      <point x="211" y="825"/>
      <point x="182" y="730"/>
      <point x="167" y="609" type="curve"/>
      <point x="124" y="609"/>
      <point x="86" y="628"/>
      <point x="86" y="673" type="curve" smooth="yes"/>
      <point x="86" y="776"/>
      <point x="238" y="875"/>
      <point x="377" y="875" type="curve" smooth="yes"/>
      <point x="475" y="875"/>
      <point x="566" y="826"/>
      <point x="593" y="718" type="curve"/>
      <point x="666" y="835"/>
      <point x="771" y="874"/>
      <point x="868" y="874" type="curve" smooth="yes"/>
      <point x="1014" y="874"/>
      <point x="1101" y="784"/>
      <point x="1101" y="573" type="curve" smooth="yes"/>
      <point x="1101" y="542"/>
      <point x="1094" y="487"/>
      <point x="1085" y="451" type="curve"/>
      <point x="599" y="429" type="line"/>
      <point x="599" y="209"/>
      <point x="687" y="53"/>
      <point x="895" y="53" type="curve" smooth="yes"/>
      <point x="990" y="53"/>
      <point x="1062" y="90"/>
      <point x="1109" y="137" type="curve"/>
      <point x="1127" y="104" type="line"/>
      <point x="1070" y="29"/>
      <point x="972" y="-29"/>
      <point x="839" y="-29" type="curve" smooth="yes"/>
      <point x="739" y="-29"/>
      <point x="592" y="51"/>
      <point x="546" y="169" type="curve"/>
      <point x="529" y="105"/>
      <point x="418" y="-27"/>
      <point x="259" y="-27" type="curve" smooth="yes"/>
      <point x="153" y="-27"/>
      <point x="52" y="46"/>
    </contour>
    <contour>
      <point x="150" y="196" type="curve" smooth="yes"/>
      <point x="150" y="114"/>
      <point x="203" y="42"/>
      <point x="291" y="42" type="curve" smooth="yes"/>
      <point x="393" y="42"/>
      <point x="514" y="128"/>
      <point x="514" y="248" type="curve" smooth="yes"/>
      <point x="514" y="424" type="line"/>
      <point x="314" y="395"/>
      <point x="150" y="355"/>
    </contour>
    <contour>
      <point x="600" y="476" type="curve"/>
      <point x="987" y="514" type="line"/>
      <point x="996" y="536"/>
      <point x="997" y="592"/>
      <point x="997" y="607" type="curve" smooth="yes"/>
      <point x="997" y="725"/>
      <point x="916" y="818"/>
      <point x="819" y="818" type="curve" smooth="yes"/>
      <point x="688" y="818"/>
      <point x="600" y="683"/>
    </contour>
  </outline>
</glyph>
<glyph name="igrave" format="1">
  <advance width="511"/>
  <unicode hex="00EC"/>
  <outline>
    <contour>
      <point x="56" y="0" type="line"/>
      <point x="69" y="31" type="line"/>
      <point x="219" y="59" type="line"/>
      <point x="219" y="812" type="line"/>
      <point x="66" y="842" type="line"/>
      <point x="69" y="867" type="line"/>
      <point x="305" y="888" type="line"/>
      <point x="313" y="880" type="line"/>
      <point x="313" y="59" type="line"/>
      <point x="473" y="33" type="line"/>
      <point x="462" y="0" type="line"/>
    </contour>
    <component base="grave" xOffset="-25" yOffset="-338"/>
  </outline>
</glyph>
<glyph name="iacute" format="1">
  <advance width="511"/>
  <unicode hex="00ED"/>
  <outline>
    <contour>
      <point x="45" y="0" type="line"/>
      <point x="58" y="31" type="line"/>
      <point x="208" y="59" type="line"/>
      <point x="208" y="812" type="line"/>
      <point x="55" y="842" type="line"/>
      <point x="58" y="867" type="line"/>
      <point x="294" y="888" type="line"/>
      <point x="302" y="880" type="line"/>
      <point x="302" y="59" type="line"/>
      <point x="462" y="33" type="line"/>
      <point x="451" y="0" type="line"/>
    </contour>
    <component base="acute" xOffset="135" yOffset="-338"/>
  </outline>
</glyph>
<glyph name="icircumflex" format="1">
  <advance width="511"/>
  <unicode hex="00EE"/>
  <outline>
    <contour>
      <point x="50" y="0" type="line"/>
      <point x="63" y="31" type="line"/>
      <point x="213" y="59" type="line"/>
      <point x="213" y="812" type="line"/>
      <point x="60" y="842" type="line"/>
      <point x="63" y="867" type="line"/>
      <point x="299" y="888" type="line"/>
      <point x="307" y="880" type="line"/>
      <point x="307" y="59" type="line"/>
      <point x="467" y="33" type="line"/>
      <point x="456" y="0" type="line"/>
    </contour>
    <component base="circumflex" xOffset="-44" yOffset="-338"/>
  </outline>
</glyph>
<glyph name="idieresis" format="1">
  <advance width="511"/>
  <unicode hex="00EF"/>
  <outline>
    <contour>
      <point x="53" y="0" type="line"/>
      <point x="66" y="31" type="line"/>
      <point x="216" y="59" type="line"/>
      <point x="216" y="812" type="line"/>
      <point x="63" y="842" type="line"/>
      <point x="66" y="867" type="line"/>
      <point x="302" y="888" type="line"/>
      <point x="310" y="880" type="line"/>
      <point x="310" y="59" type="line"/>
      <point x="470" y="33" type="line"/>
      <point x="459" y="0" type="line"/>
    </contour>
    <component base="dieresis" xOffset="-16" yOffset="-354"/>
  </outline>
</glyph>
<glyph name="eth" format="1">
  <advance width="844"/>
  <unicode hex="00F0"/>
  <outline>
    <contour>
      <point x="55" y="451" type="curve" smooth="yes"/>
      <point x="55" y="747"/>
      <point x="175" y="949"/>
      <point x="387" y="949" type="curve" smooth="yes"/>
      <point x="505" y="949"/>
      <point x="598" y="858"/>
      <point x="627" y="782" type="curve"/>
      <point x="634" y="783" type="line"/>
      <point x="605" y="901"/>
      <point x="543" y="1012"/>
      <point x="479" y="1099" type="curve"/>
      <point x="230" y="1048" type="line"/>
      <point x="242" y="1099" type="line"/>
      <point x="448" y="1141" type="line"/>
      <point x="384" y="1221"/>
      <point x="323" y="1276"/>
      <point x="296" y="1302" type="curve"/>
      <point x="362" y="1302" type="line"/>
      <point x="420" y="1265"/>
      <point x="476" y="1216"/>
      <point x="527" y="1157" type="curve"/>
      <point x="689" y="1192" type="line"/>
      <point x="680" y="1141" type="line"/>
      <point x="562" y="1117" type="line"/>
      <point x="680" y="963"/>
      <point x="768" y="745"/>
      <point x="768" y="465" type="curve" smooth="yes"/>
      <point x="768" y="157"/>
      <point x="627" y="-27"/>
      <point x="412" y="-27" type="curve" smooth="yes"/>
      <point x="169" y="-27"/>
      <point x="55" y="208"/>
    </contour>
    <contour>
      <point x="156" y="498" type="curve" smooth="yes"/>
      <point x="156" y="185"/>
      <point x="285" y="29"/>
      <point x="436" y="29" type="curve" smooth="yes"/>
      <point x="590" y="29"/>
      <point x="667" y="210"/>
      <point x="667" y="425" type="curve" smooth="yes"/>
      <point x="667" y="742"/>
      <point x="511" y="893"/>
      <point x="375" y="893" type="curve" smooth="yes"/>
      <point x="371" y="893" type="line"/>
      <point x="217" y="890"/>
      <point x="156" y="693"/>
    </contour>
  </outline>
</glyph>
<glyph name="divide" format="1">
  <advance width="929"/>
  <unicode hex="00F7"/>
  <outline>
    <contour>
      <point x="53" y="476" type="line"/>
      <point x="65" y="541" type="line"/>
      <point x="877" y="541" type="line"/>
      <point x="866" y="476" type="line"/>
    </contour>
    <contour>
      <point x="397" y="224" type="curve" smooth="yes"/>
      <point x="397" y="287"/>
      <point x="414" y="317"/>
      <point x="457" y="317" type="curve" smooth="yes"/>
      <point x="500" y="317"/>
      <point x="524" y="288"/>
      <point x="524" y="224" type="curve" smooth="yes"/>
      <point x="524" y="158"/>
      <point x="505" y="120"/>
      <point x="459" y="120" type="curve" smooth="yes"/>
      <point x="413" y="120"/>
      <point x="397" y="160"/>
    </contour>
    <contour>
      <point x="397" y="789" type="curve" smooth="yes"/>
      <point x="397" y="852"/>
      <point x="414" y="885"/>
      <point x="457" y="885" type="curve" smooth="yes"/>
      <point x="500" y="885"/>
      <point x="524" y="853"/>
      <point x="524" y="789" type="curve" smooth="yes"/>
      <point x="524" y="723"/>
      <point x="505" y="685"/>
      <point x="459" y="685" type="curve" smooth="yes"/>
      <point x="413" y="685"/>
      <point x="397" y="725"/>
    </contour>
  </outline>
</glyph>
<glyph name="oslash" format="1">
  <advance width="954"/>
  <unicode hex="00F8"/>
  <outline>
    <contour>
      <point x="44" y="46" type="line"/>
      <point x="175" y="183" type="line"/>
      <point x="217" y="209" type="line"/>
      <point x="678" y="721" type="line"/>
      <point x="709" y="765" type="line"/>
      <point x="775" y="847" type="line"/>
      <point x="889" y="857" type="line"/>
      <point x="755" y="713" type="line"/>
      <point x="708" y="680" type="line"/>
      <point x="247" y="172" type="line"/>
      <point x="216" y="121" type="line"/>
      <point x="156" y="54" type="line"/>
    </contour>
    <contour>
      <point x="198" y="480" type="curve" smooth="yes"/>
      <point x="198" y="244"/>
      <point x="316" y="37"/>
      <point x="504" y="37" type="curve" smooth="yes"/>
      <point x="649" y="37"/>
      <point x="746" y="205"/>
      <point x="746" y="413" type="curve" smooth="yes"/>
      <point x="746" y="619"/>
      <point x="634" y="840"/>
      <point x="450" y="840" type="curve" smooth="yes"/>
      <point x="299" y="840"/>
      <point x="198" y="674"/>
    </contour>
    <contour>
      <point x="93" y="408" type="curve" smooth="yes"/>
      <point x="93" y="715"/>
      <point x="270" y="903"/>
      <point x="494" y="903" type="curve" smooth="yes"/>
      <point x="712" y="903"/>
      <point x="851" y="684"/>
      <point x="851" y="449" type="curve" smooth="yes"/>
      <point x="851" y="169"/>
      <point x="673" y="-27"/>
      <point x="468" y="-27" type="curve" smooth="yes"/>
      <point x="250" y="-27"/>
      <point x="93" y="145"/>
    </contour>
  </outline>
</glyph>
<glyph name="thorn" format="1">
  <advance width="944"/>
  <unicode hex="00FE"/>
  <outline>
    <contour>
      <point x="45" y="-374" type="line"/>
      <point x="50" y="-335" type="line"/>
      <point x="200" y="-313" type="line"/>
      <point x="200" y="1232.5" type="line"/>
      <point x="49" y="1263.5" type="line"/>
      <point x="52" y="1294.5" type="line"/>
      <point x="291" y="1314.5" type="line"/>
      <point x="299" y="1304.5" type="line"/>
      <point x="299" y="848" type="line"/>
      <point x="289" y="734" type="line"/>
      <point x="297" y="734" type="line"/>
      <point x="348" y="804"/>
      <point x="449" y="899"/>
      <point x="580" y="899" type="curve" smooth="yes"/>
      <point x="752" y="899"/>
      <point x="877" y="760"/>
      <point x="877" y="467" type="curve" smooth="yes"/>
      <point x="877" y="183"/>
      <point x="701" y="-20"/>
      <point x="448" y="-20" type="curve" smooth="yes"/>
      <point x="419" y="-20"/>
      <point x="370" y="-16"/>
      <point x="337" y="-9" type="curve"/>
      <point x="332" y="63" type="line"/>
      <point x="378" y="45"/>
      <point x="422" y="40"/>
      <point x="501" y="40" type="curve" smooth="yes"/>
      <point x="639" y="40"/>
      <point x="776" y="171"/>
      <point x="776" y="414" type="curve" smooth="yes"/>
      <point x="776" y="644"/>
      <point x="702" y="818"/>
      <point x="520" y="818" type="curve" smooth="yes"/>
      <point x="420" y="818"/>
      <point x="354" y="739"/>
      <point x="297" y="680" type="curve"/>
      <point x="297" y="-315" type="line"/>
      <point x="452" y="-333" type="line"/>
      <point x="445" y="-374" type="line"/>
    </contour>
  </outline>
</glyph>
<glyph name="Ccaron" format="1">
  <advance width="1071"/>
  <unicode hex="010C"/>
  <outline>
    <contour>
      <point x="517" y="1543" type="line"/>
      <point x="572" y="1592" type="line"/>
      <point x="738" y="1423" type="line"/>
      <point x="747" y="1423" type="line"/>
      <point x="890" y="1588" type="line"/>
      <point x="926" y="1561" type="line"/>
      <point x="752" y="1377" type="line"/>
      <point x="696" y="1363" type="line"/>
    </contour>
    <component base="C"/>
  </outline>
</glyph>
<glyph name="ccaron" format="1">
  <advance width="779"/>
  <unicode hex="010D"/>
  <outline>
    <contour>
      <point x="269" y="1190" type="line"/>
      <point x="324" y="1239" type="line"/>
      <point x="490" y="1070" type="line"/>
      <point x="499" y="1070" type="line"/>
      <point x="642" y="1235" type="line"/>
      <point x="678" y="1208" type="line"/>
      <point x="504" y="1024" type="line"/>
      <point x="448" y="1010" type="line"/>
    </contour>
    <component base="c"/>
  </outline>
</glyph>
<glyph name="Ecaron" format="1">
  <advance width="1071"/>
  <unicode hex="011A"/>
  <outline>
    <contour>
      <point x="434" y="1543" type="line"/>
      <point x="489" y="1592" type="line"/>
      <point x="655" y="1423" type="line"/>
      <point x="664" y="1423" type="line"/>
      <point x="807" y="1588" type="line"/>
      <point x="843" y="1561" type="line"/>
      <point x="669" y="1377" type="line"/>
      <point x="613" y="1363" type="line"/>
    </contour>
    <component base="E"/>
  </outline>
</glyph>
<glyph name="ecaron" format="1">
  <advance width="821"/>
  <unicode hex="011B"/>
  <outline>
    <contour>
      <point x="283" y="1174" type="line"/>
      <point x="338" y="1223" type="line"/>
      <point x="504" y="1054" type="line"/>
      <point x="513" y="1054" type="line"/>
      <point x="656" y="1219" type="line"/>
      <point x="692" y="1192" type="line"/>
      <point x="518" y="1008" type="line"/>
      <point x="462" y="994" type="line"/>
    </contour>
    <component base="e"/>
  </outline>
</glyph>
<glyph name="OE" format="1">
  <advance width="1649"/>
  <unicode hex="0152"/>
  <outline>
    <contour>
      <point x="64" y="620" type="curve" smooth="yes"/>
      <point x="64" y="1005"/>
      <point x="292" y="1274"/>
      <point x="655" y="1274" type="curve" smooth="yes"/>
      <point x="716" y="1274"/>
      <point x="779" y="1265"/>
      <point x="832" y="1245" type="curve"/>
      <point x="1483" y="1244" type="line"/>
      <point x="1453" y="925" type="line"/>
      <point x="1407" y="931" type="line"/>
      <point x="1386" y="1193" type="line"/>
      <point x="894" y="1193" type="line"/>
      <point x="894" y="659" type="line"/>
      <point x="1192" y="659" type="line"/>
      <point x="1229" y="798" type="line"/>
      <point x="1280" y="806" type="line"/>
      <point x="1246" y="417" type="line"/>
      <point x="1200" y="408" type="line"/>
      <point x="1182" y="605" type="line"/>
      <point x="894" y="605" type="line"/>
      <point x="894" y="54" type="line"/>
      <point x="1416" y="54" type="line"/>
      <point x="1488" y="323" type="line"/>
      <point x="1531" y="313" type="line"/>
      <point x="1499" y="0" type="line"/>
      <point x="785" y="0" type="line"/>
      <point x="719" y="-15"/>
      <point x="650" y="-27"/>
      <point x="586" y="-27" type="curve" smooth="yes"/>
      <point x="269" y="-27"/>
      <point x="64" y="267"/>
    </contour>
    <contour>
      <point x="172" y="679" type="curve" smooth="yes"/>
      <point x="172" y="310"/>
      <point x="346" y="31"/>
      <point x="632" y="31" type="curve" smooth="yes"/>
      <point x="692" y="31"/>
      <point x="742" y="41"/>
      <point x="788" y="63" type="curve"/>
      <point x="788" y="1151" type="line"/>
      <point x="735" y="1196"/>
      <point x="676" y="1218"/>
      <point x="607" y="1218" type="curve" smooth="yes"/>
      <point x="314" y="1218"/>
      <point x="172" y="940"/>
    </contour>
  </outline>
</glyph>
<glyph name="oe" format="1">
  <advance width="1423"/>
  <unicode hex="0153"/>
  <outline>
    <contour>
      <point x="85" y="408" type="curve" smooth="yes"/>
      <point x="85" y="712"/>
      <point x="279" y="879"/>
      <point x="467" y="879" type="curve" smooth="yes"/>
      <point x="600" y="879"/>
      <point x="733" y="825"/>
      <point x="802" y="665" type="curve"/>
      <point x="853" y="774"/>
      <point x="966" y="874"/>
      <point x="1112" y="874" type="curve" smooth="yes"/>
      <point x="1258" y="874"/>
      <point x="1345" y="810"/>
      <point x="1345" y="599" type="curve" smooth="yes"/>
      <point x="1345" y="568"/>
      <point x="1336" y="480"/>
      <point x="1327" y="444" type="curve"/>
      <point x="843" y="438" type="line"/>
      <point x="843" y="218"/>
      <point x="928" y="53"/>
      <point x="1136" y="53" type="curve" smooth="yes"/>
      <point x="1231" y="53"/>
      <point x="1306" y="90"/>
      <point x="1353" y="137" type="curve"/>
      <point x="1371" y="104" type="line"/>
      <point x="1314" y="29"/>
      <point x="1214" y="-29"/>
      <point x="1081" y="-29" type="curve" smooth="yes"/>
      <point x="936" y="-29"/>
      <point x="829" y="58"/>
      <point x="783" y="190" type="curve"/>
      <point x="714" y="41"/>
      <point x="580" y="-27"/>
      <point x="444" y="-27" type="curve" smooth="yes"/>
      <point x="254" y="-27"/>
      <point x="85" y="145"/>
    </contour>
    <contour>
      <point x="192" y="480" type="curve" smooth="yes"/>
      <point x="192" y="244"/>
      <point x="308" y="37"/>
      <point x="496" y="37" type="curve" smooth="yes"/>
      <point x="641" y="37"/>
      <point x="739" y="205"/>
      <point x="739" y="413" type="curve" smooth="yes"/>
      <point x="739" y="618"/>
      <point x="628" y="813"/>
      <point x="444" y="813" type="curve" smooth="yes"/>
      <point x="293" y="813"/>
      <point x="192" y="674"/>
    </contour>
    <contour>
      <point x="843" y="482" type="curve"/>
      <point x="1233" y="504" type="line"/>
      <point x="1239" y="524"/>
      <point x="1241" y="616"/>
      <point x="1241" y="631" type="curve" smooth="yes"/>
      <point x="1241" y="749"/>
      <point x="1160" y="809"/>
      <point x="1063" y="809" type="curve" smooth="yes"/>
      <point x="959" y="809"/>
      <point x="843" y="691"/>
    </contour>
  </outline>
</glyph>
<glyph name="Rcaron" format="1">
  <advance width="1181"/>
  <unicode hex="0158"/>
  <outline>
    <contour>
      <point x="395" y="1543" type="line"/>
      <point x="450" y="1592" type="line"/>
      <point x="616" y="1423" type="line"/>
      <point x="625" y="1423" type="line"/>
      <point x="768" y="1588" type="line"/>
      <point x="804" y="1561" type="line"/>
      <point x="630" y="1377" type="line"/>
      <point x="574" y="1363" type="line"/>
    </contour>
    <component base="R"/>
  </outline>
</glyph>
<glyph name="rcaron" format="1">
  <advance width="741"/>
  <unicode hex="0159"/>
  <outline>
    <contour>
      <point x="193" y="1174" type="line"/>
      <point x="248" y="1223" type="line"/>
      <point x="414" y="1054" type="line"/>
      <point x="423" y="1054" type="line"/>
      <point x="566" y="1219" type="line"/>
      <point x="602" y="1192" type="line"/>
      <point x="428" y="1008" type="line"/>
      <point x="372" y="994" type="line"/>
    </contour>
    <component base="r"/>
  </outline>
</glyph>
<glyph name="Scaron" format="1">
  <advance width="860"/>
  <unicode hex="0160"/>
  <outline>
    <contour>
      <point x="265" y="1540" type="line"/>
      <point x="320" y="1589" type="line"/>
      <point x="486" y="1420" type="line"/>
      <point x="495" y="1420" type="line"/>
      <point x="638" y="1585" type="line"/>
      <point x="674" y="1558" type="line"/>
      <point x="500" y="1374" type="line"/>
      <point x="444" y="1360" type="line"/>
    </contour>
    <component base="S"/>
  </outline>
</glyph>
<glyph name="scaron" format="1">
  <advance width="686"/>
  <unicode hex="0161"/>
  <outline>
    <contour>
      <point x="174" y="1174" type="line"/>
      <point x="229" y="1223" type="line"/>
      <point x="395" y="1054" type="line"/>
      <point x="404" y="1054" type="line"/>
      <point x="547" y="1219" type="line"/>
      <point x="583" y="1192" type="line"/>
      <point x="409" y="1008" type="line"/>
      <point x="353" y="994" type="line"/>
    </contour>
    <component base="s"/>
  </outline>
</glyph>
<glyph name="Zcaron" format="1">
  <advance width="1005"/>
  <unicode hex="017D"/>
  <outline>
    <contour>
      <point x="318" y="1543" type="line"/>
      <point x="373" y="1592" type="line"/>
      <point x="539" y="1423" type="line"/>
      <point x="548" y="1423" type="line"/>
      <point x="691" y="1588" type="line"/>
      <point x="727" y="1561" type="line"/>
      <point x="553" y="1377" type="line"/>
      <point x="497" y="1363" type="line"/>
    </contour>
    <component base="Z"/>
  </outline>
</glyph>
<glyph name="zcaron" format="1">
  <advance width="898"/>
  <unicode hex="017E"/>
  <outline>
    <contour>
      <point x="289" y="1174" type="line"/>
      <point x="344" y="1223" type="line"/>
      <point x="510" y="1054" type="line"/>
      <point x="519" y="1054" type="line"/>
      <point x="662" y="1219" type="line"/>
      <point x="698" y="1192" type="line"/>
      <point x="524" y="1008" type="line"/>
      <point x="468" y="994" type="line"/>
    </contour>
    <component base="z"/>
  </outline>
</glyph>
<glyph name="circumflex" format="1">
  <advance width="558"/>
  <unicode hex="02C6"/>
  <outline>
    <contour>
      <point x="79" y="1388" type="line"/>
      <point x="246" y="1569" type="line"/>
      <point x="300" y="1582" type="line"/>
      <point x="479" y="1396" type="line"/>
      <point x="447" y="1359" type="line"/>
      <point x="266" y="1494" type="line"/>
      <point x="257" y="1494" type="line"/>
      <point x="100" y="1358" type="line"/>
    </contour>
  </outline>
</glyph>
<glyph name="dotaccent" format="1">
  <advance width="286"/>
  <unicode hex="02D9"/>
  <outline>
    <contour>
      <point x="80" y="1479" type="curve" smooth="yes"/>
      <point x="80" y="1542"/>
      <point x="100" y="1576"/>
      <point x="143" y="1576" type="curve" smooth="yes"/>
      <point x="186" y="1576"/>
      <point x="206" y="1543"/>
      <point x="206" y="1479" type="curve" smooth="yes"/>
      <point x="206" y="1413"/>
      <point x="189" y="1376"/>
      <point x="143" y="1376" type="curve" smooth="yes"/>
      <point x="97" y="1376"/>
      <point x="80" y="1415"/>
    </contour>
  </outline>
</glyph>
<glyph name="ring" format="1">
  <advance width="485"/>
  <unicode hex="02DA"/>
  <outline>
    <contour>
      <point x="80" y="1529" type="curve" smooth="yes"/>
      <point x="80" y="1621"/>
      <point x="154" y="1700"/>
      <point x="248" y="1700" type="curve" smooth="yes"/>
      <point x="345" y="1700"/>
      <point x="406" y="1632"/>
      <point x="406" y="1538" type="curve" smooth="yes"/>
      <point x="406" y="1447"/>
      <point x="338" y="1363"/>
      <point x="236" y="1363" type="curve" smooth="yes"/>
      <point x="144" y="1363"/>
      <point x="80" y="1427"/>
    </contour>
    <contour>
      <point x="145" y="1540" type="curve" smooth="yes"/>
      <point x="145" y="1476"/>
      <point x="177" y="1404"/>
      <point x="246" y="1404" type="curve" smooth="yes"/>
      <point x="305" y="1404"/>
      <point x="340" y="1447"/>
      <point x="340" y="1523" type="curve" smooth="yes"/>
      <point x="340" y="1589"/>
      <point x="302" y="1660"/>
      <point x="236" y="1660" type="curve" smooth="yes"/>
      <point x="172" y="1660"/>
      <point x="145" y="1600"/>
    </contour>
  </outline>
</glyph>
<glyph name="tilde" format="1">
  <advance width="627"/>
  <unicode hex="02DC"/>
  <outline>
    <contour>
      <point x="77" y="1379" type="line"/>
      <point x="109" y="1540"/>
      <point x="203.778" y="1551.58"/>
      <point x="276" y="1511.2" type="curve" smooth="yes"/>
      <point x="349" y="1470.37" type="line" smooth="yes"/>
      <point x="417.145" y="1432.26"/>
      <point x="472" y="1410"/>
      <point x="515" y="1531" type="curve"/>
      <point x="547" y="1523" type="line"/>
      <point x="518" y="1379"/>
      <point x="438.873" y="1340.59"/>
      <point x="347" y="1391.22" type="curve" smooth="yes"/>
      <point x="275" y="1430.9" type="line" smooth="yes"/>
      <point x="209.444" y="1467.03"/>
      <point x="154" y="1497"/>
      <point x="108" y="1371" type="curve"/>
    </contour>
  </outline>
</glyph>
<glyph name="Germandbls" format="1">
  <advance width="1244"/>
  <unicode hex="1E9E"/>
  <outline>
    <contour>
      <point x="50" y="0" type="line"/>
      <point x="55" y="42" type="line"/>
      <point x="225" y="72" type="line"/>
      <point x="225" y="763" type="line" smooth="yes"/>
      <point x="225" y="1119"/>
      <point x="394" y="1271"/>
      <point x="693" y="1271" type="curve" smooth="yes"/>
      <point x="883" y="1271"/>
      <point x="1130" y="1187"/>
      <point x="1130" y="1062" type="curve" smooth="yes"/>
      <point x="1130" y="1008"/>
      <point x="1102" y="984"/>
      <point x="1047" y="966" type="curve"/>
      <point x="1026" y="1074"/>
      <point x="947" y="1194"/>
      <point x="811" y="1194" type="curve" smooth="yes"/>
      <point x="726" y="1194"/>
      <point x="604" y="1118"/>
      <point x="604" y="964" type="curve" smooth="yes"/>
      <point x="604" y="652"/>
      <point x="1189" y="614"/>
      <point x="1189" y="308" type="curve" smooth="yes"/>
      <point x="1189" y="119"/>
      <point x="1034" y="-26"/>
      <point x="786" y="-26" type="curve" smooth="yes"/>
      <point x="642" y="-26"/>
      <point x="522" y="37"/>
      <point x="458" y="116" type="curve"/>
      <point x="487" y="401" type="line"/>
      <point x="536" y="393" type="line"/>
      <point x="562" y="174" type="line"/>
      <point x="607" y="87"/>
      <point x="726" y="37"/>
      <point x="839" y="37" type="curve" smooth="yes"/>
      <point x="963" y="37"/>
      <point x="1080" y="113"/>
      <point x="1080" y="262" type="curve" smooth="yes"/>
      <point x="1080" y="545"/>
      <point x="506" y="588"/>
      <point x="506" y="918" type="curve" smooth="yes"/>
      <point x="506" y="1034"/>
      <point x="575" y="1180"/>
      <point x="717" y="1213" type="curve"/>
      <point x="718" y="1218" type="line"/>
      <point x="698" y="1221"/>
      <point x="650" y="1221"/>
      <point x="630" y="1221" type="curve" smooth="yes"/>
      <point x="430" y="1221"/>
      <point x="328" y="1043"/>
      <point x="328" y="786" type="curve" smooth="yes"/>
      <point x="328" y="0" type="line"/>
    </contour>
  </outline>
</glyph>
<glyph name="endash" format="1">
  <advance width="750"/>
  <unicode hex="2013"/>
  <outline>
    <contour>
      <point x="66" y="430" type="line"/>
      <point x="78" y="493" type="line"/>
      <point x="687" y="498" type="line"/>
      <point x="678" y="437" type="line"/>
    </contour>
  </outline>
</glyph>
<glyph name="emdash" format="1">
  <advance width="1261"/>
  <unicode hex="2014"/>
  <outline>
    <contour>
      <point x="66" y="430" type="line"/>
      <point x="79" y="493" type="line"/>
      <point x="1198" y="498" type="line"/>
      <point x="1186" y="437" type="line"/>
    </contour>
  </outline>
</glyph>
<glyph name="dagger" format="1">
  <advance width="772"/>
  <unicode hex="2020"/>
  <outline>
    <contour>
      <point x="43" y="734" type="line"/>
      <point x="52" y="810" type="line"/>
      <point x="349" y="803" type="line"/>
      <point x="339" y="1256" type="line"/>
      <point x="433" y="1244" type="line"/>
      <point x="422" y="803" type="line"/>
      <point x="728" y="810" type="line"/>
      <point x="721" y="730" type="line"/>
      <point x="422" y="740" type="line"/>
      <point x="439" y="-363" type="line"/>
      <point x="333" y="-351" type="line"/>
      <point x="349" y="742" type="line"/>
    </contour>
  </outline>
</glyph>
<glyph name="daggerdbl" format="1">
  <advance width="780"/>
  <unicode hex="2021"/>
  <outline>
    <contour>
      <point x="45" y="734" type="line"/>
      <point x="54" y="809" type="line"/>
      <point x="350" y="802" type="line"/>
      <point x="340" y="1256" type="line"/>
      <point x="434" y="1244" type="line"/>
      <point x="423" y="802" type="line"/>
      <point x="728" y="809" type="line"/>
      <point x="720" y="729" type="line"/>
      <point x="423" y="739" type="line"/>
      <point x="415" y="429" type="line"/>
      <point x="423" y="154" type="line"/>
      <point x="734" y="162" type="line"/>
      <point x="728" y="87" type="line"/>
      <point x="423" y="97" type="line"/>
      <point x="429" y="-363" type="line"/>
      <point x="337" y="-353" type="line"/>
      <point x="347" y="97" type="line"/>
      <point x="61" y="87" type="line"/>
      <point x="66" y="169" type="line"/>
      <point x="347" y="157" type="line"/>
      <point x="353" y="498" type="line"/>
      <point x="350" y="740" type="line"/>
    </contour>
  </outline>
</glyph>
<glyph name="fraction" format="1">
  <advance width="1739"/>
  <unicode hex="2044"/>
  <outline>
    <contour>
      <point x="205" y="-43" type="line"/>
      <point x="551" y="588" type="line"/>
      <point x="867" y="1212" type="line"/>
      <point x="964" y="1207" type="line"/>
      <point x="964" y="1206" type="line"/>
      <point x="630" y="591" type="line"/>
      <point x="306" y="-47" type="line"/>
    </contour>
  </outline>
</glyph>
<glyph name="Euro" format="1">
  <advance width="1142"/>
  <unicode hex="20AC"/>
  <outline>
    <contour>
      <point x="48" y="517" type="line"/>
      <point x="49" y="584" type="line"/>
      <point x="845" y="584" type="line"/>
      <point x="832" y="517" type="line"/>
    </contour>
    <contour>
      <point x="54" y="693" type="line"/>
      <point x="56" y="758" type="line"/>
      <point x="891" y="758" type="line"/>
      <point x="878" y="693" type="line"/>
    </contour>
    <contour>
      <point x="224" y="584" type="curve" smooth="yes"/>
      <point x="224" y="961"/>
      <point x="397" y="1271"/>
      <point x="769" y="1271" type="curve" smooth="yes"/>
      <point x="902" y="1271"/>
      <point x="978" y="1244"/>
      <point x="1075" y="1171" type="curve"/>
      <point x="1043" y="834" type="line"/>
      <point x="999" y="842" type="line"/>
      <point x="969" y="1101" type="line"/>
      <point x="929" y="1168"/>
      <point x="878" y="1206"/>
      <point x="765" y="1206" type="curve" smooth="yes"/>
      <point x="493" y="1206"/>
      <point x="347" y="979"/>
      <point x="347" y="616" type="curve" smooth="yes"/>
      <point x="347" y="231"/>
      <point x="510" y="43"/>
      <point x="764" y="43" type="curve" smooth="yes"/>
      <point x="827" y="43"/>
      <point x="918" y="80"/>
      <point x="984" y="172" type="curve"/>
      <point x="1016" y="432" type="line"/>
      <point x="1060" y="438" type="line"/>
      <point x="1091" y="103" type="line"/>
      <point x="973" y="20"/>
      <point x="876" y="-26"/>
      <point x="712" y="-26" type="curve" smooth="yes"/>
      <point x="426" y="-26"/>
      <point x="224" y="215"/>
    </contour>
  </outline>
</glyph>
<glyph name="trademark" format="1">
  <advance width="1131"/>
  <unicode hex="2122"/>
  <outline>
    <contour>
      <point x="620" y="684" type="line"/>
      <point x="622" y="709" type="line"/>
      <point x="697" y="723" type="line"/>
      <point x="735" y="1203" type="line"/>
      <point x="652" y="1218" type="line"/>
      <point x="655" y="1244" type="line"/>
      <point x="819" y="1244" type="line"/>
      <point x="851" y="1159" type="line"/>
      <point x="974" y="794" type="line"/>
      <point x="1133" y="1179" type="line"/>
      <point x="1160" y="1244" type="line"/>
      <point x="1327" y="1244" type="line"/>
      <point x="1325" y="1218" type="line"/>
      <point x="1247" y="1204" type="line"/>
      <point x="1272" y="720" type="line"/>
      <point x="1353" y="712" type="line"/>
      <point x="1352" y="684" type="line"/>
      <point x="1134" y="684" type="line"/>
      <point x="1137" y="709" type="line"/>
      <point x="1214" y="723" type="line"/>
      <point x="1188" y="1200" type="line"/>
      <point x="989" y="713" type="line"/>
      <point x="947" y="709" type="line"/>
      <point x="773" y="1192" type="line"/>
      <point x="738" y="720" type="line"/>
      <point x="819" y="712" type="line"/>
      <point x="816" y="684" type="line"/>
    </contour>
    <contour>
      <point x="87" y="1244" type="line"/>
      <point x="612" y="1244" type="line"/>
      <point x="596" y="1095" type="line"/>
      <point x="554" y="1097" type="line"/>
      <point x="546" y="1211" type="line"/>
      <point x="379" y="1211" type="line"/>
      <point x="379" y="727" type="line"/>
      <point x="459" y="715" type="line"/>
      <point x="454" y="684" type="line"/>
      <point x="230" y="684" type="line"/>
      <point x="232" y="713" type="line"/>
      <point x="311" y="727" type="line"/>
      <point x="311" y="1211" type="line"/>
      <point x="151" y="1211" type="line"/>
      <point x="135" y="1096" type="line"/>
      <point x="92" y="1099" type="line"/>
    </contour>
  </outline>
</glyph>
<glyph name="lozenge" format="1">
  <advance width="940"/>
  <unicode hex="25CA"/>
  <outline>
    <contour>
      <point x="312" y="474" type="line"/>
      <point x="472" y="717" type="line"/>
      <point x="634" y="472" type="line"/>
      <point x="474" y="224" type="line"/>
    </contour>
  </outline>
</glyph>
<glyph name="a.sc" format="1">
  <advance width="986"/>
  <outline>
    <contour>
      <point x="235" y="65" type="line"/>
      <point x="389" y="46" type="line"/>
      <point x="380" y="0" type="line"/>
      <point x="41" y="0" type="line"/>
      <point x="46" y="42" type="line"/>
      <point x="158" y="72" type="line"/>
      <point x="475" y="919.7" type="line"/>
      <point x="528" y="933.7" type="line"/>
      <point x="839" y="66" type="line"/>
      <point x="941" y="47" type="line"/>
      <point x="933" y="1" type="line"/>
      <point x="584" y="1" type="line"/>
      <point x="593" y="43" type="line"/>
      <point x="729" y="73" type="line"/>
      <point x="480" y="763.7" type="line"/>
    </contour>
    <contour>
      <point x="711" y="306" type="line"/>
      <point x="279" y="306" type="line"/>
      <point x="299" y="362" type="line"/>
      <point x="692" y="362" type="line"/>
    </contour>
  </outline>
</glyph>
<glyph name="aacute.sc" format="1">
  <advance width="812"/>
  <outline>
    <contour>
      <point x="444" y="1007" type="line"/>
      <point x="576" y="1344" type="line"/>
      <point x="672" y="1305" type="line"/>
      <point x="489" y="981" type="line"/>
    </contour>
    <contour>
      <point x="201" y="65" type="line"/>
      <point x="355" y="46" type="line"/>
      <point x="346" y="0" type="line"/>
      <point x="7" y="0" type="line"/>
      <point x="12" y="42" type="line"/>
      <point x="124" y="72" type="line"/>
      <point x="441" y="919.7" type="line"/>
      <point x="494" y="933.7" type="line"/>
      <point x="805" y="66" type="line"/>
      <point x="907" y="47" type="line"/>
      <point x="899" y="1" type="line"/>
      <point x="550" y="1" type="line"/>
      <point x="559" y="43" type="line"/>
      <point x="695" y="73" type="line"/>
      <point x="446" y="763.7" type="line"/>
    </contour>
    <contour>
      <point x="677" y="306" type="line"/>
      <point x="245" y="306" type="line"/>
      <point x="265" y="362" type="line"/>
      <point x="658" y="362" type="line"/>
    </contour>
  </outline>
</glyph>
<glyph name="acircumflex.sc" format="1">
  <advance width="812"/>
  <outline>
    <contour>
      <point x="288" y="1011" type="line"/>
      <point x="455" y="1192" type="line"/>
      <point x="509" y="1205" type="line"/>
      <point x="688" y="1019" type="line"/>
      <point x="656" y="982" type="line"/>
      <point x="475" y="1117" type="line"/>
      <point x="466" y="1117" type="line"/>
      <point x="309" y="981" type="line"/>
    </contour>
    <contour>
      <point x="202" y="65" type="line"/>
      <point x="356" y="46" type="line"/>
      <point x="347" y="0" type="line"/>
      <point x="8" y="0" type="line"/>
      <point x="13" y="42" type="line"/>
      <point x="125" y="72" type="line"/>
      <point x="442" y="919.7" type="line"/>
      <point x="495" y="933.7" type="line"/>
      <point x="806" y="66" type="line"/>
      <point x="908" y="47" type="line"/>
      <point x="900" y="1" type="line"/>
      <point x="551" y="1" type="line"/>
      <point x="560" y="43" type="line"/>
      <point x="696" y="73" type="line"/>
      <point x="447" y="763.7" type="line"/>
    </contour>
    <contour>
      <point x="678" y="306" type="line"/>
      <point x="246" y="306" type="line"/>
      <point x="266" y="362" type="line"/>
      <point x="659" y="362" type="line"/>
    </contour>
  </outline>
</glyph>
<glyph name="ae.sc" format="1">
  <advance width="1714"/>
  <outline>
    <contour>
      <point x="1314" y="0" type="line"/>
      <point x="568" y="0" type="line"/>
      <point x="574" y="42" type="line"/>
      <point x="737" y="72" type="line"/>
      <point x="740" y="762.7" type="line"/>
      <point x="280" y="66" type="line"/>
      <point x="434" y="48" type="line"/>
      <point x="424" y="3" type="line"/>
      <point x="73" y="3" type="line"/>
      <point x="77" y="43" type="line"/>
      <point x="190" y="73" type="line"/>
      <point x="716" y="849.7" type="line"/>
      <point x="533" y="874.7" type="line"/>
      <point x="539" y="913.7" type="line"/>
      <point x="1299" y="913.7" type="line"/>
      <point x="1268" y="644.7" type="line"/>
      <point x="1222" y="650.7" type="line"/>
      <point x="1213" y="862.7" type="line"/>
      <point x="845" y="862.7" type="line"/>
      <point x="845" y="477" type="line"/>
      <point x="1096" y="477" type="line"/>
      <point x="1124" y="566" type="line"/>
      <point x="1178" y="574" type="line"/>
      <point x="1145" y="305" type="line"/>
      <point x="1094" y="296" type="line"/>
      <point x="1087" y="423" type="line"/>
      <point x="845" y="423" type="line"/>
      <point x="845" y="54" type="line"/>
      <point x="1239" y="54" type="line"/>
      <point x="1293" y="273" type="line"/>
      <point x="1334" y="263" type="line"/>
    </contour>
    <contour>
      <point x="747" y="338" type="line"/>
      <point x="432" y="338" type="line"/>
      <point x="470" y="398" type="line"/>
      <point x="750" y="398" type="line"/>
    </contour>
  </outline>
</glyph>
<glyph name="ampersand.sc" format="1">
  <advance width="974"/>
  <outline>
    <contour>
      <point x="50" y="180" type="curve" smooth="yes"/>
      <point x="50" y="445"/>
      <point x="511" y="479"/>
      <point x="511" y="725.7" type="curve" smooth="yes"/>
      <point x="511" y="804.7"/>
      <point x="462" y="879.7"/>
      <point x="369" y="879.7" type="curve" smooth="yes"/>
      <point x="293" y="879.7"/>
      <point x="239" y="832.447"/>
      <point x="239" y="757.7" type="curve" smooth="yes"/>
      <point x="239" y="662.1"/>
      <point x="314.876" y="575.476"/>
      <point x="412" y="468" type="curve" smooth="yes"/>
      <point x="594" y="269" type="line" smooth="yes"/>
      <point x="741" y="109"/>
      <point x="793" y="73"/>
      <point x="880" y="47" type="curve" smooth="yes"/>
      <point x="927" y="34" type="line"/>
      <point x="921" y="-3" type="line"/>
      <point x="878" y="-18"/>
      <point x="863" y="-20"/>
      <point x="826" y="-20" type="curve" smooth="yes"/>
      <point x="771" y="-20"/>
      <point x="695" y="0"/>
      <point x="597" y="109" type="curve" smooth="yes"/>
      <point x="293" y="446" type="line" smooth="yes"/>
      <point x="222.644" y="523.993"/>
      <point x="151" y="617.249"/>
      <point x="151" y="712.7" type="curve" smooth="yes"/>
      <point x="151" y="823.7"/>
      <point x="261" y="933.7"/>
      <point x="388" y="933.7" type="curve" smooth="yes"/>
      <point x="526" y="933.7"/>
      <point x="605" y="851.7"/>
      <point x="605" y="751.7" type="curve" smooth="yes"/>
      <point x="605" y="483.995"/>
      <point x="164" y="461"/>
      <point x="164" y="216" type="curve" smooth="yes"/>
      <point x="164" y="108.698"/>
      <point x="230" y="47"/>
      <point x="332" y="47" type="curve" smooth="yes"/>
      <point x="478" y="47"/>
      <point x="608" y="178"/>
      <point x="725" y="420" type="curve"/>
      <point x="601" y="450" type="line"/>
      <point x="604" y="483" type="line"/>
      <point x="945" y="483" type="line"/>
      <point x="941" y="450" type="line"/>
      <point x="800" y="423" type="line"/>
      <point x="656" y="160"/>
      <point x="540" y="-20"/>
      <point x="291" y="-20" type="curve" smooth="yes"/>
      <point x="113" y="-20"/>
      <point x="50" y="87.2671"/>
    </contour>
  </outline>
</glyph>
<glyph name="atilde.sc" format="1">
  <advance width="986"/>
  <outline>
    <contour>
      <point x="235" y="65" type="line"/>
      <point x="389" y="46" type="line"/>
      <point x="380" y="0" type="line"/>
      <point x="41" y="0" type="line"/>
      <point x="46" y="42" type="line"/>
      <point x="158" y="72" type="line"/>
      <point x="475" y="919.7" type="line"/>
      <point x="528" y="933.7" type="line"/>
      <point x="839" y="66" type="line"/>
      <point x="941" y="47" type="line"/>
      <point x="933" y="1" type="line"/>
      <point x="584" y="1" type="line"/>
      <point x="593" y="43" type="line"/>
      <point x="729" y="73" type="line"/>
      <point x="480" y="763.7" type="line"/>
    </contour>
    <contour>
      <point x="711" y="306" type="line"/>
      <point x="279" y="306" type="line"/>
      <point x="299" y="362" type="line"/>
      <point x="692" y="362" type="line"/>
    </contour>
    <contour>
      <point x="290.5" y="1063.7" type="line"/>
      <point x="322.5" y="1224.7"/>
      <point x="417.277" y="1236.28"/>
      <point x="489.5" y="1195.9" type="curve" smooth="yes"/>
      <point x="562.5" y="1155.07" type="line" smooth="yes"/>
      <point x="630.645" y="1116.96"/>
      <point x="685.5" y="1094.7"/>
      <point x="728.5" y="1215.7" type="curve"/>
      <point x="760.5" y="1207.7" type="line"/>
      <point x="731.5" y="1063.7"/>
      <point x="652.373" y="1025.29"/>
      <point x="560.5" y="1075.92" type="curve" smooth="yes"/>
      <point x="488.5" y="1115.6" type="line" smooth="yes"/>
      <point x="422.943" y="1151.73"/>
      <point x="367.5" y="1181.7"/>
      <point x="321.5" y="1055.7" type="curve"/>
    </contour>
  </outline>
</glyph>
<glyph name="b.sc" format="1">
  <advance width="837"/>
  <outline>
    <contour>
      <point x="45" y="0" type="line"/>
      <point x="53" y="42" type="line"/>
      <point x="192" y="72" type="line"/>
      <point x="192" y="849.7" type="line"/>
      <point x="50" y="865.7" type="line"/>
      <point x="60" y="901.7" type="line"/>
      <point x="130" y="913.7"/>
      <point x="261.752" y="937.7"/>
      <point x="396" y="937.7" type="curve" smooth="yes"/>
      <point x="616.602" y="937.7"/>
      <point x="729" y="849.33"/>
      <point x="729" y="726" type="curve" smooth="yes"/>
      <point x="729" y="616.79"/>
      <point x="667" y="540.151"/>
      <point x="576" y="498" type="curve"/>
      <point x="576" y="492" type="line"/>
      <point x="712" y="476.249"/>
      <point x="798" y="377.814"/>
      <point x="798" y="282.3" type="curve" smooth="yes"/>
      <point x="798" y="103.339"/>
      <point x="662" y="0"/>
      <point x="363" y="0" type="curve" smooth="yes"/>
    </contour>
    <contour>
      <point x="293" y="54" type="line"/>
      <point x="402" y="54" type="line" smooth="yes"/>
      <point x="629.606" y="54"/>
      <point x="692" y="132"/>
      <point x="692" y="259.3" type="curve" smooth="yes"/>
      <point x="692" y="343"/>
      <point x="638.812" y="451"/>
      <point x="462" y="451" type="curve" smooth="yes"/>
      <point x="293" y="451" type="line"/>
    </contour>
    <contour>
      <point x="293" y="500" type="line"/>
      <point x="516" y="500" type="line"/>
      <point x="572" y="530.416"/>
      <point x="627" y="563.683"/>
      <point x="627" y="692" type="curve" smooth="yes"/>
      <point x="627" y="827.239"/>
      <point x="514.838" y="892.7"/>
      <point x="338" y="892.7" type="curve" smooth="yes"/>
      <point x="328.41" y="892.7"/>
      <point x="302.959" y="892.7"/>
      <point x="293" y="886.7" type="curve"/>
    </contour>
  </outline>
</glyph>
<glyph name="c.sc" format="1">
  <advance width="789"/>
  <outline>
    <contour>
      <point x="47" y="426" type="curve" smooth="yes"/>
      <point x="47" y="682"/>
      <point x="187.036" y="933.7"/>
      <point x="485" y="933.7" type="curve" smooth="yes"/>
      <point x="572.623" y="933.7"/>
      <point x="645.094" y="917.5"/>
      <point x="709" y="873.7" type="curve"/>
      <point x="678" y="626.7" type="line"/>
      <point x="631" y="634.7" type="line"/>
      <point x="621" y="803.7" type="line"/>
      <point x="590.828" y="842.648"/>
      <point x="542.291" y="877.7"/>
      <point x="438" y="877.7" type="curve" smooth="yes"/>
      <point x="286.463" y="877.7"/>
      <point x="153" y="743.778"/>
      <point x="153" y="462" type="curve" smooth="yes"/>
      <point x="153" y="195.311"/>
      <point x="267.931" y="42"/>
      <point x="471" y="42" type="curve" smooth="yes"/>
      <point x="576.926" y="42"/>
      <point x="674.598" y="86.1904"/>
      <point x="731" y="129" type="curve"/>
      <point x="754" y="102" type="line"/>
      <point x="707.349" y="50.1377"/>
      <point x="582.946" y="-26"/>
      <point x="423" y="-26" type="curve" smooth="yes"/>
      <point x="197.841" y="-26"/>
      <point x="47" y="151.087"/>
    </contour>
  </outline>
</glyph>
<glyph name="ccedilla.sc" format="1">
  <advance width="743"/>
  <outline>
    <contour>
      <point x="321" y="-347" type="line"/>
      <point x="379" y="-327"/>
      <point x="439" y="-276"/>
      <point x="439" y="-247" type="curve" smooth="yes"/>
      <point x="439" y="-182"/>
      <point x="389" y="-154"/>
      <point x="353" y="-118" type="curve"/>
      <point x="438" y="3" type="line"/>
      <point x="497" y="3" type="line"/>
      <point x="442" y="-76" type="line"/>
      <point x="479" y="-109"/>
      <point x="531" y="-161"/>
      <point x="531" y="-227" type="curve" smooth="yes"/>
      <point x="531" y="-306"/>
      <point x="450" y="-354"/>
      <point x="332" y="-390" type="curve"/>
    </contour>
    <contour>
      <point x="24" y="426" type="curve" smooth="yes"/>
      <point x="24" y="682"/>
      <point x="164.036" y="933.7"/>
      <point x="462" y="933.7" type="curve" smooth="yes"/>
      <point x="549.623" y="933.7"/>
      <point x="622.094" y="917.5"/>
      <point x="686" y="873.7" type="curve"/>
      <point x="655" y="626.7" type="line"/>
      <point x="608" y="634.7" type="line"/>
      <point x="598" y="803.7" type="line"/>
      <point x="567.828" y="842.648"/>
      <point x="519.291" y="877.7"/>
      <point x="415" y="877.7" type="curve" smooth="yes"/>
      <point x="263.463" y="877.7"/>
      <point x="130" y="743.778"/>
      <point x="130" y="462" type="curve" smooth="yes"/>
      <point x="130" y="195.311"/>
      <point x="244.931" y="42"/>
      <point x="448" y="42" type="curve" smooth="yes"/>
      <point x="553.926" y="42"/>
      <point x="651.598" y="86.1904"/>
      <point x="708" y="129" type="curve"/>
      <point x="731" y="102" type="line"/>
      <point x="684.349" y="50.1377"/>
      <point x="559.946" y="-26"/>
      <point x="400" y="-26" type="curve" smooth="yes"/>
      <point x="174.841" y="-26"/>
      <point x="24" y="151.087"/>
    </contour>
  </outline>
</glyph>
<glyph name="d.sc" format="1">
  <advance width="937"/>
  <outline>
    <contour>
      <point x="44" y="0" type="line"/>
      <point x="52" y="42" type="line"/>
      <point x="191" y="72" type="line"/>
      <point x="191" y="837.7" type="line"/>
      <point x="49" y="859.7" type="line"/>
      <point x="59" y="895.7" type="line"/>
      <point x="209.867" y="920.242"/>
      <point x="310.19" y="933.7"/>
      <point x="422" y="933.7" type="curve" smooth="yes"/>
      <point x="786.727" y="933.7"/>
      <point x="894" y="715.985"/>
      <point x="894" y="497" type="curve" smooth="yes"/>
      <point x="894" y="163"/>
      <point x="650" y="2.76256e-05"/>
      <point x="334" y="0" type="curve" smooth="yes"/>
    </contour>
    <contour>
      <point x="292" y="54" type="line"/>
      <point x="381" y="54" type="line" smooth="yes"/>
      <point x="655.224" y="54"/>
      <point x="797" y="209"/>
      <point x="797" y="461" type="curve" smooth="yes"/>
      <point x="797" y="732.908"/>
      <point x="646.421" y="879.7"/>
      <point x="385" y="879.7" type="curve" smooth="yes"/>
      <point x="362.552" y="879.7"/>
      <point x="311.19" y="877"/>
      <point x="292" y="875.7" type="curve"/>
    </contour>
  </outline>
</glyph>
<glyph name="dollar.osf" format="1">
  <advance width="641"/>
  <outline>
    <contour>
      <point x="44" y="134" type="curve" smooth="yes"/>
      <point x="44" y="179.188"/>
      <point x="66.5791" y="212.743"/>
      <point x="122" y="217" type="curve"/>
      <point x="148.479" y="76.4785"/>
      <point x="222.825" y="15"/>
      <point x="343" y="15" type="curve" smooth="yes"/>
      <point x="443" y="15"/>
      <point x="509" y="73"/>
      <point x="509" y="152" type="curve" smooth="yes"/>
      <point x="509" y="328"/>
      <point x="96" y="392.557"/>
      <point x="96" y="652" type="curve" smooth="yes"/>
      <point x="96" y="780.396"/>
      <point x="204" y="899"/>
      <point x="360" y="899" type="curve" smooth="yes"/>
      <point x="491.797" y="899"/>
      <point x="580" y="817.945"/>
      <point x="580" y="736" type="curve" smooth="yes"/>
      <point x="580" y="673.079"/>
      <point x="538.743" y="658.696"/>
      <point x="504" y="656" type="curve"/>
      <point x="479.865" y="781.427"/>
      <point x="404.521" y="851"/>
      <point x="325" y="851" type="curve" smooth="yes"/>
      <point x="240.685" y="851"/>
      <point x="181" y="799.197"/>
      <point x="181" y="698" type="curve" smooth="yes"/>
      <point x="181" y="474.814"/>
      <point x="599" y="419.58"/>
      <point x="599" y="199" type="curve" smooth="yes"/>
      <point x="599" y="70"/>
      <point x="483" y="-36"/>
      <point x="300" y="-36" type="curve" smooth="yes"/>
      <point x="163.272" y="-36"/>
      <point x="44" y="33.1123"/>
    </contour>
    <contour>
      <point x="277" y="-197" type="line"/>
      <point x="289" y="-15" type="line"/>
      <point x="380" y="-6" type="line"/>
      <point x="392" y="-179" type="line"/>
    </contour>
    <contour>
      <point x="280" y="1042" type="line"/>
      <point x="392" y="1060" type="line"/>
      <point x="380" y="891" type="line"/>
      <point x="296" y="891" type="line"/>
    </contour>
  </outline>
</glyph>
<glyph name="e.sc" format="1">
  <advance width="864"/>
  <outline>
    <contour>
      <point x="50" y="871.7" type="line"/>
      <point x="57" y="913.7" type="line"/>
      <point x="790" y="913.7" type="line"/>
      <point x="759" y="644.7" type="line"/>
      <point x="713" y="650.7" type="line"/>
      <point x="704" y="862.7" type="line"/>
      <point x="303" y="862.7" type="line"/>
      <point x="303" y="477" type="line"/>
      <point x="587" y="477" type="line"/>
      <point x="615" y="566" type="line"/>
      <point x="669" y="574" type="line"/>
      <point x="636" y="305" type="line"/>
      <point x="585" y="296" type="line"/>
      <point x="578" y="423" type="line"/>
      <point x="303" y="423" type="line"/>
      <point x="303" y="54" type="line"/>
      <point x="730" y="54" type="line"/>
      <point x="784" y="273" type="line"/>
      <point x="825" y="263" type="line"/>
      <point x="805" y="0" type="line"/>
      <point x="53" y="0" type="line"/>
      <point x="59" y="42" type="line"/>
      <point x="199" y="72" type="line"/>
      <point x="199" y="844.7" type="line"/>
    </contour>
  </outline>
</glyph>
<glyph name="ecircumflex.sc" format="1">
  <advance width="740"/>
  <outline>
    <contour>
      <point x="240" y="1011" type="line"/>
      <point x="407" y="1192" type="line"/>
      <point x="461" y="1205" type="line"/>
      <point x="640" y="1019" type="line"/>
      <point x="608" y="982" type="line"/>
      <point x="427" y="1117" type="line"/>
      <point x="418" y="1117" type="line"/>
      <point x="261" y="981" type="line"/>
    </contour>
    <contour>
      <point x="27" y="871.7" type="line"/>
      <point x="34" y="913.7" type="line"/>
      <point x="767" y="913.7" type="line"/>
      <point x="736" y="644.7" type="line"/>
      <point x="690" y="650.7" type="line"/>
      <point x="681" y="862.7" type="line"/>
      <point x="280" y="862.7" type="line"/>
      <point x="280" y="477" type="line"/>
      <point x="564" y="477" type="line"/>
      <point x="592" y="566" type="line"/>
      <point x="646" y="574" type="line"/>
      <point x="613" y="305" type="line"/>
      <point x="562" y="296" type="line"/>
      <point x="555" y="423" type="line"/>
      <point x="280" y="423" type="line"/>
      <point x="280" y="54" type="line"/>
      <point x="707" y="54" type="line"/>
      <point x="761" y="273" type="line"/>
      <point x="802" y="263" type="line"/>
      <point x="782" y="0" type="line"/>
      <point x="30" y="0" type="line"/>
      <point x="36" y="42" type="line"/>
      <point x="176" y="72" type="line"/>
      <point x="176" y="844.7" type="line"/>
    </contour>
  </outline>
</glyph>
<glyph name="edieresis.sc" format="1">
  <advance width="740"/>
  <outline>
    <contour>
      <point x="237" y="1062" type="curve" smooth="yes"/>
      <point x="237" y="1112"/>
      <point x="253" y="1140"/>
      <point x="292" y="1140" type="curve" smooth="yes"/>
      <point x="329" y="1140"/>
      <point x="350" y="1113"/>
      <point x="350" y="1062" type="curve" smooth="yes"/>
      <point x="350" y="1009"/>
      <point x="336" y="981"/>
      <point x="294" y="981" type="curve" smooth="yes"/>
      <point x="252" y="981"/>
      <point x="237" y="1011"/>
    </contour>
    <contour>
      <point x="506" y="1062" type="curve" smooth="yes"/>
      <point x="506" y="1112"/>
      <point x="521" y="1140"/>
      <point x="560" y="1140" type="curve" smooth="yes"/>
      <point x="597" y="1140"/>
      <point x="618" y="1113"/>
      <point x="618" y="1062" type="curve" smooth="yes"/>
      <point x="618" y="1009"/>
      <point x="603" y="981"/>
      <point x="561" y="981" type="curve" smooth="yes"/>
      <point x="519" y="981"/>
      <point x="506" y="1011"/>
    </contour>
    <contour>
      <point x="27" y="871.7" type="line"/>
      <point x="34" y="913.7" type="line"/>
      <point x="767" y="913.7" type="line"/>
      <point x="736" y="644.7" type="line"/>
      <point x="690" y="650.7" type="line"/>
      <point x="681" y="862.7" type="line"/>
      <point x="280" y="862.7" type="line"/>
      <point x="280" y="477" type="line"/>
      <point x="564" y="477" type="line"/>
      <point x="592" y="566" type="line"/>
      <point x="646" y="574" type="line"/>
      <point x="613" y="305" type="line"/>
      <point x="562" y="296" type="line"/>
      <point x="555" y="423" type="line"/>
      <point x="280" y="423" type="line"/>
      <point x="280" y="54" type="line"/>
      <point x="707" y="54" type="line"/>
      <point x="761" y="273" type="line"/>
      <point x="802" y="263" type="line"/>
      <point x="782" y="0" type="line"/>
      <point x="30" y="0" type="line"/>
      <point x="36" y="42" type="line"/>
      <point x="176" y="72" type="line"/>
      <point x="176" y="844.7" type="line"/>
    </contour>
  </outline>
</glyph>
<glyph name="euro.osf" format="1">
  <advance width="896"/>
  <outline>
    <contour>
      <point x="174" y="426" type="curve" smooth="yes"/>
      <point x="174" y="682"/>
      <point x="310.839" y="933.7"/>
      <point x="602" y="933.7" type="curve" smooth="yes"/>
      <point x="689.623" y="933.7"/>
      <point x="762.094" y="917.5"/>
      <point x="826" y="873.7" type="curve"/>
      <point x="795" y="626.7" type="line"/>
      <point x="748" y="634.7" type="line"/>
      <point x="738" y="803.7" type="line"/>
      <point x="709" y="847"/>
      <point x="654.99" y="877.7"/>
      <point x="545" y="877.7" type="curve" smooth="yes"/>
      <point x="415.795" y="877.7"/>
      <point x="302" y="743.778"/>
      <point x="302" y="462" type="curve" smooth="yes"/>
      <point x="302" y="196.58"/>
      <point x="408.98" y="44"/>
      <point x="598" y="44" type="curve" smooth="yes"/>
      <point x="714" y="44"/>
      <point x="785.937" y="92.2541"/>
      <point x="838" y="139" type="curve"/>
      <point x="861" y="102" type="line"/>
      <point x="817.168" y="50.1377"/>
      <point x="736" y="-26"/>
      <point x="550" y="-26" type="curve" smooth="yes"/>
      <point x="324.841" y="-26"/>
      <point x="174" y="151.087"/>
    </contour>
    <contour>
      <point x="34" y="318" type="line"/>
      <point x="42" y="385" type="line"/>
      <point x="612" y="385" type="line"/>
      <point x="599" y="318" type="line"/>
    </contour>
    <contour>
      <point x="42" y="469" type="line"/>
      <point x="49" y="534" type="line"/>
      <point x="645" y="534" type="line"/>
      <point x="633" y="469" type="line"/>
    </contour>
  </outline>
</glyph>
<glyph name="f.sc" format="1">
  <advance width="838"/>
  <outline>
    <contour>
      <point x="50" y="871.7" type="line"/>
      <point x="57" y="913.7" type="line"/>
      <point x="787" y="913.7" type="line"/>
      <point x="754" y="642.7" type="line"/>
      <point x="705" y="650.7" type="line"/>
      <point x="694" y="862.7" type="line"/>
      <point x="300" y="862.7" type="line"/>
      <point x="300" y="450" type="line"/>
      <point x="577" y="450" type="line"/>
      <point x="604" y="549" type="line"/>
      <point x="657" y="556" type="line"/>
      <point x="626" y="271" type="line"/>
      <point x="574" y="263" type="line"/>
      <point x="566" y="397" type="line"/>
      <point x="300" y="397" type="line"/>
      <point x="300" y="70" type="line"/>
      <point x="496" y="53" type="line"/>
      <point x="484" y="0" type="line"/>
      <point x="54" y="0" type="line"/>
      <point x="57" y="42" type="line"/>
      <point x="197" y="72" type="line"/>
      <point x="197" y="844.7" type="line"/>
    </contour>
  </outline>
</glyph>
<glyph name="four.osf" format="1">
  <advance width="954"/>
  <outline>
    <contour>
      <point x="42" y="154" type="line"/>
      <point x="644" y="969" type="line"/>
      <point x="678" y="958" type="line"/>
      <point x="671" y="840"/>
      <point x="667" y="658"/>
      <point x="667" y="476" type="curve" smooth="yes"/>
      <point x="667" y="200" type="line"/>
      <point x="872" y="200" type="line"/>
      <point x="857" y="125" type="line"/>
      <point x="667" y="125" type="line"/>
      <point x="667" y="-271" type="line"/>
      <point x="562" y="-297" type="line"/>
      <point x="562" y="127" type="line"/>
      <point x="57" y="127" type="line"/>
    </contour>
    <contour>
      <point x="158" y="200" type="line"/>
      <point x="558" y="200" type="line"/>
      <point x="558" y="751" type="line"/>
    </contour>
  </outline>
</glyph>
<glyph name="g.sc" format="1">
  <advance width="966"/>
  <outline>
    <contour>
      <point x="529.988" y="933.7" type="curve" smooth="yes"/>
      <point x="631.735" y="933.7"/>
      <point x="748.782" y="913.23"/>
      <point x="822.988" y="861.7" type="curve"/>
      <point x="792.988" y="603.7" type="line"/>
      <point x="747.988" y="608.7" type="line"/>
      <point x="736.988" y="784.7" type="line"/>
      <point x="699.594" y="831.7"/>
      <point x="614.241" y="878.7"/>
      <point x="484.988" y="878.7" type="curve" smooth="yes"/>
      <point x="280.002" y="878.7"/>
      <point x="155.988" y="701.597"/>
      <point x="155.988" y="470" type="curve" smooth="yes"/>
      <point x="155.988" y="255.953"/>
      <point x="244.581" y="36"/>
      <point x="501.988" y="36" type="curve" smooth="yes"/>
      <point x="580.542" y="36"/>
      <point x="659.096" y="50.2469"/>
      <point x="723.988" y="88" type="curve"/>
      <point x="723.988" y="325" type="line"/>
      <point x="512.988" y="350" type="line"/>
      <point x="518.988" y="389" type="line"/>
      <point x="928.988" y="389" type="line"/>
      <point x="921.988" y="350" type="line"/>
      <point x="827.988" y="329" type="line"/>
      <point x="827.988" y="39" type="line"/>
      <point x="753" y="12"/>
      <point x="615.435" y="-20"/>
      <point x="457.988" y="-20" type="curve" smooth="yes"/>
      <point x="223.256" y="-20"/>
      <point x="46" y="138"/>
      <point x="46" y="421.021" type="curve" smooth="yes"/>
      <point x="46" y="700.559"/>
      <point x="246.553" y="933.7"/>
    </contour>
  </outline>
</glyph>
<glyph name="germandbls.sc.alt" format="1">
  <advance width="1031"/>
  <outline>
    <contour>
      <point x="999" y="215" type="curve" smooth="yes"/>
      <point x="999" y="78.626"/>
      <point x="861.693" y="-26"/>
      <point x="642" y="-26" type="curve" smooth="yes"/>
      <point x="550" y="-26"/>
      <point x="460" y="8"/>
      <point x="412" y="49" type="curve"/>
      <point x="441" y="294" type="line"/>
      <point x="490" y="286" type="line"/>
      <point x="506" y="107" type="line"/>
      <point x="536.704" y="62.5479"/>
      <point x="617.899" y="37"/>
      <point x="695" y="37" type="curve" smooth="yes"/>
      <point x="795.332" y="37"/>
      <point x="890" y="81.5869"/>
      <point x="890" y="169" type="curve" smooth="yes"/>
      <point x="890" y="285"/>
      <point x="687" y="384.916"/>
      <point x="576" y="449" type="curve"/>
      <point x="555" y="490" type="line"/>
      <point x="829" y="820.7" type="line"/>
      <point x="829" y="823.7" type="line"/>
      <point x="784.874" y="849"/>
      <point x="700.378" y="883.7"/>
      <point x="568" y="883.7" type="curve" smooth="yes"/>
      <point x="374.622" y="883.7"/>
      <point x="276" y="762"/>
      <point x="276" y="555" type="curve" smooth="yes"/>
      <point x="276" y="0" type="line"/>
      <point x="28" y="0" type="line"/>
      <point x="33" y="42" type="line"/>
      <point x="173" y="72" type="line"/>
      <point x="173" y="532" type="line" smooth="yes"/>
      <point x="173" y="813.507"/>
      <point x="344" y="933.7"/>
      <point x="621" y="933.7" type="curve" smooth="yes"/>
      <point x="753.38" y="933.7"/>
      <point x="890" y="900"/>
      <point x="936" y="875.7" type="curve"/>
      <point x="936" y="834.7" type="line"/>
      <point x="679" y="523" type="line"/>
      <point x="783" y="467"/>
      <point x="999" y="362.427"/>
    </contour>
  </outline>
</glyph>
<glyph name="germandbls.sc" format="1">
  <advance width="1037"/>
  <outline>
    <contour>
      <point x="29" y="0" type="line"/>
      <point x="34" y="42" type="line"/>
      <point x="184" y="72" type="line"/>
      <point x="184" y="529" type="line" smooth="yes"/>
      <point x="184" y="812.608"/>
      <point x="382.558" y="933.7"/>
      <point x="648.999" y="933.7" type="curve" smooth="yes"/>
      <point x="649" y="933.7" type="line" smooth="yes"/>
      <point x="804" y="933.7"/>
      <point x="955" y="882.495"/>
      <point x="955" y="782.7" type="curve" smooth="yes"/>
      <point x="955" y="735.265"/>
      <point x="913.195" y="708.046"/>
      <point x="868" y="707.7" type="curve"/>
      <point x="851.627" y="790.737"/>
      <point x="806.979" y="883"/>
      <point x="684" y="883" type="curve" smooth="yes"/>
      <point x="596.051" y="883"/>
      <point x="530.49" y="827.661"/>
      <point x="530.49" y="731.865" type="curve" smooth="yes"/>
      <point x="530.49" y="482"/>
      <point x="1004" y="492"/>
      <point x="1004" y="236" type="curve" smooth="yes"/>
      <point x="1004" y="87.7428"/>
      <point x="870.539" y="-26"/>
      <point x="657" y="-26" type="curve" smooth="yes"/>
      <point x="561" y="-26"/>
      <point x="467.087" y="8"/>
      <point x="417" y="49" type="curve"/>
      <point x="446" y="294" type="line"/>
      <point x="495" y="286" type="line"/>
      <point x="511" y="107" type="line"/>
      <point x="543.329" y="62.5479"/>
      <point x="604" y="37"/>
      <point x="710" y="37" type="curve" smooth="yes"/>
      <point x="805.187" y="37"/>
      <point x="895" y="85.3025"/>
      <point x="895" y="180" type="curve" smooth="yes"/>
      <point x="895" y="398"/>
      <point x="432" y="390.302"/>
      <point x="430.969" y="664.539" type="curve" smooth="yes"/>
      <point x="430.497" y="789.34"/>
      <point x="508.791" y="867.164"/>
      <point x="575" y="891.7" type="curve"/>
      <point x="575" y="895.7" type="line"/>
      <point x="392" y="870"/>
      <point x="287" y="794"/>
      <point x="287" y="552" type="curve" smooth="yes"/>
      <point x="287" y="0" type="line"/>
    </contour>
  </outline>
</glyph>
<glyph name="h.sc" format="1">
  <advance width="1105"/>
  <outline>
    <contour>
      <point x="49" y="874.7" type="line"/>
      <point x="52" y="913.7" type="line"/>
      <point x="448" y="913.7" type="line"/>
      <point x="443" y="874.7" type="line"/>
      <point x="304" y="851.7" type="line"/>
      <point x="304" y="486" type="line"/>
      <point x="795" y="486" type="line"/>
      <point x="795" y="849.7" type="line"/>
      <point x="641" y="874.7" type="line"/>
      <point x="648" y="913.7" type="line"/>
      <point x="1043" y="913.7" type="line"/>
      <point x="1035" y="874.7" type="line"/>
      <point x="898" y="851.7" type="line"/>
      <point x="898" y="65" type="line"/>
      <point x="1051" y="46" type="line"/>
      <point x="1044" y="0" type="line"/>
      <point x="651" y="0" type="line"/>
      <point x="659" y="42" type="line"/>
      <point x="795" y="72" type="line"/>
      <point x="795" y="426" type="line"/>
      <point x="304" y="426" type="line"/>
      <point x="304" y="65" type="line"/>
      <point x="460" y="46" type="line"/>
      <point x="449" y="0" type="line"/>
      <point x="57" y="0" type="line"/>
      <point x="62" y="42" type="line"/>
      <point x="199" y="72" type="line"/>
      <point x="199" y="849.7" type="line"/>
    </contour>
  </outline>
</glyph>
<glyph name="i.sc" format="1">
  <advance width="512"/>
  <outline>
    <contour>
      <point x="47" y="874.7" type="line"/>
      <point x="53" y="913.7" type="line"/>
      <point x="450" y="913.7" type="line"/>
      <point x="443" y="874.7" type="line"/>
      <point x="298" y="851.7" type="line"/>
      <point x="298" y="65" type="line"/>
      <point x="461" y="46" type="line"/>
      <point x="452" y="0" type="line"/>
      <point x="57" y="0" type="line"/>
      <point x="62" y="42" type="line"/>
      <point x="190" y="72" type="line"/>
      <point x="190" y="849.7" type="line"/>
    </contour>
  </outline>
</glyph>
<glyph name="iacute.sc" format="1">
  <advance width="512"/>
  <outline>
    <contour>
      <point x="47" y="874.7" type="line"/>
      <point x="53" y="913.7" type="line"/>
      <point x="450" y="913.7" type="line"/>
      <point x="443" y="874.7" type="line"/>
      <point x="298" y="851.7" type="line"/>
      <point x="298" y="65" type="line"/>
      <point x="461" y="46" type="line"/>
      <point x="452" y="0" type="line"/>
      <point x="57" y="0" type="line"/>
      <point x="62" y="42" type="line"/>
      <point x="190" y="72" type="line"/>
      <point x="190" y="849.7" type="line"/>
    </contour>
    <contour>
      <point x="206.5" y="1006.7" type="line"/>
      <point x="338.5" y="1343.7" type="line"/>
      <point x="434.5" y="1304.7" type="line"/>
      <point x="251.5" y="980.7" type="line"/>
    </contour>
  </outline>
</glyph>
<glyph name="icircumflex.sc" format="1">
  <advance width="512"/>
  <outline>
    <contour>
      <point x="47" y="874.7" type="line"/>
      <point x="53" y="913.7" type="line"/>
      <point x="450" y="913.7" type="line"/>
      <point x="443" y="874.7" type="line"/>
      <point x="298" y="851.7" type="line"/>
      <point x="298" y="65" type="line"/>
      <point x="461" y="46" type="line"/>
      <point x="452" y="0" type="line"/>
      <point x="57" y="0" type="line"/>
      <point x="62" y="42" type="line"/>
      <point x="190" y="72" type="line"/>
      <point x="190" y="849.7" type="line"/>
    </contour>
    <contour>
      <point x="51.5" y="1006.7" type="line"/>
      <point x="218.5" y="1187.7" type="line"/>
      <point x="272.5" y="1200.7" type="line"/>
      <point x="451.5" y="1014.7" type="line"/>
      <point x="419.5" y="977.7" type="line"/>
      <point x="238.5" y="1112.7" type="line"/>
      <point x="229.5" y="1112.7" type="line"/>
      <point x="72.5" y="976.7" type="line"/>
    </contour>
  </outline>
</glyph>
<glyph name="idieresis.sc" format="1">
  <advance width="512"/>
  <outline>
    <contour>
      <point x="47" y="874.7" type="line"/>
      <point x="53" y="913.7" type="line"/>
      <point x="450" y="913.7" type="line"/>
      <point x="443" y="874.7" type="line"/>
      <point x="298" y="851.7" type="line"/>
      <point x="298" y="65" type="line"/>
      <point x="461" y="46" type="line"/>
      <point x="452" y="0" type="line"/>
      <point x="57" y="0" type="line"/>
      <point x="62" y="42" type="line"/>
      <point x="190" y="72" type="line"/>
      <point x="190" y="849.7" type="line"/>
    </contour>
    <contour>
      <point x="57" y="1090.7" type="curve" smooth="yes"/>
      <point x="57" y="1140.7"/>
      <point x="73" y="1168.7"/>
      <point x="112" y="1168.7" type="curve" smooth="yes"/>
      <point x="149" y="1168.7"/>
      <point x="170" y="1141.7"/>
      <point x="170" y="1090.7" type="curve" smooth="yes"/>
      <point x="170" y="1037.7"/>
      <point x="156" y="1009.7"/>
      <point x="114" y="1009.7" type="curve" smooth="yes"/>
      <point x="72" y="1009.7"/>
      <point x="57" y="1039.7"/>
    </contour>
    <contour>
      <point x="326" y="1090.7" type="curve" smooth="yes"/>
      <point x="326" y="1140.7"/>
      <point x="341" y="1168.7"/>
      <point x="380" y="1168.7" type="curve" smooth="yes"/>
      <point x="417" y="1168.7"/>
      <point x="438" y="1141.7"/>
      <point x="438" y="1090.7" type="curve" smooth="yes"/>
      <point x="438" y="1037.7"/>
      <point x="423" y="1009.7"/>
      <point x="381" y="1009.7" type="curve" smooth="yes"/>
      <point x="339" y="1009.7"/>
      <point x="326" y="1039.7"/>
    </contour>
  </outline>
</glyph>
<glyph name="j.sc" format="1">
  <advance width="583"/>
  <outline>
    <contour>
      <point x="33" y="-281" type="line"/>
      <point x="200" y="-163.718"/>
      <point x="284" y="-49"/>
      <point x="284" y="184" type="curve" smooth="yes"/>
      <point x="284" y="849.7" type="line"/>
      <point x="134" y="874.7" type="line"/>
      <point x="139" y="913.7" type="line"/>
      <point x="538" y="913.7" type="line"/>
      <point x="532" y="874.7" type="line"/>
      <point x="395" y="851.7" type="line"/>
      <point x="391" y="262" type="line" smooth="yes"/>
      <point x="389" y="-72"/>
      <point x="305" y="-175.893"/>
      <point x="55" y="-325" type="curve"/>
    </contour>
  </outline>
</glyph>
<glyph name="k.sc" format="1">
  <advance width="1017"/>
  <outline>
    <contour>
      <point x="47" y="874.7" type="line"/>
      <point x="52" y="913.7" type="line"/>
      <point x="446" y="913.7" type="line"/>
      <point x="443" y="874.7" type="line"/>
      <point x="298" y="851.7" type="line"/>
      <point x="298" y="65" type="line"/>
      <point x="464" y="46" type="line"/>
      <point x="461" y="0" type="line"/>
      <point x="57" y="0" type="line"/>
      <point x="63" y="42" type="line"/>
      <point x="190" y="72" type="line"/>
      <point x="190" y="849.7" type="line"/>
    </contour>
    <contour>
      <point x="362" y="460" type="line"/>
      <point x="402.075" y="500.11"/>
      <point x="450.779" y="549.593"/>
      <point x="499" y="603" type="curve" smooth="yes"/>
      <point x="738" y="849.7" type="line"/>
      <point x="605" y="874.7" type="line"/>
      <point x="609" y="913.7" type="line"/>
      <point x="946" y="913.7" type="line"/>
      <point x="943" y="874.7" type="line"/>
      <point x="820" y="851.7" type="line"/>
      <point x="456" y="474" type="line"/>
      <point x="580" y="314" type="line" smooth="yes"/>
      <point x="745" y="102"/>
      <point x="834.921" y="58.2731"/>
      <point x="928" y="46" type="curve" smooth="yes"/>
      <point x="958" y="42" type="line"/>
      <point x="956" y="-1" type="line"/>
      <point x="933" y="-13"/>
      <point x="900.453" y="-20"/>
      <point x="864" y="-20" type="curve" smooth="yes"/>
      <point x="701" y="-20"/>
      <point x="618.392" y="82.7867"/>
      <point x="515" y="230" type="curve" smooth="yes"/>
      <point x="364" y="445" type="line"/>
    </contour>
  </outline>
</glyph>
<glyph name="l.sc" format="1">
  <advance width="867"/>
  <outline>
    <contour>
      <point x="51" y="0" type="line"/>
      <point x="56" y="42" type="line"/>
      <point x="195" y="72" type="line"/>
      <point x="195" y="848.7" type="line"/>
      <point x="53" y="873.7" type="line"/>
      <point x="57" y="913.7" type="line"/>
      <point x="452" y="913.7" type="line"/>
      <point x="448" y="873.7" type="line"/>
      <point x="302" y="852.7" type="line"/>
      <point x="302" y="54" type="line"/>
      <point x="716" y="54" type="line"/>
      <point x="783" y="288" type="line"/>
      <point x="827" y="280" type="line"/>
      <point x="815" y="0" type="line"/>
    </contour>
  </outline>
</glyph>
<glyph name="m.sc" format="1">
  <advance width="1324"/>
  <outline>
    <contour>
      <point x="39" y="0" type="line"/>
      <point x="44" y="33" type="line"/>
      <point x="181" y="64" type="line"/>
      <point x="215" y="844.7" type="line"/>
      <point x="61" y="877.7" type="line"/>
      <point x="68" y="913.7" type="line"/>
      <point x="358" y="913.7" type="line"/>
      <point x="438" y="725.7" type="line"/>
      <point x="652" y="227" type="line"/>
      <point x="895" y="768.7" type="line"/>
      <point x="961" y="913.7" type="line"/>
      <point x="1251" y="913.7" type="line"/>
      <point x="1246" y="877.7" type="line"/>
      <point x="1104" y="847.7" type="line"/>
      <point x="1124" y="60" type="line"/>
      <point x="1274" y="40" type="line"/>
      <point x="1272" y="0" type="line"/>
      <point x="870" y="0" type="line"/>
      <point x="876" y="33" type="line"/>
      <point x="1017" y="64" type="line"/>
      <point x="995" y="838.7" type="line"/>
      <point x="646" y="60" type="line"/>
      <point x="596" y="50" type="line"/>
      <point x="278" y="820.7" type="line"/>
      <point x="248" y="61" type="line"/>
      <point x="399" y="37" type="line"/>
      <point x="394" y="0" type="line"/>
    </contour>
  </outline>
</glyph>
<glyph name="n.sc" format="1">
  <advance width="1083"/>
  <outline>
    <contour>
      <point x="47" y="877.7" type="line"/>
      <point x="55" y="913.7" type="line"/>
      <point x="308" y="913.7" type="line"/>
      <point x="821" y="187" type="line"/>
      <point x="821" y="849.7" type="line"/>
      <point x="668" y="874.7" type="line"/>
      <point x="674" y="913.7" type="line"/>
      <point x="1038" y="913.7" type="line"/>
      <point x="1030" y="874.7" type="line"/>
      <point x="894" y="851.7" type="line"/>
      <point x="894" y="-7" type="line"/>
      <point x="840" y="-18" type="line"/>
      <point x="276" y="782.7" type="line"/>
      <point x="276" y="65" type="line"/>
      <point x="430" y="46" type="line"/>
      <point x="420" y="0" type="line"/>
      <point x="59" y="0" type="line"/>
      <point x="65" y="42" type="line"/>
      <point x="202" y="72" type="line"/>
      <point x="202" y="844.7" type="line"/>
    </contour>
  </outline>
</glyph>
<glyph name="ntilde.sc" format="1">
  <advance width="1083"/>
  <outline>
    <contour>
      <point x="47" y="877.7" type="line"/>
      <point x="55" y="913.7" type="line"/>
      <point x="308" y="913.7" type="line"/>
      <point x="821" y="187" type="line"/>
      <point x="821" y="849.7" type="line"/>
      <point x="668" y="874.7" type="line"/>
      <point x="674" y="913.7" type="line"/>
      <point x="1038" y="913.7" type="line"/>
      <point x="1030" y="874.7" type="line"/>
      <point x="894" y="851.7" type="line"/>
      <point x="894" y="-7" type="line"/>
      <point x="840" y="-18" type="line"/>
      <point x="276" y="782.7" type="line"/>
      <point x="276" y="65" type="line"/>
      <point x="430" y="46" type="line"/>
      <point x="420" y="0" type="line"/>
      <point x="59" y="0" type="line"/>
      <point x="65" y="42" type="line"/>
      <point x="202" y="72" type="line"/>
      <point x="202" y="844.7" type="line"/>
    </contour>
    <contour>
      <point x="274" y="1013.7" type="line"/>
      <point x="306" y="1174.7"/>
      <point x="400.777" y="1186.28"/>
      <point x="473" y="1145.9" type="curve" smooth="yes"/>
      <point x="546" y="1105.07" type="line" smooth="yes"/>
      <point x="614.145" y="1066.96"/>
      <point x="669" y="1044.7"/>
      <point x="712" y="1165.7" type="curve"/>
      <point x="744" y="1157.7" type="line"/>
      <point x="715" y="1013.7"/>
      <point x="635.873" y="975.289"/>
      <point x="544" y="1025.92" type="curve" smooth="yes"/>
      <point x="472" y="1065.6" type="line" smooth="yes"/>
      <point x="406.443" y="1101.73"/>
      <point x="351" y="1131.7"/>
      <point x="305" y="1005.7" type="curve"/>
    </contour>
  </outline>
</glyph>
<glyph name="numbersign.osf" format="1">
  <advance width="1065"/>
  <outline>
    <contour>
      <point x="267" y="-19" type="line"/>
      <point x="200" y="-26" type="line"/>
      <point x="344" y="924.7" type="line"/>
      <point x="412" y="934.7" type="line"/>
    </contour>
    <contour>
      <point x="75" y="556" type="line"/>
      <point x="97" y="633" type="line"/>
      <point x="859" y="633" type="line"/>
      <point x="840" y="556" type="line"/>
    </contour>
    <contour>
      <point x="18" y="246" type="line"/>
      <point x="39" y="323" type="line"/>
      <point x="799" y="323" type="line"/>
      <point x="778" y="246" type="line"/>
    </contour>
    <contour>
      <point x="533" y="-19" type="line"/>
      <point x="464" y="-26" type="line"/>
      <point x="609" y="924.7" type="line"/>
      <point x="677" y="933.7" type="line"/>
    </contour>
  </outline>
</glyph>
<glyph name="o.sc" format="1">
  <advance width="968"/>
  <outline>
    <contour>
      <point x="46" y="430" type="curve" smooth="yes"/>
      <point x="46" y="720"/>
      <point x="233.756" y="933.7"/>
      <point x="534" y="933.7" type="curve" smooth="yes"/>
      <point x="809.044" y="933.7"/>
      <point x="953" y="735.319"/>
      <point x="953" y="472" type="curve" smooth="yes"/>
      <point x="953" y="238.523"/>
      <point x="803.928" y="-27"/>
      <point x="475" y="-27" type="curve" smooth="yes"/>
      <point x="213.977" y="-27"/>
      <point x="46" y="180.663"/>
    </contour>
    <contour>
      <point x="156" y="479" type="curve" smooth="yes"/>
      <point x="156" y="201"/>
      <point x="315" y="37"/>
      <point x="503" y="37" type="curve" smooth="yes"/>
      <point x="734.198" y="37"/>
      <point x="849" y="212"/>
      <point x="849" y="430" type="curve" smooth="yes"/>
      <point x="849" y="689"/>
      <point x="706.977" y="877.7"/>
      <point x="496" y="877.7" type="curve" smooth="yes"/>
      <point x="265.398" y="877.7"/>
      <point x="156" y="711"/>
    </contour>
  </outline>
</glyph>
